ISO-10303-21;
HEADER;
FILE_DESCRIPTION (( 'STEP AP214' ),
    '1' );
FILE_NAME ('Base_Spacer.STEP',
    '2026-08-24T21:28:55',
    ( '' ),
    ( '' ),
    'SwSTEP 2.0',
    'SolidWorks 2025',
    '' );
FILE_SCHEMA (( 'AUTOMOTIVE_DESIGN' ));
ENDSEC;

DATA;
#1 = LINE ( 'NONE', #81, #46 ) ;
#2 = AXIS2_PLACEMENT_3D ( 'NONE', #134, #23, #57 ) ;
#3 = SURFACE_SIDE_STYLE ('',( #25 ) ) ;
#4 =( NAMED_UNIT ( * ) SI_UNIT ( $, .STERADIAN. ) SOLID_ANGLE_UNIT ( ) );
#5 = ADVANCED_FACE ( 'NONE', ( #67, #148 ), #209, .T. ) ;
#6 = DIRECTION ( 'NONE',  ( 1.000000000000000000, 0.000000000000000000, 0.000000000000000000 ) ) ;
#7 = AXIS2_PLACEMENT_3D ( 'NONE', #110, #191, #246 ) ;
#8 = ORIENTED_EDGE ( 'NONE', *, *, #168, .T. ) ;
#9 = ORIENTED_EDGE ( 'NONE', *, *, #185, .T. ) ;
#10 = PRODUCT_DEFINITION ( 'UNKNOWN', '', #111, #145 ) ;
#11 = ORIENTED_EDGE ( 'NONE', *, *, #70, .T. ) ;
#12 = ORIENTED_EDGE ( 'NONE', *, *, #93, .F. ) ;
#13 = CONICAL_SURFACE ( 'NONE', #129, 11.74999999999999645, 0.7853981633974469467 ) ;
#14 = ORIENTED_EDGE ( 'NONE', *, *, #232, .T. ) ;
#15 = DIRECTION ( 'NONE',  ( 0.000000000000000000, 0.000000000000000000, 1.000000000000000000 ) ) ;
#16 = CARTESIAN_POINT ( 'NONE',  ( 0.000000000000000000, 2.000000000000000000, -9.750000000000000000 ) ) ;
#17 = CARTESIAN_POINT ( 'NONE',  ( 0.000000000000000000, 0.000000000000000000, 11.50000000000000000 ) ) ;
#18 = CARTESIAN_POINT ( 'NONE',  ( 1.408343819019456373E-15, 0.000000000000000000, -11.50000000000000000 ) ) ;
#19 = CARTESIAN_POINT ( 'NONE',  ( 0.000000000000000000, 2.000000000000000000, 0.000000000000000000 ) ) ;
#20 = EDGE_CURVE ( 'NONE', #190, #90, #151, .T. ) ;
#21 = CARTESIAN_POINT ( 'NONE',  ( 1.408343819019456176E-15, 1.750000000000000000, -11.50000000000000000 ) ) ;
#22 = AXIS2_PLACEMENT_3D ( 'NONE', #21, #94, #178 ) ;
#23 = DIRECTION ( 'NONE',  ( 0.000000000000000000, 1.000000000000000000, 0.000000000000000000 ) ) ;
#24 = VECTOR ( 'NONE', #199, 1000.000000000000000 ) ;
#25 = SURFACE_STYLE_FILL_AREA ( #160 ) ;
#26 = CARTESIAN_POINT ( 'NONE',  ( 1.194030629168669469E-15, 2.000000000000000000, 9.750000000000000000 ) ) ;
#27 = EDGE_CURVE ( 'NONE', #106, #90, #242, .T. ) ;
#28 = EDGE_CURVE ( 'NONE', #205, #144, #141, .T. ) ;
#29 = PRODUCT_CONTEXT ( 'NONE', #107, 'mechanical' ) ;
#30 = EDGE_LOOP ( 'NONE', ( #65, #11 ) ) ;
#31 = ORIENTED_EDGE ( 'NONE', *, *, #142, .T. ) ;
#32 = EDGE_LOOP ( 'NONE', ( #193, #68, #9, #203 ) ) ;
#33 = ORIENTED_EDGE ( 'NONE', *, *, #232, .F. ) ;
#34 = EDGE_LOOP ( 'NONE', ( #31, #146, #147, #108 ) ) ;
#35 = AXIS2_PLACEMENT_3D ( 'NONE', #54, #179, #157 ) ;
#36 = CARTESIAN_POINT ( 'NONE',  ( 0.000000000000000000, 1.750000000000000000, 0.000000000000000000 ) ) ;
#37 = CARTESIAN_POINT ( 'NONE',  ( 1.194030629168669469E-15, 2.000000000000000000, 9.750000000000000000 ) ) ;
#38 = AXIS2_PLACEMENT_3D ( 'NONE', #91, #198, #161 ) ;
#39 = CARTESIAN_POINT ( 'NONE',  ( 0.000000000000000000, 2.000000000000000000, -11.74999999999999645 ) ) ;
#40 = DIRECTION ( 'NONE',  ( 0.000000000000000000, 0.000000000000000000, 1.000000000000000000 ) ) ;
#41 = DIRECTION ( 'NONE',  ( 0.000000000000000000, 0.000000000000000000, -1.000000000000000000 ) ) ;
#42 =( GEOMETRIC_REPRESENTATION_CONTEXT ( 3 ) GLOBAL_UNCERTAINTY_ASSIGNED_CONTEXT ( ( #189 ) ) GLOBAL_UNIT_ASSIGNED_CONTEXT ( ( #163, #239, #104 ) ) REPRESENTATION_CONTEXT ( 'NONE', 'WORKASPACE' ) );
#43 = CARTESIAN_POINT ( 'NONE',  ( 1.561424668912874519E-15, 2.000000000000000000, 11.74999999999999645 ) ) ;
#44 = CARTESIAN_POINT ( 'NONE',  ( 0.000000000000000000, 2.000000000000000000, 0.000000000000000000 ) ) ;
#45 = DIRECTION ( 'NONE',  ( 0.000000000000000000, 1.000000000000000000, 0.000000000000000000 ) ) ;
#46 = VECTOR ( 'NONE', #162, 1000.000000000000000 ) ;
#47 = ORIENTED_EDGE ( 'NONE', *, *, #118, .F. ) ;
#48 = ADVANCED_FACE ( 'NONE', ( #155, #96 ), #200, .F. ) ;
#49 = AXIS2_PLACEMENT_3D ( 'NONE', #115, #195, #235 ) ;
#50 = ORIENTED_EDGE ( 'NONE', *, *, #165, .T. ) ;
#51 = ORIENTED_EDGE ( 'NONE', *, *, #201, .T. ) ;
#52 = EDGE_LOOP ( 'NONE', ( #89, #228 ) ) ;
#53 = FACE_OUTER_BOUND ( 'NONE', #32, .T. ) ;
#54 = CARTESIAN_POINT ( 'NONE',  ( 0.000000000000000000, 0.000000000000000000, 0.000000000000000000 ) ) ;
#55 = CARTESIAN_POINT ( 'NONE',  ( 1.194030629168669469E-15, 1.750000000000000000, 9.750000000000000000 ) ) ;
#56 = ADVANCED_FACE ( 'NONE', ( #53 ), #72, .F. ) ;
#57 = DIRECTION ( 'NONE',  ( 0.000000000000000000, 0.000000000000000000, 1.000000000000000000 ) ) ;
#58 = DIRECTION ( 'NONE',  ( 0.000000000000000000, 0.000000000000000000, -1.000000000000000000 ) ) ;
#59 = CIRCLE ( 'NONE', #38, 11.74999999999999645 ) ;
#60 = CARTESIAN_POINT ( 'NONE',  ( 0.000000000000000000, 1.750000000000000000, 0.000000000000000000 ) ) ;
#61 = MECHANICAL_DESIGN_GEOMETRIC_PRESENTATION_REPRESENTATION (  '', ( #153 ), #121 ) ;
#62 = PRESENTATION_STYLE_ASSIGNMENT (( #137 ) ) ;
#63 = TOROIDAL_SURFACE ( 'NONE', #85, 11.50000000000000000, 1.750000000000000000 ) ;
#64 = ADVANCED_FACE ( 'NONE', ( #119 ), #13, .T. ) ;
#65 = ORIENTED_EDGE ( 'NONE', *, *, #28, .T. ) ;
#66 = ORIENTED_EDGE ( 'NONE', *, *, #20, .T. ) ;
#67 = FACE_OUTER_BOUND ( 'NONE', #169, .T. ) ;
#68 = ORIENTED_EDGE ( 'NONE', *, *, #118, .T. ) ;
#69 = AXIS2_PLACEMENT_3D ( 'NONE', #229, #215, #150 ) ;
#70 = EDGE_CURVE ( 'NONE', #144, #205, #80, .T. ) ;
#71 = DIRECTION ( 'NONE',  ( 0.000000000000000000, 1.000000000000000000, 0.000000000000000000 ) ) ;
#72 = CYLINDRICAL_SURFACE ( 'NONE', #74, 9.750000000000000000 ) ;
#73 = DIRECTION ( 'NONE',  ( 0.000000000000000000, -0.7071067811865484609, -0.7071067811865465735 ) ) ;
#74 = AXIS2_PLACEMENT_3D ( 'NONE', #19, #251, #41 ) ;
#75 = ADVANCED_FACE ( 'NONE', ( #136 ), #63, .T. ) ;
#76 = FACE_OUTER_BOUND ( 'NONE', #34, .T. ) ;
#77 = DIRECTION ( 'NONE',  ( 0.000000000000000000, 0.000000000000000000, 1.000000000000000000 ) ) ;
#78 = DIRECTION ( 'NONE',  ( 0.000000000000000000, 0.000000000000000000, -1.000000000000000000 ) ) ;
#79 = FILL_AREA_STYLE_COLOUR ( '', #166 ) ;
#80 = CIRCLE ( 'NONE', #227, 11.50000000000000000 ) ;
#81 = CARTESIAN_POINT ( 'NONE',  ( 0.000000000000000000, 2.000000000000000000, -9.750000000000000000 ) ) ;
#82 = DIRECTION ( 'NONE',  ( 0.000000000000000000, 0.000000000000000000, 1.000000000000000000 ) ) ;
#83 = EDGE_CURVE ( 'NONE', #245, #125, #213, .T. ) ;
#84 = SHAPE_DEFINITION_REPRESENTATION ( #131, #207 ) ;
#85 = AXIS2_PLACEMENT_3D ( 'NONE', #158, #130, #237 ) ;
#86 = ORIENTED_EDGE ( 'NONE', *, *, #165, .F. ) ;
#87 = EDGE_LOOP ( 'NONE', ( #33, #66, #51, #86 ) ) ;
#88 = ORIENTED_EDGE ( 'NONE', *, *, #210, .F. ) ;
#89 = ORIENTED_EDGE ( 'NONE', *, *, #27, .F. ) ;
#90 = VERTEX_POINT ( 'NONE', #250 ) ;
#91 = CARTESIAN_POINT ( 'NONE',  ( 0.000000000000000000, 2.000000000000000000, 0.000000000000000000 ) ) ;
#92 = DIRECTION ( 'NONE',  ( 0.000000000000000000, 0.000000000000000000, 1.000000000000000000 ) ) ;
#93 = EDGE_CURVE ( 'NONE', #125, #205, #241, .T. ) ;
#94 = DIRECTION ( 'NONE',  ( 1.000000000000000000, -0.000000000000000000, 1.224646799147353207E-16 ) ) ;
#95 = CIRCLE ( 'NONE', #49, 9.750000000000000000 ) ;
#96 = FACE_OUTER_BOUND ( 'NONE', #52, .T. ) ;
#97 = CARTESIAN_POINT ( 'NONE',  ( 0.000000000000000000, 2.000000000000000000, 0.000000000000000000 ) ) ;
#98 = DIRECTION ( 'NONE',  ( 8.659560562354921765E-17, -0.7071067811865484609, 0.7071067811865465735 ) ) ;
#99 = FACE_OUTER_BOUND ( 'NONE', #127, .T. ) ;
#100 =( LENGTH_UNIT ( ) NAMED_UNIT ( * ) SI_UNIT ( .MILLI., .METRE. ) );
#101 = CARTESIAN_POINT ( 'NONE',  ( 0.000000000000000000, 2.000000000000000000, 0.000000000000000000 ) ) ;
#102 = ADVANCED_FACE ( 'NONE', ( #194 ), #220, .T. ) ;
#103 = APPLICATION_PROTOCOL_DEFINITION ( 'draft international standard', 'automotive_design', 1998, #133 ) ;
#104 =( NAMED_UNIT ( * ) SI_UNIT ( $, .STERADIAN. ) SOLID_ANGLE_UNIT ( ) );
#105 = TOROIDAL_SURFACE ( 'NONE', #143, 11.50000000000000000, 1.750000000000000000 ) ;
#106 = VERTEX_POINT ( 'NONE', #135 ) ;
#107 = APPLICATION_CONTEXT ( 'automotive_design' ) ;
#108 = ORIENTED_EDGE ( 'NONE', *, *, #185, .F. ) ;
#109 = EDGE_CURVE ( 'NONE', #125, #243, #122, .T. ) ;
#110 = CARTESIAN_POINT ( 'NONE',  ( 0.000000000000000000, 2.000000000000000000, 0.000000000000000000 ) ) ;
#111 = PRODUCT_DEFINITION_FORMATION_WITH_SPECIFIED_SOURCE ( 'ANY', '', #247, .NOT_KNOWN. ) ;
#112 = ORIENTED_EDGE ( 'NONE', *, *, #222, .F. ) ;
#113 = DIRECTION ( 'NONE',  ( -0.000000000000000000, -1.000000000000000000, -0.000000000000000000 ) ) ;
#114 = DIRECTION ( 'NONE',  ( -1.000000000000000000, 0.000000000000000000, 0.000000000000000000 ) ) ;
#115 = CARTESIAN_POINT ( 'NONE',  ( 0.000000000000000000, 2.000000000000000000, 0.000000000000000000 ) ) ;
#116 = DIRECTION ( 'NONE',  ( 0.000000000000000000, 1.000000000000000000, 0.000000000000000000 ) ) ;
#117 = LINE ( 'NONE', #177, #159 ) ;
#118 = EDGE_CURVE ( 'NONE', #245, #128, #95, .T. ) ;
#119 = FACE_OUTER_BOUND ( 'NONE', #175, .T. ) ;
#120 = DIRECTION ( 'NONE',  ( 0.000000000000000000, 1.000000000000000000, 0.000000000000000000 ) ) ;
#121 =( GEOMETRIC_REPRESENTATION_CONTEXT ( 3 ) GLOBAL_UNCERTAINTY_ASSIGNED_CONTEXT ( ( #171 ) ) GLOBAL_UNIT_ASSIGNED_CONTEXT ( ( #100, #181, #4 ) ) REPRESENTATION_CONTEXT ( 'NONE', 'WORKASPACE' ) );
#122 = CIRCLE ( 'NONE', #206, 9.750000000000000000 ) ;
#123 = DIRECTION ( 'NONE',  ( 0.000000000000000000, 0.000000000000000000, 1.000000000000000000 ) ) ;
#124 = AXIS2_PLACEMENT_3D ( 'NONE', #248, #234, #216 ) ;
#125 = VERTEX_POINT ( 'NONE', #55 ) ;
#126 = ORIENTED_EDGE ( 'NONE', *, *, #28, .F. ) ;
#127 = EDGE_LOOP ( 'NONE', ( #170, #172, #226, #225 ) ) ;
#128 = VERTEX_POINT ( 'NONE', #16 ) ;
#129 = AXIS2_PLACEMENT_3D ( 'NONE', #132, #214, #78 ) ;
#130 = DIRECTION ( 'NONE',  ( 0.000000000000000000, 1.000000000000000000, 0.000000000000000000 ) ) ;
#131 = PRODUCT_DEFINITION_SHAPE ( 'NONE', 'NONE',  #10 ) ;
#132 = CARTESIAN_POINT ( 'NONE',  ( 0.000000000000000000, 2.000000000000000000, 0.000000000000000000 ) ) ;
#133 = APPLICATION_CONTEXT ( 'automotive_design' ) ;
#134 = CARTESIAN_POINT ( 'NONE',  ( 0.000000000000000000, 0.000000000000000000, 0.000000000000000000 ) ) ;
#135 = CARTESIAN_POINT ( 'NONE',  ( 0.000000000000000000, 0.000000000000000000, -13.74999999999999112 ) ) ;
#136 = FACE_OUTER_BOUND ( 'NONE', #224, .T. ) ;
#137 = SURFACE_STYLE_USAGE ( .BOTH. , #3 ) ;
#138 = DIRECTION ( 'NONE',  ( 0.000000000000000000, 1.000000000000000000, 0.000000000000000000 ) ) ;
#139 = AXIS2_PLACEMENT_3D ( 'NONE', #97, #197, #58 ) ;
#140 = AXIS2_PLACEMENT_3D ( 'NONE', #204, #123, #6 ) ;
#141 = CIRCLE ( 'NONE', #35, 11.50000000000000000 ) ;
#142 = EDGE_CURVE ( 'NONE', #128, #245, #196, .T. ) ;
#143 = AXIS2_PLACEMENT_3D ( 'NONE', #60, #138, #183 ) ;
#144 = VERTEX_POINT ( 'NONE', #18 ) ;
#145 = PRODUCT_DEFINITION_CONTEXT ( 'detailed design', #133, 'design' ) ;
#146 = ORIENTED_EDGE ( 'NONE', *, *, #83, .T. ) ;
#147 = ORIENTED_EDGE ( 'NONE', *, *, #109, .T. ) ;
#148 = FACE_BOUND ( 'NONE', #230, .T. ) ;
#149 = CIRCLE ( 'NONE', #156, 13.75000000000000000 ) ;
#150 = DIRECTION ( 'NONE',  ( 0.000000000000000000, 0.000000000000000000, -1.000000000000000000 ) ) ;
#151 = LINE ( 'NONE', #236, #212 ) ;
#152 = CARTESIAN_POINT ( 'NONE',  ( 0.000000000000000000, 0.000000000000000000, 0.000000000000000000 ) ) ;
#153 = STYLED_ITEM ( 'NONE', ( #62 ), #176 ) ;
#154 = CYLINDRICAL_SURFACE ( 'NONE', #69, 9.750000000000000000 ) ;
#155 = FACE_BOUND ( 'NONE', #30, .T. ) ;
#156 = AXIS2_PLACEMENT_3D ( 'NONE', #233, #71, #174 ) ;
#157 = DIRECTION ( 'NONE',  ( 0.000000000000000000, 0.000000000000000000, 1.000000000000000000 ) ) ;
#158 = CARTESIAN_POINT ( 'NONE',  ( 0.000000000000000000, 1.750000000000000000, 0.000000000000000000 ) ) ;
#159 = VECTOR ( 'NONE', #73, 1000.000000000000000 ) ;
#160 = FILL_AREA_STYLE ('',( #79 ) ) ;
#161 = DIRECTION ( 'NONE',  ( 0.000000000000000000, 0.000000000000000000, 1.000000000000000000 ) ) ;
#162 = DIRECTION ( 'NONE',  ( -0.000000000000000000, -1.000000000000000000, -0.000000000000000000 ) ) ;
#163 =( LENGTH_UNIT ( ) NAMED_UNIT ( * ) SI_UNIT ( .MILLI., .METRE. ) );
#164 = CLOSED_SHELL ( 'NONE', ( #75, #102, #192, #5, #48, #56, #64, #238 ) ) ;
#165 = EDGE_CURVE ( 'NONE', #187, #106, #117, .T. ) ;
#166 = COLOUR_RGB ( '',0.7921568627450980005, 0.8196078431372548767, 0.9333333333333333481 ) ;
#167 = ORIENTED_EDGE ( 'NONE', *, *, #20, .F. ) ;
#168 = EDGE_CURVE ( 'NONE', #243, #144, #223, .T. ) ;
#169 = EDGE_LOOP ( 'NONE', ( #211, #14 ) ) ;
#170 = ORIENTED_EDGE ( 'NONE', *, *, #168, .F. ) ;
#171 = UNCERTAINTY_MEASURE_WITH_UNIT (LENGTH_MEASURE( 1.000000000000000082E-05 ), #100, 'distance_accuracy_value', 'NONE');
#172 = ORIENTED_EDGE ( 'NONE', *, *, #109, .F. ) ;
#173 = AXIS2_PLACEMENT_3D ( 'NONE', #36, #113, #15 ) ;
#174 = DIRECTION ( 'NONE',  ( 0.000000000000000000, 0.000000000000000000, 1.000000000000000000 ) ) ;
#175 = EDGE_LOOP ( 'NONE', ( #167, #112, #50, #184 ) ) ;
#176 = MANIFOLD_SOLID_BREP ( 'Fillet1', #164 ) ;
#177 = CARTESIAN_POINT ( 'NONE',  ( 0.000000000000000000, 2.000000000000000000, -11.74999999999999645 ) ) ;
#178 = DIRECTION ( 'NONE',  ( 1.224646799147352961E-16, 0.000000000000000000, -1.000000000000000000 ) ) ;
#179 = DIRECTION ( 'NONE',  ( 0.000000000000000000, 1.000000000000000000, 0.000000000000000000 ) ) ;
#180 = CARTESIAN_POINT ( 'NONE',  ( 0.000000000000000000, 1.750000000000000000, 0.000000000000000000 ) ) ;
#181 =( NAMED_UNIT ( * ) PLANE_ANGLE_UNIT ( ) SI_UNIT ( $, .RADIAN. ) );
#182 = CIRCLE ( 'NONE', #221, 11.74999999999999645 ) ;
#183 = DIRECTION ( 'NONE',  ( 0.000000000000000000, 0.000000000000000000, 1.000000000000000000 ) ) ;
#184 = ORIENTED_EDGE ( 'NONE', *, *, #27, .T. ) ;
#185 = EDGE_CURVE ( 'NONE', #128, #243, #1, .T. ) ;
#186 = APPLICATION_PROTOCOL_DEFINITION ( 'draft international standard', 'automotive_design', 1998, #107 ) ;
#187 = VERTEX_POINT ( 'NONE', #39 ) ;
#188 = CIRCLE ( 'NONE', #173, 9.750000000000000000 ) ;
#189 = UNCERTAINTY_MEASURE_WITH_UNIT (LENGTH_MEASURE( 1.000000000000000082E-05 ), #163, 'distance_accuracy_value', 'NONE');
#190 = VERTEX_POINT ( 'NONE', #43 ) ;
#191 = DIRECTION ( 'NONE',  ( 0.000000000000000000, 1.000000000000000000, 0.000000000000000000 ) ) ;
#192 = ADVANCED_FACE ( 'NONE', ( #76 ), #154, .F. ) ;
#193 = ORIENTED_EDGE ( 'NONE', *, *, #83, .F. ) ;
#194 = FACE_OUTER_BOUND ( 'NONE', #87, .T. ) ;
#195 = DIRECTION ( 'NONE',  ( 0.000000000000000000, 1.000000000000000000, 0.000000000000000000 ) ) ;
#196 = CIRCLE ( 'NONE', #202, 9.750000000000000000 ) ;
#197 = DIRECTION ( 'NONE',  ( 0.000000000000000000, -1.000000000000000000, 0.000000000000000000 ) ) ;
#198 = DIRECTION ( 'NONE',  ( 0.000000000000000000, 1.000000000000000000, 0.000000000000000000 ) ) ;
#199 = DIRECTION ( 'NONE',  ( -0.000000000000000000, -1.000000000000000000, -0.000000000000000000 ) ) ;
#200 = PLANE ( 'NONE',  #124 ) ;
#201 = EDGE_CURVE ( 'NONE', #90, #106, #149, .T. ) ;
#202 = AXIS2_PLACEMENT_3D ( 'NONE', #44, #45, #92 ) ;
#203 = ORIENTED_EDGE ( 'NONE', *, *, #210, .T. ) ;
#204 = CARTESIAN_POINT ( 'NONE',  ( 0.000000000000000000, 0.000000000000000000, 0.000000000000000000 ) ) ;
#205 = VERTEX_POINT ( 'NONE', #17 ) ;
#206 = AXIS2_PLACEMENT_3D ( 'NONE', #180, #217, #218 ) ;
#207 = ADVANCED_BREP_SHAPE_REPRESENTATION ( 'Base_Spacer', ( #176, #140 ), #42 ) ;
#208 = ORIENTED_EDGE ( 'NONE', *, *, #142, .F. ) ;
#209 = PLANE ( 'NONE',  #7 ) ;
#210 = EDGE_CURVE ( 'NONE', #243, #125, #188, .T. ) ;
#211 = ORIENTED_EDGE ( 'NONE', *, *, #222, .T. ) ;
#212 = VECTOR ( 'NONE', #98, 1000.000000000000000 ) ;
#213 = LINE ( 'NONE', #37, #24 ) ;
#214 = DIRECTION ( 'NONE',  ( 0.000000000000000000, -1.000000000000000000, 0.000000000000000000 ) ) ;
#215 = DIRECTION ( 'NONE',  ( -0.000000000000000000, -1.000000000000000000, -0.000000000000000000 ) ) ;
#216 = DIRECTION ( 'NONE',  ( 0.000000000000000000, -0.000000000000000000, 1.000000000000000000 ) ) ;
#217 = DIRECTION ( 'NONE',  ( -0.000000000000000000, -1.000000000000000000, -0.000000000000000000 ) ) ;
#218 = DIRECTION ( 'NONE',  ( 0.000000000000000000, 0.000000000000000000, 1.000000000000000000 ) ) ;
#219 = CARTESIAN_POINT ( 'NONE',  ( 0.000000000000000000, 1.750000000000000000, -9.750000000000000000 ) ) ;
#220 = CONICAL_SURFACE ( 'NONE', #139, 11.74999999999999645, 0.7853981633974469467 ) ;
#221 = AXIS2_PLACEMENT_3D ( 'NONE', #101, #120, #82 ) ;
#222 = EDGE_CURVE ( 'NONE', #187, #190, #59, .T. ) ;
#223 = CIRCLE ( 'NONE', #22, 1.749999999999999778 ) ;
#224 = EDGE_LOOP ( 'NONE', ( #88, #8, #126, #12 ) ) ;
#225 = ORIENTED_EDGE ( 'NONE', *, *, #70, .F. ) ;
#226 = ORIENTED_EDGE ( 'NONE', *, *, #93, .T. ) ;
#227 = AXIS2_PLACEMENT_3D ( 'NONE', #152, #116, #40 ) ;
#228 = ORIENTED_EDGE ( 'NONE', *, *, #201, .F. ) ;
#229 = CARTESIAN_POINT ( 'NONE',  ( 0.000000000000000000, 2.000000000000000000, 0.000000000000000000 ) ) ;
#230 = EDGE_LOOP ( 'NONE', ( #208, #47 ) ) ;
#231 = AXIS2_PLACEMENT_3D ( 'NONE', #249, #114, #77 ) ;
#232 = EDGE_CURVE ( 'NONE', #190, #187, #182, .T. ) ;
#233 = CARTESIAN_POINT ( 'NONE',  ( 0.000000000000000000, 0.000000000000000000, 0.000000000000000000 ) ) ;
#234 = DIRECTION ( 'NONE',  ( 0.000000000000000000, 1.000000000000000000, 0.000000000000000000 ) ) ;
#235 = DIRECTION ( 'NONE',  ( 0.000000000000000000, 0.000000000000000000, 1.000000000000000000 ) ) ;
#236 = CARTESIAN_POINT ( 'NONE',  ( 1.438959988998139569E-15, 2.000000000000000000, 11.74999999999999645 ) ) ;
#237 = DIRECTION ( 'NONE',  ( 0.000000000000000000, 0.000000000000000000, 1.000000000000000000 ) ) ;
#238 = ADVANCED_FACE ( 'NONE', ( #99 ), #105, .T. ) ;
#239 =( NAMED_UNIT ( * ) PLANE_ANGLE_UNIT ( ) SI_UNIT ( $, .RADIAN. ) );
#240 = PRESENTATION_LAYER_ASSIGNMENT (  '', '', ( #153 ) ) ;
#241 = CIRCLE ( 'NONE', #231, 1.749999999999999778 ) ;
#242 = CIRCLE ( 'NONE', #2, 13.75000000000000000 ) ;
#243 = VERTEX_POINT ( 'NONE', #219 ) ;
#244 = PRODUCT_RELATED_PRODUCT_CATEGORY ( 'part', '', ( #247 ) ) ;
#245 = VERTEX_POINT ( 'NONE', #26 ) ;
#246 = DIRECTION ( 'NONE',  ( 0.000000000000000000, -0.000000000000000000, 1.000000000000000000 ) ) ;
#247 = PRODUCT ( 'Base_Spacer', 'Base_Spacer', '', ( #29 ) ) ;
#248 = CARTESIAN_POINT ( 'NONE',  ( 0.000000000000000000, 0.000000000000000000, 0.000000000000000000 ) ) ;
#249 = CARTESIAN_POINT ( 'NONE',  ( 0.000000000000000000, 1.750000000000000000, 11.50000000000000000 ) ) ;
#250 = CARTESIAN_POINT ( 'NONE',  ( 1.683889348827609668E-15, 0.000000000000000000, 13.74999999999999112 ) ) ;
#251 = DIRECTION ( 'NONE',  ( -0.000000000000000000, -1.000000000000000000, -0.000000000000000000 ) ) ;
ENDSEC;
END-ISO-10303-21;
