ISO-10303-21;
HEADER;
FILE_DESCRIPTION (( 'STEP AP214' ),
    '1' );
FILE_NAME ('Base_Mount.STEP',
    '2026-08-25T22:23:24',
    ( '' ),
    ( '' ),
    'SwSTEP 2.0',
    'SolidWorks 2025',
    '' );
FILE_SCHEMA (( 'AUTOMOTIVE_DESIGN' ));
ENDSEC;

DATA;
#1 = CIRCLE ( 'NONE', #281, 1.049999999999999600 ) ;
#2 = ORIENTED_EDGE ( 'NONE', *, *, #97, .F. ) ;
#3 = CARTESIAN_POINT ( 'NONE',  ( 7.500000000000000888, 3.000000000000000000, -1.049999999999999600 ) ) ;
#4 = FACE_BOUND ( 'NONE', #79, .T. ) ;
#5 = EDGE_LOOP ( 'NONE', ( #218, #378, #457, #492 ) ) ;
#6 = AXIS2_PLACEMENT_3D ( 'NONE', #293, #366, #411 ) ;
#7 = CARTESIAN_POINT ( 'NONE',  ( 0.000000000000000000, 0.000000000000000000, 0.000000000000000000 ) ) ;
#8 = VECTOR ( 'NONE', #119, 1000.000000000000000 ) ;
#9 = PLANE ( 'NONE',  #105 ) ;
#10 = CARTESIAN_POINT ( 'NONE',  ( 1.695814722660295527E-15, 0.000000000000000000, 7.500000000000000000 ) ) ;
#11 = EDGE_LOOP ( 'NONE', ( #114, #265 ) ) ;
#12 = CARTESIAN_POINT ( 'NONE',  ( 1.285879139104721028E-15, 3.000000000000000000, 10.50000000000000178 ) ) ;
#13 = CARTESIAN_POINT ( 'NONE',  ( -2.768022860231805830E-15, 3.000000000000000000, -6.449999999999999289 ) ) ;
#14 = CARTESIAN_POINT ( 'NONE',  ( 0.000000000000000000, 0.000000000000000000, -10.50000000000000178 ) ) ;
#15 = ORIENTED_EDGE ( 'NONE', *, *, #363, .F. ) ;
#16 = CARTESIAN_POINT ( 'NONE',  ( 7.500000000000000888, 3.000000000000000000, -1.022467227442224945E-16 ) ) ;
#17 = CARTESIAN_POINT ( 'NONE',  ( 0.000000000000000000, 0.000000000000000000, 0.000000000000000000 ) ) ;
#18 = EDGE_CURVE ( 'NONE', #53, #257, #149, .T. ) ;
#19 = FACE_BOUND ( 'NONE', #73, .T. ) ;
#20 = CIRCLE ( 'NONE', #362, 1.050000000000000488 ) ;
#21 = ORIENTED_EDGE ( 'NONE', *, *, #376, .F. ) ;
#22 = PRODUCT_RELATED_PRODUCT_CATEGORY ( 'part', '', ( #58 ) ) ;
#23 = DIRECTION ( 'NONE',  ( 0.000000000000000000, 0.000000000000000000, 1.000000000000000000 ) ) ;
#24 = CYLINDRICAL_SURFACE ( 'NONE', #6, 1.050000000000000488 ) ;
#25 = VECTOR ( 'NONE', #437, 1000.000000000000000 ) ;
#26 = EDGE_CURVE ( 'NONE', #165, #388, #291, .T. ) ;
#27 = CARTESIAN_POINT ( 'NONE',  ( 1.695814722660295527E-15, 3.000000000000000000, 7.500000000000000000 ) ) ;
#28 = EDGE_LOOP ( 'NONE', ( #270, #143, #2, #32 ) ) ;
#29 = DIRECTION ( 'NONE',  ( -0.000000000000000000, -1.000000000000000000, -0.000000000000000000 ) ) ;
#30 = AXIS2_PLACEMENT_3D ( 'NONE', #141, #29, #63 ) ;
#31 = AXIS2_PLACEMENT_3D ( 'NONE', #200, #235, #354 ) ;
#32 = ORIENTED_EDGE ( 'NONE', *, *, #249, .F. ) ;
#33 = AXIS2_PLACEMENT_3D ( 'NONE', #57, #310, #134 ) ;
#34 = CARTESIAN_POINT ( 'NONE',  ( -7.499999999999999112, 0.000000000000000000, 1.050000000000001155 ) ) ;
#35 = ORIENTED_EDGE ( 'NONE', *, *, #363, .T. ) ;
#36 = APPLICATION_PROTOCOL_DEFINITION ( 'draft international standard', 'automotive_design', 1998, #129 ) ;
#37 = ORIENTED_EDGE ( 'NONE', *, *, #483, .T. ) ;
#38 = EDGE_LOOP ( 'NONE', ( #203, #385, #289, #150 ) ) ;
#39 = DIRECTION ( 'NONE',  ( 0.000000000000000000, 0.000000000000000000, 1.000000000000000000 ) ) ;
#40 = DIRECTION ( 'NONE',  ( -0.000000000000000000, -1.000000000000000000, -0.000000000000000000 ) ) ;
#41 = CARTESIAN_POINT ( 'NONE',  ( 0.000000000000000000, 3.000000000000000000, -1.650000000000000133 ) ) ;
#42 = VECTOR ( 'NONE', #227, 1000.000000000000000 ) ;
#43 =( NAMED_UNIT ( * ) PLANE_ANGLE_UNIT ( ) SI_UNIT ( $, .RADIAN. ) );
#44 = VERTEX_POINT ( 'NONE', #240 ) ;
#45 = CARTESIAN_POINT ( 'NONE',  ( -2.896610774142278051E-15, 0.000000000000000000, -7.500000000000000000 ) ) ;
#46 = CARTESIAN_POINT ( 'NONE',  ( 1.285879139104721028E-15, 0.000000000000000000, 10.50000000000000178 ) ) ;
#47 = CYLINDRICAL_SURFACE ( 'NONE', #113, 10.50000000000000178 ) ;
#48 = VERTEX_POINT ( 'NONE', #271 ) ;
#49 = AXIS2_PLACEMENT_3D ( 'NONE', #103, #254, #364 ) ;
#50 = DIRECTION ( 'NONE',  ( 0.000000000000000000, 1.000000000000000000, 0.000000000000000000 ) ) ;
#51 = CARTESIAN_POINT ( 'NONE',  ( 0.000000000000000000, 0.000000000000000000, 0.000000000000000000 ) ) ;
#52 = DIRECTION ( 'NONE',  ( 0.000000000000000000, 1.000000000000000000, 0.000000000000000000 ) ) ;
#53 = VERTEX_POINT ( 'NONE', #194 ) ;
#54 = CARTESIAN_POINT ( 'NONE',  ( 0.000000000000000000, 0.000000000000000000, 0.000000000000000000 ) ) ;
#55 = ADVANCED_FACE ( 'NONE', ( #436 ), #471, .F. ) ;
#56 = CARTESIAN_POINT ( 'NONE',  ( 7.500000000000000888, 3.000000000000000000, -1.022467227442224945E-16 ) ) ;
#57 = CARTESIAN_POINT ( 'NONE',  ( 1.695814722660295527E-15, 3.000000000000000000, 7.500000000000000000 ) ) ;
#58 = PRODUCT ( 'Base_Mount', 'Base_Mount', '', ( #82 ) ) ;
#59 = EDGE_CURVE ( 'NONE', #225, #118, #98, .T. ) ;
#60 = LINE ( 'NONE', #287, #106 ) ;
#61 = UNCERTAINTY_MEASURE_WITH_UNIT (LENGTH_MEASURE( 1.000000000000000082E-05 ), #308, 'distance_accuracy_value', 'NONE');
#62 = EDGE_CURVE ( 'NONE', #185, #302, #424, .T. ) ;
#63 = DIRECTION ( 'NONE',  ( 0.000000000000000000, 0.000000000000000000, -1.000000000000000000 ) ) ;
#64 = ORIENTED_EDGE ( 'NONE', *, *, #468, .T. ) ;
#65 = DIRECTION ( 'NONE',  ( 0.000000000000000000, 0.000000000000000000, 1.000000000000000000 ) ) ;
#66 = EDGE_LOOP ( 'NONE', ( #35, #466, #408, #147 ) ) ;
#67 = CARTESIAN_POINT ( 'NONE',  ( 1.695814722660295527E-15, 3.000000000000000000, 7.500000000000000000 ) ) ;
#68 = EDGE_LOOP ( 'NONE', ( #297, #108 ) ) ;
#69 = CIRCLE ( 'NONE', #117, 1.050000000000000488 ) ;
#70 = VECTOR ( 'NONE', #382, 1000.000000000000000 ) ;
#71 = ORIENTED_EDGE ( 'NONE', *, *, #188, .F. ) ;
#72 = EDGE_CURVE ( 'NONE', #429, #332, #404, .T. ) ;
#73 = EDGE_LOOP ( 'NONE', ( #298, #71 ) ) ;
#74 = ORIENTED_EDGE ( 'NONE', *, *, #441, .T. ) ;
#75 = ORIENTED_EDGE ( 'NONE', *, *, #174, .F. ) ;
#76 = ADVANCED_FACE ( 'NONE', ( #467 ), #84, .F. ) ;
#77 = FACE_BOUND ( 'NONE', #68, .T. ) ;
#78 = AXIS2_PLACEMENT_3D ( 'NONE', #275, #230, #348 ) ;
#79 = EDGE_LOOP ( 'NONE', ( #338, #152 ) ) ;
#80 = DIRECTION ( 'NONE',  ( 0.000000000000000000, 0.000000000000000000, 1.000000000000000000 ) ) ;
#81 = DIRECTION ( 'NONE',  ( 0.000000000000000000, -0.000000000000000000, 1.000000000000000000 ) ) ;
#82 = PRODUCT_CONTEXT ( 'NONE', #284, 'mechanical' ) ;
#83 = ORIENTED_EDGE ( 'NONE', *, *, #328, .T. ) ;
#84 = CYLINDRICAL_SURFACE ( 'NONE', #33, 1.050000000000000488 ) ;
#85 = FACE_BOUND ( 'NONE', #234, .T. ) ;
#86 = DIRECTION ( 'NONE',  ( -0.000000000000000000, -1.000000000000000000, -0.000000000000000000 ) ) ;
#87 = EDGE_CURVE ( 'NONE', #102, #145, #465, .T. ) ;
#88 = SHAPE_DEFINITION_REPRESENTATION ( #247, #300 ) ;
#89 = EDGE_LOOP ( 'NONE', ( #335, #187, #222, #412 ) ) ;
#90 = DIRECTION ( 'NONE',  ( 0.000000000000000000, 0.000000000000000000, 1.000000000000000000 ) ) ;
#91 = CYLINDRICAL_SURFACE ( 'NONE', #299, 1.650000000000000133 ) ;
#92 = CARTESIAN_POINT ( 'NONE',  ( -2.768022860231805830E-15, 0.000000000000000000, -6.449999999999999289 ) ) ;
#93 = CYLINDRICAL_SURFACE ( 'NONE', #482, 1.050000000000000488 ) ;
#94 = FACE_BOUND ( 'NONE', #11, .T. ) ;
#95 = VECTOR ( 'NONE', #449, 1000.000000000000000 ) ;
#96 = AXIS2_PLACEMENT_3D ( 'NONE', #321, #206, #438 ) ;
#97 = EDGE_CURVE ( 'NONE', #369, #221, #20, .T. ) ;
#98 = CIRCLE ( 'NONE', #183, 10.50000000000000178 ) ;
#99 = DIRECTION ( 'NONE',  ( 0.000000000000000000, 0.000000000000000000, 1.000000000000000000 ) ) ;
#100 = EDGE_CURVE ( 'NONE', #124, #257, #391, .T. ) ;
#101 = LINE ( 'NONE', #251, #349 ) ;
#102 = VERTEX_POINT ( 'NONE', #204 ) ;
#103 = CARTESIAN_POINT ( 'NONE',  ( 0.000000000000000000, 0.000000000000000000, 0.000000000000000000 ) ) ;
#104 = ORIENTED_EDGE ( 'NONE', *, *, #72, .F. ) ;
#105 = AXIS2_PLACEMENT_3D ( 'NONE', #51, #268, #81 ) ;
#106 = VECTOR ( 'NONE', #180, 1000.000000000000000 ) ;
#107 = CARTESIAN_POINT ( 'NONE',  ( 1.824402636570767748E-15, 3.000000000000000000, 8.550000000000000711 ) ) ;
#108 = ORIENTED_EDGE ( 'NONE', *, *, #324, .T. ) ;
#109 = EDGE_CURVE ( 'NONE', #332, #44, #166, .T. ) ;
#110 = AXIS2_PLACEMENT_3D ( 'NONE', #406, #286, #144 ) ;
#111 = AXIS2_PLACEMENT_3D ( 'NONE', #10, #52, #168 ) ;
#112 = CARTESIAN_POINT ( 'NONE',  ( -7.499999999999999112, 0.000000000000000000, 1.734723475976807094E-15 ) ) ;
#113 = AXIS2_PLACEMENT_3D ( 'NONE', #127, #273, #392 ) ;
#114 = ORIENTED_EDGE ( 'NONE', *, *, #87, .F. ) ;
#115 = EDGE_CURVE ( 'NONE', #53, #224, #351, .T. ) ;
#116 = DIRECTION ( 'NONE',  ( 0.000000000000000000, 0.000000000000000000, 1.000000000000000000 ) ) ;
#117 = AXIS2_PLACEMENT_3D ( 'NONE', #256, #370, #99 ) ;
#118 = VERTEX_POINT ( 'NONE', #12 ) ;
#119 = DIRECTION ( 'NONE',  ( -0.000000000000000000, -1.000000000000000000, -0.000000000000000000 ) ) ;
#120 = DIRECTION ( 'NONE',  ( 0.000000000000000000, 0.000000000000000000, -1.000000000000000000 ) ) ;
#121 = VECTOR ( 'NONE', #454, 1000.000000000000000 ) ;
#122 = FACE_BOUND ( 'NONE', #421, .T. ) ;
#123 = APPLICATION_PROTOCOL_DEFINITION ( 'draft international standard', 'automotive_design', 1998, #284 ) ;
#124 = VERTEX_POINT ( 'NONE', #386 ) ;
#125 = DIRECTION ( 'NONE',  ( 0.000000000000000000, 1.000000000000000000, 0.000000000000000000 ) ) ;
#126 = DIRECTION ( 'NONE',  ( 0.000000000000000000, 0.000000000000000000, -1.000000000000000000 ) ) ;
#127 = CARTESIAN_POINT ( 'NONE',  ( 0.000000000000000000, 3.000000000000000000, 0.000000000000000000 ) ) ;
#128 =( GEOMETRIC_REPRESENTATION_CONTEXT ( 3 ) GLOBAL_UNCERTAINTY_ASSIGNED_CONTEXT ( ( #61 ) ) GLOBAL_UNIT_ASSIGNED_CONTEXT ( ( #308, #43, #346 ) ) REPRESENTATION_CONTEXT ( 'NONE', 'WORKASPACE' ) );
#129 = APPLICATION_CONTEXT ( 'automotive_design' ) ;
#130 = ORIENTED_EDGE ( 'NONE', *, *, #441, .F. ) ;
#131 = DIRECTION ( 'NONE',  ( 0.000000000000000000, 1.000000000000000000, 0.000000000000000000 ) ) ;
#132 = DIRECTION ( 'NONE',  ( -0.000000000000000000, -1.000000000000000000, -0.000000000000000000 ) ) ;
#133 = DIRECTION ( 'NONE',  ( 0.000000000000000000, 0.000000000000000000, -1.000000000000000000 ) ) ;
#134 = DIRECTION ( 'NONE',  ( 0.000000000000000000, 0.000000000000000000, -1.000000000000000000 ) ) ;
#135 = CARTESIAN_POINT ( 'NONE',  ( 0.000000000000000000, 3.000000000000000000, 0.000000000000000000 ) ) ;
#136 = DIRECTION ( 'NONE',  ( -0.000000000000000000, -1.000000000000000000, -0.000000000000000000 ) ) ;
#137 = ORIENTED_EDGE ( 'NONE', *, *, #26, .F. ) ;
#138 = CIRCLE ( 'NONE', #410, 1.050000000000000488 ) ;
#139 = CIRCLE ( 'NONE', #416, 1.050000000000000488 ) ;
#140 = AXIS2_PLACEMENT_3D ( 'NONE', #54, #50, #361 ) ;
#141 = CARTESIAN_POINT ( 'NONE',  ( 0.000000000000000000, 3.000000000000000000, 0.000000000000000000 ) ) ;
#142 = FACE_OUTER_BOUND ( 'NONE', #314, .T. ) ;
#143 = ORIENTED_EDGE ( 'NONE', *, *, #285, .T. ) ;
#144 = DIRECTION ( 'NONE',  ( 0.000000000000000000, 0.000000000000000000, 1.000000000000000000 ) ) ;
#145 = VERTEX_POINT ( 'NONE', #315 ) ;
#146 = LINE ( 'NONE', #333, #258 ) ;
#147 = ORIENTED_EDGE ( 'NONE', *, *, #109, .F. ) ;
#148 = EDGE_CURVE ( 'NONE', #182, #377, #248, .T. ) ;
#149 = LINE ( 'NONE', #295, #121 ) ;
#150 = ORIENTED_EDGE ( 'NONE', *, *, #208, .F. ) ;
#151 = ADVANCED_FACE ( 'NONE', ( #319 ), #93, .F. ) ;
#152 = ORIENTED_EDGE ( 'NONE', *, *, #376, .T. ) ;
#153 = CIRCLE ( 'NONE', #323, 1.650000000000000133 ) ;
#154 = DIRECTION ( 'NONE',  ( 0.000000000000000000, 0.000000000000000000, 1.000000000000000000 ) ) ;
#155 = ORIENTED_EDGE ( 'NONE', *, *, #253, .F. ) ;
#156 = CARTESIAN_POINT ( 'NONE',  ( -7.499999999999999112, 0.000000000000000000, -1.049999999999997824 ) ) ;
#157 = FACE_BOUND ( 'NONE', #470, .T. ) ;
#158 = CARTESIAN_POINT ( 'NONE',  ( 0.000000000000000000, 3.000000000000000000, -1.650000000000000133 ) ) ;
#159 = PRESENTATION_LAYER_ASSIGNMENT (  '', '', ( #373 ) ) ;
#160 = DIRECTION ( 'NONE',  ( 1.000000000000000000, 0.000000000000000000, 0.000000000000000000 ) ) ;
#161 = ORIENTED_EDGE ( 'NONE', *, *, #434, .F. ) ;
#162 = DIRECTION ( 'NONE',  ( 0.000000000000000000, 1.000000000000000000, 0.000000000000000000 ) ) ;
#163 = DIRECTION ( 'NONE',  ( 0.000000000000000000, 0.000000000000000000, 1.000000000000000000 ) ) ;
#164 = SURFACE_SIDE_STYLE ('',( #280 ) ) ;
#165 = VERTEX_POINT ( 'NONE', #156 ) ;
#166 = LINE ( 'NONE', #3, #70 ) ;
#167 = CARTESIAN_POINT ( 'NONE',  ( 7.500000000000000888, 3.000000000000000000, -1.049999999999999600 ) ) ;
#168 = DIRECTION ( 'NONE',  ( 0.000000000000000000, 0.000000000000000000, 1.000000000000000000 ) ) ;
#169 = ORIENTED_EDGE ( 'NONE', *, *, #148, .F. ) ;
#170 = DIRECTION ( 'NONE',  ( 0.000000000000000000, 1.000000000000000000, 0.000000000000000000 ) ) ;
#171 = LINE ( 'NONE', #241, #329 ) ;
#172 = CARTESIAN_POINT ( 'NONE',  ( 0.000000000000000000, 3.000000000000000000, 0.000000000000000000 ) ) ;
#173 = AXIS2_PLACEMENT_3D ( 'NONE', #7, #125, #279 ) ;
#174 = EDGE_CURVE ( 'NONE', #486, #182, #303, .T. ) ;
#175 = ADVANCED_FACE ( 'NONE', ( #266 ), #426, .F. ) ;
#176 = CARTESIAN_POINT ( 'NONE',  ( -7.499999999999999112, 3.000000000000000000, 1.734723475976807094E-15 ) ) ;
#177 = CARTESIAN_POINT ( 'NONE',  ( 1.695814722660295527E-15, 3.000000000000000000, 6.449999999999999289 ) ) ;
#178 = LINE ( 'NONE', #107, #371 ) ;
#179 = ORIENTED_EDGE ( 'NONE', *, *, #380, .F. ) ;
#180 = DIRECTION ( 'NONE',  ( -0.000000000000000000, -1.000000000000000000, -0.000000000000000000 ) ) ;
#181 = ADVANCED_FACE ( 'NONE', ( #384 ), #428, .F. ) ;
#182 = VERTEX_POINT ( 'NONE', #277 ) ;
#183 = AXIS2_PLACEMENT_3D ( 'NONE', #389, #131, #80 ) ;
#184 = DIRECTION ( 'NONE',  ( 0.000000000000000000, 0.000000000000000000, 1.000000000000000000 ) ) ;
#185 = VERTEX_POINT ( 'NONE', #14 ) ;
#186 = CARTESIAN_POINT ( 'NONE',  ( -2.896610774142278051E-15, 0.000000000000000000, -8.550000000000000711 ) ) ;
#187 = ORIENTED_EDGE ( 'NONE', *, *, #188, .T. ) ;
#188 = EDGE_CURVE ( 'NONE', #48, #322, #326, .T. ) ;
#189 = ORIENTED_EDGE ( 'NONE', *, *, #468, .F. ) ;
#190 = DIRECTION ( 'NONE',  ( -0.000000000000000000, -1.000000000000000000, -0.000000000000000000 ) ) ;
#191 = CIRCLE ( 'NONE', #480, 1.650000000000000133 ) ;
#192 = CARTESIAN_POINT ( 'NONE',  ( -2.896610774142278051E-15, 3.000000000000000000, -8.550000000000000711 ) ) ;
#193 = ORIENTED_EDGE ( 'NONE', *, *, #451, .F. ) ;
#194 = CARTESIAN_POINT ( 'NONE',  ( 2.020667218593133001E-16, 3.000000000000000000, 1.650000000000000133 ) ) ;
#195 = DIRECTION ( 'NONE',  ( 0.000000000000000000, 1.000000000000000000, 0.000000000000000000 ) ) ;
#196 = FILL_AREA_STYLE_COLOUR ( '', #462 ) ;
#197 = CIRCLE ( 'NONE', #111, 1.050000000000000488 ) ;
#198 = ORIENTED_EDGE ( 'NONE', *, *, #97, .T. ) ;
#199 = ADVANCED_FACE ( 'NONE', ( #122, #94, #360, #423, #19, #237 ), #313, .T. ) ;
#200 = CARTESIAN_POINT ( 'NONE',  ( 0.000000000000000000, 3.000000000000000000, 0.000000000000000000 ) ) ;
#201 = FACE_OUTER_BOUND ( 'NONE', #479, .T. ) ;
#202 = CARTESIAN_POINT ( 'NONE',  ( 0.000000000000000000, 3.000000000000000000, 0.000000000000000000 ) ) ;
#203 = ORIENTED_EDGE ( 'NONE', *, *, #405, .F. ) ;
#204 = CARTESIAN_POINT ( 'NONE',  ( -7.499999999999999112, 3.000000000000000000, -1.049999999999997824 ) ) ;
#205 = DIRECTION ( 'NONE',  ( 0.000000000000000000, 1.000000000000000000, 0.000000000000000000 ) ) ;
#206 = DIRECTION ( 'NONE',  ( 0.000000000000000000, 1.000000000000000000, 0.000000000000000000 ) ) ;
#207 = DIRECTION ( 'NONE',  ( 0.000000000000000000, 1.000000000000000000, 0.000000000000000000 ) ) ;
#208 = EDGE_CURVE ( 'NONE', #377, #182, #197, .T. ) ;
#209 = AXIS2_PLACEMENT_3D ( 'NONE', #16, #162, #90 ) ;
#210 = CYLINDRICAL_SURFACE ( 'NONE', #443, 1.049999999999999600 ) ;
#211 = EDGE_CURVE ( 'NONE', #224, #124, #317, .T. ) ;
#212 = ORIENTED_EDGE ( 'NONE', *, *, #72, .T. ) ;
#213 = CARTESIAN_POINT ( 'NONE',  ( -7.499999999999999112, 0.000000000000000000, 1.734723475976807094E-15 ) ) ;
#214 = CARTESIAN_POINT ( 'NONE',  ( 1.824402636570767748E-15, 0.000000000000000000, 8.550000000000000711 ) ) ;
#215 = AXIS2_PLACEMENT_3D ( 'NONE', #305, #205, #301 ) ;
#216 = ORIENTED_EDGE ( 'NONE', *, *, #59, .F. ) ;
#217 = DIRECTION ( 'NONE',  ( 0.000000000000000000, 1.000000000000000000, 0.000000000000000000 ) ) ;
#218 = ORIENTED_EDGE ( 'NONE', *, *, #18, .F. ) ;
#219 = CIRCLE ( 'NONE', #460, 1.049999999999999600 ) ;
#220 = DIRECTION ( 'NONE',  ( -0.000000000000000000, -1.000000000000000000, -0.000000000000000000 ) ) ;
#221 = VERTEX_POINT ( 'NONE', #92 ) ;
#222 = ORIENTED_EDGE ( 'NONE', *, *, #249, .T. ) ;
#223 = MANIFOLD_SOLID_BREP ( 'Boss-Extrude1', #226 ) ;
#224 = VERTEX_POINT ( 'NONE', #158 ) ;
#225 = VERTEX_POINT ( 'NONE', #307 ) ;
#226 = CLOSED_SHELL ( 'NONE', ( #151, #181, #55, #365, #175, #420, #199, #342, #233, #278, #394, #400, #288, #76 ) ) ;
#227 = DIRECTION ( 'NONE',  ( -0.000000000000000000, -1.000000000000000000, -0.000000000000000000 ) ) ;
#228 = SURFACE_STYLE_USAGE ( .BOTH. , #164 ) ;
#229 = ORIENTED_EDGE ( 'NONE', *, *, #296, .T. ) ;
#230 = DIRECTION ( 'NONE',  ( -0.000000000000000000, -1.000000000000000000, -0.000000000000000000 ) ) ;
#231 = CARTESIAN_POINT ( 'NONE',  ( 7.500000000000000888, 3.000000000000000000, -1.022467227442224945E-16 ) ) ;
#232 = FACE_OUTER_BOUND ( 'NONE', #379, .T. ) ;
#233 = ADVANCED_FACE ( 'NONE', ( #232 ), #47, .T. ) ;
#234 = EDGE_LOOP ( 'NONE', ( #393, #347 ) ) ;
#235 = DIRECTION ( 'NONE',  ( 0.000000000000000000, 1.000000000000000000, 0.000000000000000000 ) ) ;
#236 = DIRECTION ( 'NONE',  ( 0.000000000000000000, 0.000000000000000000, 1.000000000000000000 ) ) ;
#237 = FACE_BOUND ( 'NONE', #450, .T. ) ;
#238 = CARTESIAN_POINT ( 'NONE',  ( 0.000000000000000000, 0.000000000000000000, 0.000000000000000000 ) ) ;
#239 = ORIENTED_EDGE ( 'NONE', *, *, #405, .T. ) ;
#240 = CARTESIAN_POINT ( 'NONE',  ( 7.500000000000000888, 0.000000000000000000, -1.049999999999999600 ) ) ;
#241 = CARTESIAN_POINT ( 'NONE',  ( -7.499999999999999112, 3.000000000000000000, -1.049999999999997824 ) ) ;
#242 =( NAMED_UNIT ( * ) SI_UNIT ( $, .STERADIAN. ) SOLID_ANGLE_UNIT ( ) );
#243 = CARTESIAN_POINT ( 'NONE',  ( 1.695814722660295527E-15, 3.000000000000000000, 7.500000000000000000 ) ) ;
#244 = EDGE_CURVE ( 'NONE', #44, #331, #367, .T. ) ;
#245 = AXIS2_PLACEMENT_3D ( 'NONE', #56, #40, #120 ) ;
#246 = FILL_AREA_STYLE ('',( #196 ) ) ;
#247 = PRODUCT_DEFINITION_SHAPE ( 'NONE', 'NONE',  #488 ) ;
#248 = CIRCLE ( 'NONE', #306, 1.050000000000000488 ) ;
#249 = EDGE_CURVE ( 'NONE', #322, #369, #396, .T. ) ;
#250 = FACE_OUTER_BOUND ( 'NONE', #255, .T. ) ;
#251 = CARTESIAN_POINT ( 'NONE',  ( -7.499999999999999112, 3.000000000000000000, 1.050000000000001155 ) ) ;
#252 = ORIENTED_EDGE ( 'NONE', *, *, #483, .F. ) ;
#253 = EDGE_CURVE ( 'NONE', #102, #165, #171, .T. ) ;
#254 = DIRECTION ( 'NONE',  ( 0.000000000000000000, 1.000000000000000000, 0.000000000000000000 ) ) ;
#255 = EDGE_LOOP ( 'NONE', ( #453, #375, #64, #179 ) ) ;
#256 = CARTESIAN_POINT ( 'NONE',  ( -2.896610774142278051E-15, 3.000000000000000000, -7.500000000000000000 ) ) ;
#257 = VERTEX_POINT ( 'NONE', #458 ) ;
#258 = VECTOR ( 'NONE', #487, 1000.000000000000000 ) ;
#259 = AXIS2_PLACEMENT_3D ( 'NONE', #464, #86, #133 ) ;
#260 = EDGE_CURVE ( 'NONE', #221, #369, #138, .T. ) ;
#261 = DIRECTION ( 'NONE',  ( 0.000000000000000000, 1.000000000000000000, 0.000000000000000000 ) ) ;
#262 = EDGE_LOOP ( 'NONE', ( #229, #357, #294, #337 ) ) ;
#263 = ORIENTED_EDGE ( 'NONE', *, *, #62, .F. ) ;
#264 = FACE_OUTER_BOUND ( 'NONE', #5, .T. ) ;
#265 = ORIENTED_EDGE ( 'NONE', *, *, #328, .F. ) ;
#266 = FACE_OUTER_BOUND ( 'NONE', #262, .T. ) ;
#267 = AXIS2_PLACEMENT_3D ( 'NONE', #112, #261, #475 ) ;
#268 = DIRECTION ( 'NONE',  ( 0.000000000000000000, 1.000000000000000000, 0.000000000000000000 ) ) ;
#269 = DIRECTION ( 'NONE',  ( 0.000000000000000000, 0.000000000000000000, -1.000000000000000000 ) ) ;
#270 = ORIENTED_EDGE ( 'NONE', *, *, #414, .T. ) ;
#271 = CARTESIAN_POINT ( 'NONE',  ( -2.768022860231805830E-15, 3.000000000000000000, -6.449999999999999289 ) ) ;
#272 = FACE_BOUND ( 'NONE', #292, .T. ) ;
#273 = DIRECTION ( 'NONE',  ( -0.000000000000000000, -1.000000000000000000, -0.000000000000000000 ) ) ;
#274 = ORIENTED_EDGE ( 'NONE', *, *, #455, .F. ) ;
#275 = CARTESIAN_POINT ( 'NONE',  ( -2.896610774142278051E-15, 3.000000000000000000, -7.500000000000000000 ) ) ;
#276 = DIRECTION ( 'NONE',  ( 0.000000000000000000, 0.000000000000000000, -1.000000000000000000 ) ) ;
#277 = CARTESIAN_POINT ( 'NONE',  ( 1.695814722660295527E-15, 0.000000000000000000, 6.449999999999999289 ) ) ;
#278 = ADVANCED_FACE ( 'NONE', ( #264 ), #91, .F. ) ;
#279 = DIRECTION ( 'NONE',  ( 0.000000000000000000, 0.000000000000000000, 1.000000000000000000 ) ) ;
#280 = SURFACE_STYLE_FILL_AREA ( #246 ) ;
#281 = AXIS2_PLACEMENT_3D ( 'NONE', #231, #469, #390 ) ;
#282 = AXIS2_PLACEMENT_3D ( 'NONE', #330, #485, #23 ) ;
#283 = AXIS2_PLACEMENT_3D ( 'NONE', #172, #352, #477 ) ;
#284 = APPLICATION_CONTEXT ( 'automotive_design' ) ;
#285 = EDGE_CURVE ( 'NONE', #48, #221, #427, .T. ) ;
#286 = DIRECTION ( 'NONE',  ( 0.000000000000000000, 1.000000000000000000, 0.000000000000000000 ) ) ;
#287 = CARTESIAN_POINT ( 'NONE',  ( 7.500000000000000888, 3.000000000000000000, 1.049999999999999600 ) ) ;
#288 = ADVANCED_FACE ( 'NONE', ( #355 ), #432, .F. ) ;
#289 = ORIENTED_EDGE ( 'NONE', *, *, #174, .T. ) ;
#290 = CARTESIAN_POINT ( 'NONE',  ( 1.824402636570767748E-15, 3.000000000000000000, 8.550000000000000711 ) ) ;
#291 = CIRCLE ( 'NONE', #267, 1.049999999999999600 ) ;
#292 = EDGE_LOOP ( 'NONE', ( #198, #309 ) ) ;
#293 = CARTESIAN_POINT ( 'NONE',  ( -2.896610774142278051E-15, 3.000000000000000000, -7.500000000000000000 ) ) ;
#294 = ORIENTED_EDGE ( 'NONE', *, *, #100, .F. ) ;
#295 = CARTESIAN_POINT ( 'NONE',  ( 2.020667218593133001E-16, 3.000000000000000000, 1.650000000000000133 ) ) ;
#296 = EDGE_CURVE ( 'NONE', #224, #53, #153, .T. ) ;
#297 = ORIENTED_EDGE ( 'NONE', *, *, #100, .T. ) ;
#298 = ORIENTED_EDGE ( 'NONE', *, *, #414, .F. ) ;
#299 = AXIS2_PLACEMENT_3D ( 'NONE', #383, #463, #126 ) ;
#300 = ADVANCED_BREP_SHAPE_REPRESENTATION ( 'Base_Mount', ( #223, #339 ), #128 ) ;
#301 = DIRECTION ( 'NONE',  ( 0.000000000000000000, 0.000000000000000000, 1.000000000000000000 ) ) ;
#302 = VERTEX_POINT ( 'NONE', #46 ) ;
#303 = LINE ( 'NONE', #461, #8 ) ;
#304 = AXIS2_PLACEMENT_3D ( 'NONE', #473, #132, #276 ) ;
#305 = CARTESIAN_POINT ( 'NONE',  ( -7.499999999999999112, 3.000000000000000000, 1.734723475976807094E-15 ) ) ;
#306 = AXIS2_PLACEMENT_3D ( 'NONE', #358, #170, #39 ) ;
#307 = CARTESIAN_POINT ( 'NONE',  ( 0.000000000000000000, 3.000000000000000000, -10.50000000000000178 ) ) ;
#308 =( LENGTH_UNIT ( ) NAMED_UNIT ( * ) SI_UNIT ( .MILLI., .METRE. ) );
#309 = ORIENTED_EDGE ( 'NONE', *, *, #260, .T. ) ;
#310 = DIRECTION ( 'NONE',  ( -0.000000000000000000, -1.000000000000000000, -0.000000000000000000 ) ) ;
#311 = AXIS2_PLACEMENT_3D ( 'NONE', #395, #397, #430 ) ;
#312 = DIRECTION ( 'NONE',  ( 0.000000000000000000, 1.000000000000000000, 0.000000000000000000 ) ) ;
#313 = PLANE ( 'NONE',  #283 ) ;
#314 = EDGE_LOOP ( 'NONE', ( #130, #83, #495, #21 ) ) ;
#315 = CARTESIAN_POINT ( 'NONE',  ( -7.499999999999999112, 3.000000000000000000, 1.050000000000001155 ) ) ;
#316 = CYLINDRICAL_SURFACE ( 'NONE', #304, 1.049999999999999600 ) ;
#317 = LINE ( 'NONE', #41, #402 ) ;
#318 = EDGE_LOOP ( 'NONE', ( #417, #491 ) ) ;
#319 = FACE_OUTER_BOUND ( 'NONE', #343, .T. ) ;
#320 = DIRECTION ( 'NONE',  ( -0.000000000000000000, -1.000000000000000000, -0.000000000000000000 ) ) ;
#321 = CARTESIAN_POINT ( 'NONE',  ( -2.896610774142278051E-15, 3.000000000000000000, -7.500000000000000000 ) ) ;
#322 = VERTEX_POINT ( 'NONE', #350 ) ;
#323 = AXIS2_PLACEMENT_3D ( 'NONE', #135, #195, #116 ) ;
#324 = EDGE_CURVE ( 'NONE', #257, #124, #191, .T. ) ;
#325 = CIRCLE ( 'NONE', #282, 1.049999999999999600 ) ;
#326 = CIRCLE ( 'NONE', #96, 1.050000000000000488 ) ;
#327 = DIRECTION ( 'NONE',  ( 0.000000000000000000, 0.000000000000000000, -1.000000000000000000 ) ) ;
#328 = EDGE_CURVE ( 'NONE', #145, #102, #442, .T. ) ;
#329 = VECTOR ( 'NONE', #320, 1000.000000000000000 ) ;
#330 = CARTESIAN_POINT ( 'NONE',  ( 7.500000000000000888, 0.000000000000000000, -1.022467227442224945E-16 ) ) ;
#331 = VERTEX_POINT ( 'NONE', #422 ) ;
#332 = VERTEX_POINT ( 'NONE', #167 ) ;
#333 = CARTESIAN_POINT ( 'NONE',  ( 1.285879139104721028E-15, 3.000000000000000000, 10.50000000000000178 ) ) ;
#334 = CIRCLE ( 'NONE', #431, 1.050000000000000488 ) ;
#335 = ORIENTED_EDGE ( 'NONE', *, *, #285, .F. ) ;
#336 = DIRECTION ( 'NONE',  ( -0.000000000000000000, -1.000000000000000000, -0.000000000000000000 ) ) ;
#337 = ORIENTED_EDGE ( 'NONE', *, *, #211, .F. ) ;
#338 = ORIENTED_EDGE ( 'NONE', *, *, #26, .T. ) ;
#339 = AXIS2_PLACEMENT_3D ( 'NONE', #238, #413, #160 ) ;
#340 = ORIENTED_EDGE ( 'NONE', *, *, #115, .F. ) ;
#341 = ORIENTED_EDGE ( 'NONE', *, *, #296, .F. ) ;
#342 = ADVANCED_FACE ( 'NONE', ( #345, #77, #4, #272, #85, #157 ), #9, .F. ) ;
#343 = EDGE_LOOP ( 'NONE', ( #37, #239, #169, #75 ) ) ;
#344 = DIRECTION ( 'NONE',  ( 0.000000000000000000, 0.000000000000000000, -1.000000000000000000 ) ) ;
#345 = FACE_OUTER_BOUND ( 'NONE', #489, .T. ) ;
#346 =( NAMED_UNIT ( * ) SI_UNIT ( $, .STERADIAN. ) SOLID_ANGLE_UNIT ( ) );
#347 = ORIENTED_EDGE ( 'NONE', *, *, #434, .T. ) ;
#348 = DIRECTION ( 'NONE',  ( 0.000000000000000000, 0.000000000000000000, -1.000000000000000000 ) ) ;
#349 = VECTOR ( 'NONE', #368, 1000.000000000000000 ) ;
#350 = CARTESIAN_POINT ( 'NONE',  ( -2.896610774142278051E-15, 3.000000000000000000, -8.550000000000000711 ) ) ;
#351 = CIRCLE ( 'NONE', #31, 1.650000000000000133 ) ;
#352 = DIRECTION ( 'NONE',  ( 0.000000000000000000, 1.000000000000000000, 0.000000000000000000 ) ) ;
#353 = ORIENTED_EDGE ( 'NONE', *, *, #380, .T. ) ;
#354 = DIRECTION ( 'NONE',  ( 0.000000000000000000, 0.000000000000000000, 1.000000000000000000 ) ) ;
#355 = FACE_OUTER_BOUND ( 'NONE', #494, .T. ) ;
#356 = DIRECTION ( 'NONE',  ( -0.000000000000000000, -1.000000000000000000, -0.000000000000000000 ) ) ;
#357 = ORIENTED_EDGE ( 'NONE', *, *, #18, .T. ) ;
#358 = CARTESIAN_POINT ( 'NONE',  ( 1.695814722660295527E-15, 0.000000000000000000, 7.500000000000000000 ) ) ;
#359 = DIRECTION ( 'NONE',  ( 0.000000000000000000, 1.000000000000000000, 0.000000000000000000 ) ) ;
#360 = FACE_OUTER_BOUND ( 'NONE', #318, .T. ) ;
#361 = DIRECTION ( 'NONE',  ( 0.000000000000000000, 0.000000000000000000, 1.000000000000000000 ) ) ;
#362 = AXIS2_PLACEMENT_3D ( 'NONE', #45, #207, #439 ) ;
#363 = EDGE_CURVE ( 'NONE', #332, #429, #1, .T. ) ;
#364 = DIRECTION ( 'NONE',  ( 0.000000000000000000, 0.000000000000000000, 1.000000000000000000 ) ) ;
#365 = ADVANCED_FACE ( 'NONE', ( #201 ), #316, .F. ) ;
#366 = DIRECTION ( 'NONE',  ( -0.000000000000000000, -1.000000000000000000, -0.000000000000000000 ) ) ;
#367 = CIRCLE ( 'NONE', #398, 1.049999999999999600 ) ;
#368 = DIRECTION ( 'NONE',  ( -0.000000000000000000, -1.000000000000000000, -0.000000000000000000 ) ) ;
#369 = VERTEX_POINT ( 'NONE', #186 ) ;
#370 = DIRECTION ( 'NONE',  ( 0.000000000000000000, 1.000000000000000000, 0.000000000000000000 ) ) ;
#371 = VECTOR ( 'NONE', #336, 1000.000000000000000 ) ;
#372 = EDGE_LOOP ( 'NONE', ( #341, #340 ) ) ;
#373 = STYLED_ITEM ( 'NONE', ( #399 ), #223 ) ;
#374 = DIRECTION ( 'NONE',  ( 0.000000000000000000, 1.000000000000000000, 0.000000000000000000 ) ) ;
#375 = ORIENTED_EDGE ( 'NONE', *, *, #451, .T. ) ;
#376 = EDGE_CURVE ( 'NONE', #388, #165, #219, .T. ) ;
#377 = VERTEX_POINT ( 'NONE', #214 ) ;
#378 = ORIENTED_EDGE ( 'NONE', *, *, #115, .T. ) ;
#379 = EDGE_LOOP ( 'NONE', ( #193, #216, #353, #409 ) ) ;
#380 = EDGE_CURVE ( 'NONE', #225, #185, #452, .T. ) ;
#381 = ORIENTED_EDGE ( 'NONE', *, *, #208, .T. ) ;
#382 = DIRECTION ( 'NONE',  ( -0.000000000000000000, -1.000000000000000000, -0.000000000000000000 ) ) ;
#383 = CARTESIAN_POINT ( 'NONE',  ( 0.000000000000000000, 3.000000000000000000, 0.000000000000000000 ) ) ;
#384 = FACE_OUTER_BOUND ( 'NONE', #66, .T. ) ;
#385 = ORIENTED_EDGE ( 'NONE', *, *, #455, .T. ) ;
#386 = CARTESIAN_POINT ( 'NONE',  ( 0.000000000000000000, 0.000000000000000000, -1.650000000000000133 ) ) ;
#387 = DIRECTION ( 'NONE',  ( 0.000000000000000000, 1.000000000000000000, 0.000000000000000000 ) ) ;
#388 = VERTEX_POINT ( 'NONE', #34 ) ;
#389 = CARTESIAN_POINT ( 'NONE',  ( 0.000000000000000000, 3.000000000000000000, 0.000000000000000000 ) ) ;
#390 = DIRECTION ( 'NONE',  ( 0.000000000000000000, 0.000000000000000000, 1.000000000000000000 ) ) ;
#391 = CIRCLE ( 'NONE', #140, 1.650000000000000133 ) ;
#392 = DIRECTION ( 'NONE',  ( 0.000000000000000000, 0.000000000000000000, -1.000000000000000000 ) ) ;
#393 = ORIENTED_EDGE ( 'NONE', *, *, #244, .T. ) ;
#394 = ADVANCED_FACE ( 'NONE', ( #142 ), #210, .F. ) ;
#395 = CARTESIAN_POINT ( 'NONE',  ( -7.499999999999999112, 3.000000000000000000, 1.734723475976807094E-15 ) ) ;
#396 = LINE ( 'NONE', #192, #25 ) ;
#397 = DIRECTION ( 'NONE',  ( 0.000000000000000000, 1.000000000000000000, 0.000000000000000000 ) ) ;
#398 = AXIS2_PLACEMENT_3D ( 'NONE', #433, #312, #163 ) ;
#399 = PRESENTATION_STYLE_ASSIGNMENT (( #228 ) ) ;
#400 = ADVANCED_FACE ( 'NONE', ( #484 ), #24, .F. ) ;
#401 = CIRCLE ( 'NONE', #110, 10.50000000000000178 ) ;
#402 = VECTOR ( 'NONE', #136, 1000.000000000000000 ) ;
#403 = PRODUCT_DEFINITION_CONTEXT ( 'detailed design', #129, 'design' ) ;
#404 = CIRCLE ( 'NONE', #209, 1.049999999999999600 ) ;
#405 = EDGE_CURVE ( 'NONE', #435, #377, #178, .T. ) ;
#406 = CARTESIAN_POINT ( 'NONE',  ( 0.000000000000000000, 3.000000000000000000, 0.000000000000000000 ) ) ;
#407 = CYLINDRICAL_SURFACE ( 'NONE', #30, 10.50000000000000178 ) ;
#408 = ORIENTED_EDGE ( 'NONE', *, *, #244, .F. ) ;
#409 = ORIENTED_EDGE ( 'NONE', *, *, #62, .T. ) ;
#410 = AXIS2_PLACEMENT_3D ( 'NONE', #476, #387, #236 ) ;
#411 = DIRECTION ( 'NONE',  ( 0.000000000000000000, 0.000000000000000000, -1.000000000000000000 ) ) ;
#412 = ORIENTED_EDGE ( 'NONE', *, *, #260, .F. ) ;
#413 = DIRECTION ( 'NONE',  ( 0.000000000000000000, 0.000000000000000000, 1.000000000000000000 ) ) ;
#414 = EDGE_CURVE ( 'NONE', #322, #48, #69, .T. ) ;
#415 = CARTESIAN_POINT ( 'NONE',  ( 7.500000000000000888, 3.000000000000000000, 1.049999999999999600 ) ) ;
#416 = AXIS2_PLACEMENT_3D ( 'NONE', #67, #374, #184 ) ;
#417 = ORIENTED_EDGE ( 'NONE', *, *, #59, .T. ) ;
#418 = AXIS2_PLACEMENT_3D ( 'NONE', #202, #356, #269 ) ;
#419 = ORIENTED_EDGE ( 'NONE', *, *, #87, .T. ) ;
#420 = ADVANCED_FACE ( 'NONE', ( #250 ), #407, .T. ) ;
#421 = EDGE_LOOP ( 'NONE', ( #15, #104 ) ) ;
#422 = CARTESIAN_POINT ( 'NONE',  ( 7.500000000000000888, 0.000000000000000000, 1.049999999999999600 ) ) ;
#423 = FACE_BOUND ( 'NONE', #372, .T. ) ;
#424 = CIRCLE ( 'NONE', #173, 10.50000000000000178 ) ;
#425 = ORIENTED_EDGE ( 'NONE', *, *, #493, .F. ) ;
#426 = CYLINDRICAL_SURFACE ( 'NONE', #418, 1.650000000000000133 ) ;
#427 = LINE ( 'NONE', #13, #42 ) ;
#428 = CYLINDRICAL_SURFACE ( 'NONE', #259, 1.049999999999999600 ) ;
#429 = VERTEX_POINT ( 'NONE', #415 ) ;
#430 = DIRECTION ( 'NONE',  ( 0.000000000000000000, 0.000000000000000000, 1.000000000000000000 ) ) ;
#431 = AXIS2_PLACEMENT_3D ( 'NONE', #27, #446, #65 ) ;
#432 = CYLINDRICAL_SURFACE ( 'NONE', #245, 1.049999999999999600 ) ;
#433 = CARTESIAN_POINT ( 'NONE',  ( 7.500000000000000888, 0.000000000000000000, -1.022467227442224945E-16 ) ) ;
#434 = EDGE_CURVE ( 'NONE', #331, #44, #325, .T. ) ;
#435 = VERTEX_POINT ( 'NONE', #290 ) ;
#436 = FACE_OUTER_BOUND ( 'NONE', #28, .T. ) ;
#437 = DIRECTION ( 'NONE',  ( -0.000000000000000000, -1.000000000000000000, -0.000000000000000000 ) ) ;
#438 = DIRECTION ( 'NONE',  ( 0.000000000000000000, 0.000000000000000000, 1.000000000000000000 ) ) ;
#439 = DIRECTION ( 'NONE',  ( 0.000000000000000000, 0.000000000000000000, 1.000000000000000000 ) ) ;
#440 =( NAMED_UNIT ( * ) PLANE_ANGLE_UNIT ( ) SI_UNIT ( $, .RADIAN. ) );
#441 = EDGE_CURVE ( 'NONE', #145, #388, #101, .T. ) ;
#442 = CIRCLE ( 'NONE', #215, 1.049999999999999600 ) ;
#443 = AXIS2_PLACEMENT_3D ( 'NONE', #176, #220, #327 ) ;
#444 = MECHANICAL_DESIGN_GEOMETRIC_PRESENTATION_REPRESENTATION (  '', ( #373 ), #456 ) ;
#445 = UNCERTAINTY_MEASURE_WITH_UNIT (LENGTH_MEASURE( 1.000000000000000082E-05 ), #474, 'distance_accuracy_value', 'NONE');
#446 = DIRECTION ( 'NONE',  ( 0.000000000000000000, 1.000000000000000000, 0.000000000000000000 ) ) ;
#447 = CARTESIAN_POINT ( 'NONE',  ( 0.000000000000000000, 3.000000000000000000, -10.50000000000000178 ) ) ;
#448 = ORIENTED_EDGE ( 'NONE', *, *, #109, .T. ) ;
#449 = DIRECTION ( 'NONE',  ( -0.000000000000000000, -1.000000000000000000, -0.000000000000000000 ) ) ;
#450 = EDGE_LOOP ( 'NONE', ( #252, #274 ) ) ;
#451 = EDGE_CURVE ( 'NONE', #118, #302, #146, .T. ) ;
#452 = LINE ( 'NONE', #447, #95 ) ;
#453 = ORIENTED_EDGE ( 'NONE', *, *, #478, .F. ) ;
#454 = DIRECTION ( 'NONE',  ( -0.000000000000000000, -1.000000000000000000, -0.000000000000000000 ) ) ;
#455 = EDGE_CURVE ( 'NONE', #435, #486, #139, .T. ) ;
#456 =( GEOMETRIC_REPRESENTATION_CONTEXT ( 3 ) GLOBAL_UNCERTAINTY_ASSIGNED_CONTEXT ( ( #445 ) ) GLOBAL_UNIT_ASSIGNED_CONTEXT ( ( #474, #440, #242 ) ) REPRESENTATION_CONTEXT ( 'NONE', 'WORKASPACE' ) );
#457 = ORIENTED_EDGE ( 'NONE', *, *, #211, .T. ) ;
#458 = CARTESIAN_POINT ( 'NONE',  ( 2.020667218593133001E-16, 0.000000000000000000, 1.650000000000000133 ) ) ;
#459 = ORIENTED_EDGE ( 'NONE', *, *, #148, .T. ) ;
#460 = AXIS2_PLACEMENT_3D ( 'NONE', #213, #217, #490 ) ;
#461 = CARTESIAN_POINT ( 'NONE',  ( 1.695814722660295527E-15, 3.000000000000000000, 6.449999999999999289 ) ) ;
#462 = COLOUR_RGB ( '',0.7921568627450980005, 0.8196078431372548767, 0.9333333333333333481 ) ;
#463 = DIRECTION ( 'NONE',  ( -0.000000000000000000, -1.000000000000000000, -0.000000000000000000 ) ) ;
#464 = CARTESIAN_POINT ( 'NONE',  ( 7.500000000000000888, 3.000000000000000000, -1.022467227442224945E-16 ) ) ;
#465 = CIRCLE ( 'NONE', #311, 1.049999999999999600 ) ;
#466 = ORIENTED_EDGE ( 'NONE', *, *, #493, .T. ) ;
#467 = FACE_OUTER_BOUND ( 'NONE', #38, .T. ) ;
#468 = EDGE_CURVE ( 'NONE', #302, #185, #481, .T. ) ;
#469 = DIRECTION ( 'NONE',  ( 0.000000000000000000, 1.000000000000000000, 0.000000000000000000 ) ) ;
#470 = EDGE_LOOP ( 'NONE', ( #459, #381 ) ) ;
#471 = CYLINDRICAL_SURFACE ( 'NONE', #78, 1.050000000000000488 ) ;
#472 = PRODUCT_DEFINITION_FORMATION_WITH_SPECIFIED_SOURCE ( 'ANY', '', #58, .NOT_KNOWN. ) ;
#473 = CARTESIAN_POINT ( 'NONE',  ( -7.499999999999999112, 3.000000000000000000, 1.734723475976807094E-15 ) ) ;
#474 =( LENGTH_UNIT ( ) NAMED_UNIT ( * ) SI_UNIT ( .MILLI., .METRE. ) );
#475 = DIRECTION ( 'NONE',  ( 0.000000000000000000, 0.000000000000000000, 1.000000000000000000 ) ) ;
#476 = CARTESIAN_POINT ( 'NONE',  ( -2.896610774142278051E-15, 0.000000000000000000, -7.500000000000000000 ) ) ;
#477 = DIRECTION ( 'NONE',  ( 0.000000000000000000, -0.000000000000000000, 1.000000000000000000 ) ) ;
#478 = EDGE_CURVE ( 'NONE', #118, #225, #401, .T. ) ;
#479 = EDGE_LOOP ( 'NONE', ( #419, #74, #137, #155 ) ) ;
#480 = AXIS2_PLACEMENT_3D ( 'NONE', #17, #359, #154 ) ;
#481 = CIRCLE ( 'NONE', #49, 10.50000000000000178 ) ;
#482 = AXIS2_PLACEMENT_3D ( 'NONE', #243, #190, #344 ) ;
#483 = EDGE_CURVE ( 'NONE', #486, #435, #334, .T. ) ;
#484 = FACE_OUTER_BOUND ( 'NONE', #89, .T. ) ;
#485 = DIRECTION ( 'NONE',  ( 0.000000000000000000, 1.000000000000000000, 0.000000000000000000 ) ) ;
#486 = VERTEX_POINT ( 'NONE', #177 ) ;
#487 = DIRECTION ( 'NONE',  ( -0.000000000000000000, -1.000000000000000000, -0.000000000000000000 ) ) ;
#488 = PRODUCT_DEFINITION ( 'UNKNOWN', '', #472, #403 ) ;
#489 = EDGE_LOOP ( 'NONE', ( #263, #189 ) ) ;
#490 = DIRECTION ( 'NONE',  ( 0.000000000000000000, 0.000000000000000000, 1.000000000000000000 ) ) ;
#491 = ORIENTED_EDGE ( 'NONE', *, *, #478, .T. ) ;
#492 = ORIENTED_EDGE ( 'NONE', *, *, #324, .F. ) ;
#493 = EDGE_CURVE ( 'NONE', #429, #331, #60, .T. ) ;
#494 = EDGE_LOOP ( 'NONE', ( #425, #212, #448, #161 ) ) ;
#495 = ORIENTED_EDGE ( 'NONE', *, *, #253, .T. ) ;
ENDSEC;
END-ISO-10303-21;
