ISO-10303-21;
HEADER;
FILE_DESCRIPTION (( 'STEP AP214' ),
    '1' );
FILE_NAME ('Connecting Link.STEP',
    '2026-08-26T09:47:18',
    ( '' ),
    ( '' ),
    'SwSTEP 2.0',
    'SolidWorks 2025',
    '' );
FILE_SCHEMA (( 'AUTOMOTIVE_DESIGN' ));
ENDSEC;

DATA;
#1 = EDGE_CURVE ( 'NONE', #214, #459, #162, .T. ) ;
#2 = ORIENTED_EDGE ( 'NONE', *, *, #367, .T. ) ;
#3 = EDGE_LOOP ( 'NONE', ( #199, #80 ) ) ;
#4 = DIRECTION ( 'NONE',  ( 1.000000000000000000, 0.000000000000000000, 0.000000000000000000 ) ) ;
#5 = VECTOR ( 'NONE', #230, 1000.000000000000000 ) ;
#6 = CARTESIAN_POINT ( 'NONE',  ( -11.16987298107780724, -5.500000000000000888, 4.000000000000000000 ) ) ;
#7 = DIRECTION ( 'NONE',  ( 0.000000000000000000, 0.000000000000000000, 1.000000000000000000 ) ) ;
#8 = CIRCLE ( 'NONE', #122, 1.500000000000001332 ) ;
#9 = VERTEX_POINT ( 'NONE', #341 ) ;
#10 = EDGE_CURVE ( 'NONE', #9, #362, #224, .T. ) ;
#11 = ORIENTED_EDGE ( 'NONE', *, *, #367, .F. ) ;
#12 = CARTESIAN_POINT ( 'NONE',  ( 13.02564170347303829, 3.142857142857141017, 4.000000000000000000 ) ) ;
#13 = AXIS2_PLACEMENT_3D ( 'NONE', #266, #59, #306 ) ;
#14 = DIRECTION ( 'NONE',  ( -0.000000000000000000, -0.000000000000000000, -1.000000000000000000 ) ) ;
#15 = FACE_BOUND ( 'NONE', #3, .T. ) ;
#16 = EDGE_CURVE ( 'NONE', #281, #89, #353, .T. ) ;
#17 = CIRCLE ( 'NONE', #93, 3.999999999999994671 ) ;
#18 = DIRECTION ( 'NONE',  ( -1.000000000000000000, 0.000000000000000000, 0.000000000000000000 ) ) ;
#19 = CARTESIAN_POINT ( 'NONE',  ( 11.16987298107781434, -5.500000000000000888, 4.000000000000000000 ) ) ;
#20 = CARTESIAN_POINT ( 'NONE',  ( -11.16987298107780546, 2.499999999999999556, 4.000000000000000000 ) ) ;
#21 = ADVANCED_FACE ( 'NONE', ( #491 ), #421, .F. ) ;
#22 = CARTESIAN_POINT ( 'NONE',  ( 11.16987298107781434, -2.500000000000000444, 4.000000000000000000 ) ) ;
#23 = CARTESIAN_POINT ( 'NONE',  ( 13.99999999999999822, 0.000000000000000000, 4.000000000000000000 ) ) ;
#24 = AXIS2_PLACEMENT_3D ( 'NONE', #495, #343, #148 ) ;
#25 = ORIENTED_EDGE ( 'NONE', *, *, #128, .T. ) ;
#26 = LINE ( 'NONE', #193, #259 ) ;
#27 = EDGE_LOOP ( 'NONE', ( #2, #479, #232, #190 ) ) ;
#28 = PRESENTATION_LAYER_ASSIGNMENT (  '', '', ( #292 ) ) ;
#29 = LINE ( 'NONE', #163, #133 ) ;
#30 = CARTESIAN_POINT ( 'NONE',  ( 15.50000000000000000, 0.000000000000000000, 4.000000000000000000 ) ) ;
#31 = ORIENTED_EDGE ( 'NONE', *, *, #294, .F. ) ;
#32 = CARTESIAN_POINT ( 'NONE',  ( -11.16987298107780724, -2.500000000000000444, 4.000000000000000000 ) ) ;
#33 = DIRECTION ( 'NONE',  ( -1.000000000000000000, 0.000000000000000000, 0.000000000000000000 ) ) ;
#34 = LINE ( 'NONE', #201, #155 ) ;
#35 = FACE_OUTER_BOUND ( 'NONE', #126, .T. ) ;
#36 = ORIENTED_EDGE ( 'NONE', *, *, #449, .F. ) ;
#37 = CARTESIAN_POINT ( 'NONE',  ( 11.16987298107781434, 2.499999999999999556, 0.000000000000000000 ) ) ;
#38 = ORIENTED_EDGE ( 'NONE', *, *, #108, .F. ) ;
#39 = EDGE_CURVE ( 'NONE', #511, #281, #418, .T. ) ;
#40 = DIRECTION ( 'NONE',  ( -1.000000000000000000, 0.000000000000000000, 0.000000000000000000 ) ) ;
#41 = CIRCLE ( 'NONE', #195, 2.999999999999999112 ) ;
#42 = DIRECTION ( 'NONE',  ( 0.000000000000000000, 0.000000000000000000, 1.000000000000000000 ) ) ;
#43 = ORIENTED_EDGE ( 'NONE', *, *, #303, .T. ) ;
#44 = CARTESIAN_POINT ( 'NONE',  ( -15.50000000000000000, 0.000000000000000000, 4.000000000000000000 ) ) ;
#45 = EDGE_CURVE ( 'NONE', #459, #291, #417, .T. ) ;
#46 = ORIENTED_EDGE ( 'NONE', *, *, #371, .F. ) ;
#47 = CARTESIAN_POINT ( 'NONE',  ( -15.50000000000000000, 0.000000000000000000, 4.000000000000000000 ) ) ;
#48 = COLOUR_RGB ( '',0.7921568627450980005, 0.8196078431372548767, 0.9333333333333333481 ) ;
#49 = AXIS2_PLACEMENT_3D ( 'NONE', #198, #68, #454 ) ;
#50 = ORIENTED_EDGE ( 'NONE', *, *, #128, .F. ) ;
#51 = EDGE_CURVE ( 'NONE', #206, #390, #338, .T. ) ;
#52 = MECHANICAL_DESIGN_GEOMETRIC_PRESENTATION_REPRESENTATION (  '', ( #292 ), #208 ) ;
#53 = AXIS2_PLACEMENT_3D ( 'NONE', #403, #42, #284 ) ;
#54 = DIRECTION ( 'NONE',  ( -1.000000000000000000, 0.000000000000000000, 0.000000000000000000 ) ) ;
#55 = ADVANCED_FACE ( 'NONE', ( #15, #109, #380 ), #383, .T. ) ;
#56 = CARTESIAN_POINT ( 'NONE',  ( 11.16987298107781434, -5.500000000000000888, 0.000000000000000000 ) ) ;
#57 = EDGE_CURVE ( 'NONE', #161, #168, #204, .T. ) ;
#58 = CARTESIAN_POINT ( 'NONE',  ( -11.16987298107780724, -2.500000000000000444, 0.000000000000000000 ) ) ;
#59 = DIRECTION ( 'NONE',  ( 0.000000000000000000, 0.000000000000000000, 1.000000000000000000 ) ) ;
#60 = DIRECTION ( 'NONE',  ( -1.000000000000000000, 0.000000000000000000, 0.000000000000000000 ) ) ;
#61 = DIRECTION ( 'NONE',  ( -0.000000000000000000, -0.000000000000000000, -1.000000000000000000 ) ) ;
#62 = ORIENTED_EDGE ( 'NONE', *, *, #322, .F. ) ;
#63 = DIRECTION ( 'NONE',  ( -0.000000000000000000, -0.000000000000000000, -1.000000000000000000 ) ) ;
#64 = FACE_OUTER_BOUND ( 'NONE', #27, .T. ) ;
#65 = DIRECTION ( 'NONE',  ( -1.000000000000000000, 0.000000000000000000, 0.000000000000000000 ) ) ;
#66 = AXIS2_PLACEMENT_3D ( 'NONE', #423, #61, #348 ) ;
#67 = FACE_OUTER_BOUND ( 'NONE', #178, .T. ) ;
#68 = DIRECTION ( 'NONE',  ( 0.000000000000000000, -1.000000000000000000, 0.000000000000000000 ) ) ;
#69 = ORIENTED_EDGE ( 'NONE', *, *, #16, .F. ) ;
#70 = CIRCLE ( 'NONE', #369, 3.000000000000000888 ) ;
#71 = CARTESIAN_POINT ( 'NONE',  ( -17.00000000000000000, 0.000000000000000000, 4.000000000000000000 ) ) ;
#72 = CIRCLE ( 'NONE', #256, 2.999999999999999112 ) ;
#73 = VERTEX_POINT ( 'NONE', #234 ) ;
#74 = DIRECTION ( 'NONE',  ( -1.000000000000000000, 0.000000000000000000, 0.000000000000000000 ) ) ;
#75 = FACE_OUTER_BOUND ( 'NONE', #349, .T. ) ;
#76 = ORIENTED_EDGE ( 'NONE', *, *, #492, .F. ) ;
#77 = CARTESIAN_POINT ( 'NONE',  ( -13.99999999999999822, 1.836970198721029441E-16, 4.000000000000000000 ) ) ;
#78 = CARTESIAN_POINT ( 'NONE',  ( 15.50000000000000000, 0.000000000000000000, 4.000000000000000000 ) ) ;
#79 = ADVANCED_FACE ( 'NONE', ( #110 ), #426, .T. ) ;
#80 = ORIENTED_EDGE ( 'NONE', *, *, #186, .F. ) ;
#81 = AXIS2_PLACEMENT_3D ( 'NONE', #229, #385, #453 ) ;
#82 = CARTESIAN_POINT ( 'NONE',  ( -11.16987298107780724, -5.500000000000000888, 0.000000000000000000 ) ) ;
#83 = APPLICATION_PROTOCOL_DEFINITION ( 'draft international standard', 'automotive_design', 1998, #96 ) ;
#84 = ORIENTED_EDGE ( 'NONE', *, *, #51, .F. ) ;
#85 = EDGE_CURVE ( 'NONE', #164, #441, #345, .T. ) ;
#86 = VECTOR ( 'NONE', #272, 1000.000000000000000 ) ;
#87 = LINE ( 'NONE', #251, #269 ) ;
#88 = CARTESIAN_POINT ( 'NONE',  ( 11.16987298107781434, -2.500000000000000444, 4.000000000000000000 ) ) ;
#89 = VERTEX_POINT ( 'NONE', #189 ) ;
#90 =( NAMED_UNIT ( * ) PLANE_ANGLE_UNIT ( ) SI_UNIT ( $, .RADIAN. ) );
#91 = CYLINDRICAL_SURFACE ( 'NONE', #255, 4.000000000000000000 ) ;
#92 = EDGE_LOOP ( 'NONE', ( #416, #62, #247, #409 ) ) ;
#93 = AXIS2_PLACEMENT_3D ( 'NONE', #137, #484, #177 ) ;
#94 = CARTESIAN_POINT ( 'NONE',  ( 15.50000000000000000, 0.000000000000000000, 4.000000000000000000 ) ) ;
#95 = ORIENTED_EDGE ( 'NONE', *, *, #205, .F. ) ;
#96 = APPLICATION_CONTEXT ( 'automotive_design' ) ;
#97 = ADVANCED_FACE ( 'NONE', ( #75 ), #160, .F. ) ;
#98 = SHAPE_DEFINITION_REPRESENTATION ( #439, #276 ) ;
#99 = AXIS2_PLACEMENT_3D ( 'NONE', #202, #510, #227 ) ;
#100 = VECTOR ( 'NONE', #185, 1000.000000000000000 ) ;
#101 = VERTEX_POINT ( 'NONE', #354 ) ;
#102 = DIRECTION ( 'NONE',  ( -0.000000000000000000, -0.000000000000000000, -1.000000000000000000 ) ) ;
#103 = CYLINDRICAL_SURFACE ( 'NONE', #470, 1.500000000000001332 ) ;
#104 = ORIENTED_EDGE ( 'NONE', *, *, #16, .T. ) ;
#105 = CIRCLE ( 'NONE', #282, 1.500000000000001332 ) ;
#106 = PRODUCT_DEFINITION_FORMATION_WITH_SPECIFIED_SOURCE ( 'ANY', '', #283, .NOT_KNOWN. ) ;
#107 = EDGE_LOOP ( 'NONE', ( #76, #250, #197, #46 ) ) ;
#108 = EDGE_CURVE ( 'NONE', #161, #248, #460, .T. ) ;
#109 = FACE_OUTER_BOUND ( 'NONE', #435, .T. ) ;
#110 = FACE_OUTER_BOUND ( 'NONE', #157, .T. ) ;
#111 = DIRECTION ( 'NONE',  ( -0.000000000000000000, -0.000000000000000000, -1.000000000000000000 ) ) ;
#112 = DIRECTION ( 'NONE',  ( 1.000000000000000000, 0.000000000000000000, 0.000000000000000000 ) ) ;
#113 = DIRECTION ( 'NONE',  ( -0.000000000000000000, -0.000000000000000000, -1.000000000000000000 ) ) ;
#114 = VECTOR ( 'NONE', #373, 1000.000000000000000 ) ;
#115 = ORIENTED_EDGE ( 'NONE', *, *, #415, .T. ) ;
#116 = FACE_OUTER_BOUND ( 'NONE', #324, .T. ) ;
#117 = DIRECTION ( 'NONE',  ( -0.000000000000000000, -0.000000000000000000, -1.000000000000000000 ) ) ;
#118 = ORIENTED_EDGE ( 'NONE', *, *, #45, .F. ) ;
#119 = ORIENTED_EDGE ( 'NONE', *, *, #336, .T. ) ;
#120 = DIRECTION ( 'NONE',  ( 0.000000000000000000, -0.000000000000000000, 1.000000000000000000 ) ) ;
#121 = ORIENTED_EDGE ( 'NONE', *, *, #211, .T. ) ;
#122 = AXIS2_PLACEMENT_3D ( 'NONE', #356, #325, #394 ) ;
#123 = CARTESIAN_POINT ( 'NONE',  ( -17.00000000000000000, 0.000000000000000000, 4.000000000000000000 ) ) ;
#124 = EDGE_CURVE ( 'NONE', #101, #161, #153, .T. ) ;
#125 = DIRECTION ( 'NONE',  ( -0.000000000000000000, -0.000000000000000000, -1.000000000000000000 ) ) ;
#126 = EDGE_LOOP ( 'NONE', ( #463, #84, #404, #139 ) ) ;
#127 = CARTESIAN_POINT ( 'NONE',  ( 11.16987298107781434, 5.500000000000000000, 4.000000000000000000 ) ) ;
#128 = EDGE_CURVE ( 'NONE', #244, #248, #342, .T. ) ;
#129 = VERTEX_POINT ( 'NONE', #392 ) ;
#130 = AXIS2_PLACEMENT_3D ( 'NONE', #150, #389, #120 ) ;
#131 = ORIENTED_EDGE ( 'NONE', *, *, #294, .T. ) ;
#132 = ORIENTED_EDGE ( 'NONE', *, *, #467, .T. ) ;
#133 = VECTOR ( 'NONE', #457, 1000.000000000000000 ) ;
#134 =( LENGTH_UNIT ( ) NAMED_UNIT ( * ) SI_UNIT ( .MILLI., .METRE. ) );
#135 = ORIENTED_EDGE ( 'NONE', *, *, #166, .F. ) ;
#136 = DIRECTION ( 'NONE',  ( 1.000000000000000000, 0.000000000000000000, 0.000000000000000000 ) ) ;
#137 = CARTESIAN_POINT ( 'NONE',  ( 15.50000000000000000, 0.000000000000000000, 0.000000000000000000 ) ) ;
#138 = ADVANCED_FACE ( 'NONE', ( #116 ), #280, .F. ) ;
#139 = ORIENTED_EDGE ( 'NONE', *, *, #494, .T. ) ;
#140 = CIRCLE ( 'NONE', #249, 1.500000000000001332 ) ;
#141 = CARTESIAN_POINT ( 'NONE',  ( -11.16987298107780724, -2.500000000000000444, 4.000000000000000000 ) ) ;
#142 = ADVANCED_FACE ( 'NONE', ( #493 ), #465, .F. ) ;
#143 =( NAMED_UNIT ( * ) SI_UNIT ( $, .STERADIAN. ) SOLID_ANGLE_UNIT ( ) );
#144 = CARTESIAN_POINT ( 'NONE',  ( -13.02564170347303474, -3.142857142857143682, 4.000000000000000000 ) ) ;
#145 = ADVANCED_FACE ( 'NONE', ( #64 ), #270, .F. ) ;
#146 = UNCERTAINTY_MEASURE_WITH_UNIT (LENGTH_MEASURE( 1.000000000000000082E-05 ), #134, 'distance_accuracy_value', 'NONE');
#147 = CARTESIAN_POINT ( 'NONE',  ( 11.16987298107781434, 2.499999999999999556, 4.000000000000000000 ) ) ;
#148 = DIRECTION ( 'NONE',  ( 1.000000000000000000, 0.000000000000000000, 0.000000000000000000 ) ) ;
#149 = DIRECTION ( 'NONE',  ( 0.000000000000000000, 0.000000000000000000, 1.000000000000000000 ) ) ;
#150 = CARTESIAN_POINT ( 'NONE',  ( -11.16987298107780724, -2.500000000000000444, 4.000000000000000000 ) ) ;
#151 = APPLICATION_CONTEXT ( 'automotive_design' ) ;
#152 = DIRECTION ( 'NONE',  ( -0.000000000000000000, -0.000000000000000000, -1.000000000000000000 ) ) ;
#153 = LINE ( 'NONE', #308, #387 ) ;
#154 = AXIS2_PLACEMENT_3D ( 'NONE', #512, #63, #469 ) ;
#155 = VECTOR ( 'NONE', #360, 1000.000000000000000 ) ;
#156 = DIRECTION ( 'NONE',  ( -0.000000000000000000, -0.000000000000000000, -1.000000000000000000 ) ) ;
#157 = EDGE_LOOP ( 'NONE', ( #313, #374, #285, #95 ) ) ;
#158 = DIRECTION ( 'NONE',  ( -1.000000000000000000, -0.000000000000000000, -0.000000000000000000 ) ) ;
#159 = VERTEX_POINT ( 'NONE', #58 ) ;
#160 = CYLINDRICAL_SURFACE ( 'NONE', #364, 2.999999999999999112 ) ;
#161 = VERTEX_POINT ( 'NONE', #506 ) ;
#162 = CIRCLE ( 'NONE', #13, 4.000000000000000000 ) ;
#163 = CARTESIAN_POINT ( 'NONE',  ( -11.16987298107780724, -2.500000000000000444, 4.000000000000000000 ) ) ;
#164 = VERTEX_POINT ( 'NONE', #312 ) ;
#165 = ORIENTED_EDGE ( 'NONE', *, *, #437, .F. ) ;
#166 = EDGE_CURVE ( 'NONE', #357, #362, #26, .T. ) ;
#167 = AXIS2_PLACEMENT_3D ( 'NONE', #47, #505, #112 ) ;
#168 = VERTEX_POINT ( 'NONE', #456 ) ;
#169 = ORIENTED_EDGE ( 'NONE', *, *, #413, .F. ) ;
#170 = CARTESIAN_POINT ( 'NONE',  ( 15.50000000000000000, 0.000000000000000000, 0.000000000000000000 ) ) ;
#171 = FILL_AREA_STYLE ('',( #293 ) ) ;
#172 = EDGE_CURVE ( 'NONE', #168, #129, #226, .T. ) ;
#173 = ADVANCED_FACE ( 'NONE', ( #35 ), #462, .T. ) ;
#174 = CARTESIAN_POINT ( 'NONE',  ( 13.02564170347303829, -3.142857142857141906, 4.000000000000000000 ) ) ;
#175 = ORIENTED_EDGE ( 'NONE', *, *, #85, .F. ) ;
#176 = CIRCLE ( 'NONE', #490, 1.500000000000001332 ) ;
#177 = DIRECTION ( 'NONE',  ( -1.000000000000000000, 0.000000000000000000, 0.000000000000000000 ) ) ;
#178 = EDGE_LOOP ( 'NONE', ( #115, #396, #31, #175 ) ) ;
#179 = CARTESIAN_POINT ( 'NONE',  ( 17.00000000000000000, 1.836970198721029441E-16, 4.000000000000000000 ) ) ;
#180 = UNCERTAINTY_MEASURE_WITH_UNIT (LENGTH_MEASURE( 1.000000000000000082E-05 ), #487, 'distance_accuracy_value', 'NONE');
#181 = CARTESIAN_POINT ( 'NONE',  ( 13.02564170347303829, 3.142857142857141017, 4.000000000000000000 ) ) ;
#182 = AXIS2_PLACEMENT_3D ( 'NONE', #476, #295, #474 ) ;
#183 = CIRCLE ( 'NONE', #339, 3.999999999999994671 ) ;
#184 = CARTESIAN_POINT ( 'NONE',  ( 11.16987298107781434, 5.500000000000000000, 4.000000000000000000 ) ) ;
#185 = DIRECTION ( 'NONE',  ( -0.000000000000000000, -0.000000000000000000, -1.000000000000000000 ) ) ;
#186 = EDGE_CURVE ( 'NONE', #357, #347, #140, .T. ) ;
#187 = AXIS2_PLACEMENT_3D ( 'NONE', #56, #111, #18 ) ;
#188 = DIRECTION ( 'NONE',  ( -0.000000000000000000, -0.000000000000000000, -1.000000000000000000 ) ) ;
#189 = CARTESIAN_POINT ( 'NONE',  ( 13.02564170347303829, -3.142857142857141906, 0.000000000000000000 ) ) ;
#190 = ORIENTED_EDGE ( 'NONE', *, *, #446, .T. ) ;
#191 = CARTESIAN_POINT ( 'NONE',  ( -13.02564170347303474, -3.142857142857143682, 4.000000000000000000 ) ) ;
#192 = DIRECTION ( 'NONE',  ( -1.000000000000000000, 0.000000000000000000, 0.000000000000000000 ) ) ;
#193 = CARTESIAN_POINT ( 'NONE',  ( -13.99999999999999822, 1.836970198721030427E-16, 4.000000000000000000 ) ) ;
#194 = ORIENTED_EDGE ( 'NONE', *, *, #257, .T. ) ;
#195 = AXIS2_PLACEMENT_3D ( 'NONE', #19, #14, #60 ) ;
#196 = VECTOR ( 'NONE', #125, 1000.000000000000000 ) ;
#197 = ORIENTED_EDGE ( 'NONE', *, *, #85, .T. ) ;
#198 = CARTESIAN_POINT ( 'NONE',  ( -11.16987298107780546, 2.499999999999999556, 4.000000000000000000 ) ) ;
#199 = ORIENTED_EDGE ( 'NONE', *, *, #401, .F. ) ;
#200 = DIRECTION ( 'NONE',  ( -0.000000000000000000, -0.000000000000000000, -1.000000000000000000 ) ) ;
#201 = CARTESIAN_POINT ( 'NONE',  ( 17.00000000000000000, 1.836970198721030427E-16, 4.000000000000000000 ) ) ;
#202 = CARTESIAN_POINT ( 'NONE',  ( -11.16987298107780546, 5.500000000000000000, 4.000000000000000000 ) ) ;
#203 = ORIENTED_EDGE ( 'NONE', *, *, #268, .T. ) ;
#204 = CIRCLE ( 'NONE', #99, 3.000000000000000888 ) ;
#205 = EDGE_CURVE ( 'NONE', #223, #291, #422, .T. ) ;
#206 = VERTEX_POINT ( 'NONE', #12 ) ;
#207 = DIRECTION ( 'NONE',  ( -1.000000000000000000, 0.000000000000000000, 0.000000000000000000 ) ) ;
#208 =( GEOMETRIC_REPRESENTATION_CONTEXT ( 3 ) GLOBAL_UNCERTAINTY_ASSIGNED_CONTEXT ( ( #180 ) ) GLOBAL_UNIT_ASSIGNED_CONTEXT ( ( #487, #265, #143 ) ) REPRESENTATION_CONTEXT ( 'NONE', 'WORKASPACE' ) );
#209 = VERTEX_POINT ( 'NONE', #179 ) ;
#210 = DIRECTION ( 'NONE',  ( 0.000000000000000000, 0.000000000000000000, 1.000000000000000000 ) ) ;
#211 = EDGE_CURVE ( 'NONE', #511, #323, #41, .T. ) ;
#212 = DIRECTION ( 'NONE',  ( -0.000000000000000000, -0.000000000000000000, -1.000000000000000000 ) ) ;
#213 = LINE ( 'NONE', #398, #196 ) ;
#214 = VERTEX_POINT ( 'NONE', #488 ) ;
#215 = DIRECTION ( 'NONE',  ( -1.000000000000000000, 0.000000000000000000, 0.000000000000000000 ) ) ;
#216 = CARTESIAN_POINT ( 'NONE',  ( 11.16987298107781434, -2.500000000000000444, 0.000000000000000000 ) ) ;
#217 = EDGE_LOOP ( 'NONE', ( #135, #399, #119, #278 ) ) ;
#218 = VECTOR ( 'NONE', #375, 1000.000000000000000 ) ;
#219 = EDGE_CURVE ( 'NONE', #129, #459, #379, .T. ) ;
#220 = ADVANCED_FACE ( 'NONE', ( #316 ), #309, .F. ) ;
#221 = DIRECTION ( 'NONE',  ( -0.000000000000000000, -0.000000000000000000, -1.000000000000000000 ) ) ;
#222 = CIRCLE ( 'NONE', #497, 1.500000000000001332 ) ;
#223 = VERTEX_POINT ( 'NONE', #191 ) ;
#224 = CIRCLE ( 'NONE', #508, 1.500000000000001332 ) ;
#225 = SURFACE_STYLE_FILL_AREA ( #171 ) ;
#226 = CIRCLE ( 'NONE', #376, 4.000000000000000000 ) ;
#227 = DIRECTION ( 'NONE',  ( -1.000000000000000000, 0.000000000000000000, 0.000000000000000000 ) ) ;
#228 = CARTESIAN_POINT ( 'NONE',  ( 11.16987298107781434, 5.500000000000000000, 0.000000000000000000 ) ) ;
#229 = CARTESIAN_POINT ( 'NONE',  ( -11.16987298107780546, 5.500000000000000000, 4.000000000000000000 ) ) ;
#230 = DIRECTION ( 'NONE',  ( -0.000000000000000000, -0.000000000000000000, -1.000000000000000000 ) ) ;
#231 = ADVANCED_FACE ( 'NONE', ( #67 ), #350, .F. ) ;
#232 = ORIENTED_EDGE ( 'NONE', *, *, #334, .F. ) ;
#233 = CARTESIAN_POINT ( 'NONE',  ( -19.50000000000000000, 0.000000000000000000, 0.000000000000000000 ) ) ;
#234 = CARTESIAN_POINT ( 'NONE',  ( 17.00000000000000000, 1.836970198721029441E-16, 0.000000000000000000 ) ) ;
#235 = CARTESIAN_POINT ( 'NONE',  ( -15.50000000000000000, 0.000000000000000000, 4.000000000000000000 ) ) ;
#236 = EDGE_LOOP ( 'NONE', ( #430, #279, #203, #388 ) ) ;
#237 = VECTOR ( 'NONE', #156, 1000.000000000000000 ) ;
#238 = CYLINDRICAL_SURFACE ( 'NONE', #296, 3.000000000000000888 ) ;
#239 = PRODUCT_DEFINITION ( 'UNKNOWN', '', #106, #377 ) ;
#240 = DIRECTION ( 'NONE',  ( 1.000000000000000000, 0.000000000000000000, 0.000000000000000000 ) ) ;
#241 = ORIENTED_EDGE ( 'NONE', *, *, #205, .T. ) ;
#242 = DIRECTION ( 'NONE',  ( -0.000000000000000000, -0.000000000000000000, -1.000000000000000000 ) ) ;
#243 = DIRECTION ( 'NONE',  ( -0.000000000000000000, -0.000000000000000000, -1.000000000000000000 ) ) ;
#244 = VERTEX_POINT ( 'NONE', #37 ) ;
#245 = AXIS2_PLACEMENT_3D ( 'NONE', #184, #395, #384 ) ;
#246 = DIRECTION ( 'NONE',  ( 0.000000000000000000, 0.000000000000000000, 1.000000000000000000 ) ) ;
#247 = ORIENTED_EDGE ( 'NONE', *, *, #257, .F. ) ;
#248 = VERTEX_POINT ( 'NONE', #444 ) ;
#249 = AXIS2_PLACEMENT_3D ( 'NONE', #429, #434, #240 ) ;
#250 = ORIENTED_EDGE ( 'NONE', *, *, #413, .T. ) ;
#251 = CARTESIAN_POINT ( 'NONE',  ( -13.02564170347303119, 3.142857142857141461, 4.000000000000000000 ) ) ;
#252 = CARTESIAN_POINT ( 'NONE',  ( -15.50000000000000000, 0.000000000000000000, 4.000000000000000000 ) ) ;
#253 = ADVANCED_FACE ( 'NONE', ( #330 ), #335, .F. ) ;
#254 = DIRECTION ( 'NONE',  ( -0.000000000000000000, -0.000000000000000000, -1.000000000000000000 ) ) ;
#255 = AXIS2_PLACEMENT_3D ( 'NONE', #252, #221, #215 ) ;
#256 = AXIS2_PLACEMENT_3D ( 'NONE', #6, #331, #74 ) ;
#257 = EDGE_CURVE ( 'NONE', #206, #101, #320, .T. ) ;
#258 = VECTOR ( 'NONE', #188, 1000.000000000000000 ) ;
#259 = VECTOR ( 'NONE', #305, 1000.000000000000000 ) ;
#260 = ORIENTED_EDGE ( 'NONE', *, *, #489, .T. ) ;
#261 = DIRECTION ( 'NONE',  ( -0.000000000000000000, -0.000000000000000000, -1.000000000000000000 ) ) ;
#262 = AXIS2_PLACEMENT_3D ( 'NONE', #228, #271, #346 ) ;
#263 = ORIENTED_EDGE ( 'NONE', *, *, #172, .T. ) ;
#264 = PRESENTATION_STYLE_ASSIGNMENT (( #299 ) ) ;
#265 =( NAMED_UNIT ( * ) PLANE_ANGLE_UNIT ( ) SI_UNIT ( $, .RADIAN. ) );
#266 = CARTESIAN_POINT ( 'NONE',  ( -15.50000000000000000, 0.000000000000000000, 0.000000000000000000 ) ) ;
#267 = CARTESIAN_POINT ( 'NONE',  ( -11.16987298107780724, -5.500000000000000888, 4.000000000000000000 ) ) ;
#268 = EDGE_CURVE ( 'NONE', #168, #214, #87, .T. ) ;
#269 = VECTOR ( 'NONE', #212, 1000.000000000000000 ) ;
#270 = PLANE ( 'NONE',  #130 ) ;
#271 = DIRECTION ( 'NONE',  ( -0.000000000000000000, -0.000000000000000000, -1.000000000000000000 ) ) ;
#272 = DIRECTION ( 'NONE',  ( -0.000000000000000000, -0.000000000000000000, -1.000000000000000000 ) ) ;
#273 = CARTESIAN_POINT ( 'NONE',  ( 11.16987298107781434, -5.500000000000000888, 4.000000000000000000 ) ) ;
#274 = FACE_BOUND ( 'NONE', #466, .T. ) ;
#275 = ORIENTED_EDGE ( 'NONE', *, *, #124, .T. ) ;
#276 = ADVANCED_BREP_SHAPE_REPRESENTATION ( 'Connecting Link', ( #315, #53 ), #477 ) ;
#277 = DIRECTION ( 'NONE',  ( -1.000000000000000000, 0.000000000000000000, 0.000000000000000000 ) ) ;
#278 = ORIENTED_EDGE ( 'NONE', *, *, #303, .F. ) ;
#279 = ORIENTED_EDGE ( 'NONE', *, *, #172, .F. ) ;
#280 = PLANE ( 'NONE',  #49 ) ;
#281 = VERTEX_POINT ( 'NONE', #216 ) ;
#282 = AXIS2_PLACEMENT_3D ( 'NONE', #44, #210, #4 ) ;
#283 = PRODUCT ( 'Connecting Link', 'Connecting Link', '', ( #365 ) ) ;
#284 = DIRECTION ( 'NONE',  ( 1.000000000000000000, 0.000000000000000000, 0.000000000000000000 ) ) ;
#285 = ORIENTED_EDGE ( 'NONE', *, *, #45, .T. ) ;
#286 = CARTESIAN_POINT ( 'NONE',  ( 15.50000000000000000, 0.000000000000000000, 4.000000000000000000 ) ) ;
#287 = CARTESIAN_POINT ( 'NONE',  ( 15.50000000000000000, 0.000000000000000000, 0.000000000000000000 ) ) ;
#288 = ORIENTED_EDGE ( 'NONE', *, *, #401, .T. ) ;
#289 = VECTOR ( 'NONE', #158, 1000.000000000000000 ) ;
#290 = CARTESIAN_POINT ( 'NONE',  ( -11.16987298107780546, 5.500000000000000000, 0.000000000000000000 ) ) ;
#291 = VERTEX_POINT ( 'NONE', #366 ) ;
#292 = STYLED_ITEM ( 'NONE', ( #264 ), #315 ) ;
#293 = FILL_AREA_STYLE_COLOUR ( '', #48 ) ;
#294 = EDGE_CURVE ( 'NONE', #441, #73, #222, .T. ) ;
#295 = DIRECTION ( 'NONE',  ( -0.000000000000000000, -0.000000000000000000, -1.000000000000000000 ) ) ;
#296 = AXIS2_PLACEMENT_3D ( 'NONE', #127, #321, #33 ) ;
#297 = SURFACE_SIDE_STYLE ('',( #225 ) ) ;
#298 = CARTESIAN_POINT ( 'NONE',  ( -19.50000000000000000, 0.000000000000000000, 4.000000000000000000 ) ) ;
#299 = SURFACE_STYLE_USAGE ( .BOTH. , #297 ) ;
#300 = AXIS2_PLACEMENT_3D ( 'NONE', #286, #363, #400 ) ;
#301 = DIRECTION ( 'NONE',  ( 1.000000000000000000, 0.000000000000000000, 0.000000000000000000 ) ) ;
#302 = DIRECTION ( 'NONE',  ( -1.000000000000000000, 0.000000000000000000, 0.000000000000000000 ) ) ;
#303 = EDGE_CURVE ( 'NONE', #362, #9, #176, .T. ) ;
#304 = CARTESIAN_POINT ( 'NONE',  ( -15.50000000000000000, 0.000000000000000000, 0.000000000000000000 ) ) ;
#305 = DIRECTION ( 'NONE',  ( -0.000000000000000000, -0.000000000000000000, -1.000000000000000000 ) ) ;
#306 = DIRECTION ( 'NONE',  ( 1.000000000000000000, 0.000000000000000000, 0.000000000000000000 ) ) ;
#307 = AXIS2_PLACEMENT_3D ( 'NONE', #78, #243, #397 ) ;
#308 = CARTESIAN_POINT ( 'NONE',  ( -11.16987298107780546, 2.499999999999999556, 4.000000000000000000 ) ) ;
#309 = CYLINDRICAL_SURFACE ( 'NONE', #154, 1.500000000000001332 ) ;
#310 = DIRECTION ( 'NONE',  ( 1.000000000000000000, 0.000000000000000000, 0.000000000000000000 ) ) ;
#311 = ORIENTED_EDGE ( 'NONE', *, *, #381, .F. ) ;
#312 = CARTESIAN_POINT ( 'NONE',  ( 13.99999999999999822, 0.000000000000000000, 4.000000000000000000 ) ) ;
#313 = ORIENTED_EDGE ( 'NONE', *, *, #455, .F. ) ;
#314 = DIRECTION ( 'NONE',  ( 0.000000000000000000, 0.000000000000000000, 1.000000000000000000 ) ) ;
#315 = MANIFOLD_SOLID_BREP ( 'Boss-Extrude1', #337 ) ;
#316 = FACE_OUTER_BOUND ( 'NONE', #217, .T. ) ;
#317 = ORIENTED_EDGE ( 'NONE', *, *, #322, .T. ) ;
#318 = ORIENTED_EDGE ( 'NONE', *, *, #1, .F. ) ;
#319 = CARTESIAN_POINT ( 'NONE',  ( 13.02564170347303829, 3.142857142857141017, 0.000000000000000000 ) ) ;
#320 = CIRCLE ( 'NONE', #182, 3.000000000000000888 ) ;
#321 = DIRECTION ( 'NONE',  ( -0.000000000000000000, -0.000000000000000000, -1.000000000000000000 ) ) ;
#322 = EDGE_CURVE ( 'NONE', #101, #244, #478, .T. ) ;
#323 = VERTEX_POINT ( 'NONE', #174 ) ;
#324 = EDGE_LOOP ( 'NONE', ( #25, #38, #471, #317 ) ) ;
#325 = DIRECTION ( 'NONE',  ( 0.000000000000000000, 0.000000000000000000, 1.000000000000000000 ) ) ;
#326 = ADVANCED_FACE ( 'NONE', ( #452, #274, #431 ), #427, .F. ) ;
#327 = VECTOR ( 'NONE', #152, 1000.000000000000000 ) ;
#328 = ORIENTED_EDGE ( 'NONE', *, *, #371, .T. ) ;
#329 = EDGE_LOOP ( 'NONE', ( #288, #475, #448, #428 ) ) ;
#330 = FACE_OUTER_BOUND ( 'NONE', #107, .T. ) ;
#331 = DIRECTION ( 'NONE',  ( -0.000000000000000000, -0.000000000000000000, -1.000000000000000000 ) ) ;
#332 = AXIS2_PLACEMENT_3D ( 'NONE', #287, #246, #40 ) ;
#333 = DIRECTION ( 'NONE',  ( 0.000000000000000000, 0.000000000000000000, 1.000000000000000000 ) ) ;
#334 = EDGE_CURVE ( 'NONE', #432, #511, #29, .T. ) ;
#335 = CYLINDRICAL_SURFACE ( 'NONE', #420, 1.500000000000001332 ) ;
#336 = EDGE_CURVE ( 'NONE', #347, #9, #436, .T. ) ;
#337 = CLOSED_SHELL ( 'NONE', ( #231, #482, #79, #55, #326, #340, #138, #21, #445, #97, #145, #142, #173, #220, #253 ) ) ;
#338 = LINE ( 'NONE', #181, #327 ) ;
#339 = AXIS2_PLACEMENT_3D ( 'NONE', #486, #447, #192 ) ;
#340 = ADVANCED_FACE ( 'NONE', ( #468 ), #238, .F. ) ;
#341 = CARTESIAN_POINT ( 'NONE',  ( -17.00000000000000000, 0.000000000000000000, 0.000000000000000000 ) ) ;
#342 = LINE ( 'NONE', #419, #289 ) ;
#343 = DIRECTION ( 'NONE',  ( 0.000000000000000000, 0.000000000000000000, 1.000000000000000000 ) ) ;
#344 = CARTESIAN_POINT ( 'NONE',  ( -15.50000000000000000, 0.000000000000000000, 4.000000000000000000 ) ) ;
#345 = LINE ( 'NONE', #23, #5 ) ;
#346 = DIRECTION ( 'NONE',  ( 1.000000000000000000, 0.000000000000000000, 0.000000000000000000 ) ) ;
#347 = VERTEX_POINT ( 'NONE', #123 ) ;
#348 = DIRECTION ( 'NONE',  ( -1.000000000000000000, 0.000000000000000000, 0.000000000000000000 ) ) ;
#349 = EDGE_LOOP ( 'NONE', ( #513, #368, #425, #241 ) ) ;
#350 = CYLINDRICAL_SURFACE ( 'NONE', #307, 1.500000000000001332 ) ;
#351 = DIRECTION ( 'NONE',  ( -1.000000000000000000, 0.000000000000000000, 0.000000000000000000 ) ) ;
#352 = EDGE_LOOP ( 'NONE', ( #104, #355, #499, #514 ) ) ;
#353 = CIRCLE ( 'NONE', #187, 2.999999999999999112 ) ;
#354 = CARTESIAN_POINT ( 'NONE',  ( 11.16987298107781434, 2.499999999999999556, 4.000000000000000000 ) ) ;
#355 = ORIENTED_EDGE ( 'NONE', *, *, #494, .F. ) ;
#356 = CARTESIAN_POINT ( 'NONE',  ( 15.50000000000000000, 0.000000000000000000, 4.000000000000000000 ) ) ;
#357 = VERTEX_POINT ( 'NONE', #77 ) ;
#358 = VECTOR ( 'NONE', #440, 1000.000000000000000 ) ;
#359 = EDGE_CURVE ( 'NONE', #390, #244, #405, .T. ) ;
#360 = DIRECTION ( 'NONE',  ( -0.000000000000000000, -0.000000000000000000, -1.000000000000000000 ) ) ;
#361 = ORIENTED_EDGE ( 'NONE', *, *, #57, .F. ) ;
#362 = VERTEX_POINT ( 'NONE', #498 ) ;
#363 = DIRECTION ( 'NONE',  ( 0.000000000000000000, 0.000000000000000000, 1.000000000000000000 ) ) ;
#364 = AXIS2_PLACEMENT_3D ( 'NONE', #267, #496, #351 ) ;
#365 = PRODUCT_CONTEXT ( 'NONE', #96, 'mechanical' ) ;
#366 = CARTESIAN_POINT ( 'NONE',  ( -13.02564170347303474, -3.142857142857143682, 0.000000000000000000 ) ) ;
#367 = EDGE_CURVE ( 'NONE', #159, #281, #461, .T. ) ;
#368 = ORIENTED_EDGE ( 'NONE', *, *, #446, .F. ) ;
#369 = AXIS2_PLACEMENT_3D ( 'NONE', #290, #200, #207 ) ;
#370 = CARTESIAN_POINT ( 'NONE',  ( -15.50000000000000000, 0.000000000000000000, 0.000000000000000000 ) ) ;
#371 = EDGE_CURVE ( 'NONE', #73, #441, #458, .T. ) ;
#372 = APPLICATION_PROTOCOL_DEFINITION ( 'draft international standard', 'automotive_design', 1998, #151 ) ;
#373 = DIRECTION ( 'NONE',  ( -0.000000000000000000, -0.000000000000000000, -1.000000000000000000 ) ) ;
#374 = ORIENTED_EDGE ( 'NONE', *, *, #219, .T. ) ;
#375 = DIRECTION ( 'NONE',  ( -0.000000000000000000, -0.000000000000000000, -1.000000000000000000 ) ) ;
#376 = AXIS2_PLACEMENT_3D ( 'NONE', #235, #501, #310 ) ;
#377 = PRODUCT_DEFINITION_CONTEXT ( 'detailed design', #151, 'design' ) ;
#378 = ORIENTED_EDGE ( 'NONE', *, *, #57, .T. ) ;
#379 = LINE ( 'NONE', #298, #86 ) ;
#380 = FACE_BOUND ( 'NONE', #502, .T. ) ;
#381 = EDGE_CURVE ( 'NONE', #291, #159, #433, .T. ) ;
#382 = CIRCLE ( 'NONE', #167, 4.000000000000000000 ) ;
#383 = PLANE ( 'NONE',  #245 ) ;
#384 = DIRECTION ( 'NONE',  ( 1.000000000000000000, 0.000000000000000000, -0.000000000000000000 ) ) ;
#385 = DIRECTION ( 'NONE',  ( -0.000000000000000000, -0.000000000000000000, -1.000000000000000000 ) ) ;
#386 = DIRECTION ( 'NONE',  ( -1.000000000000000000, -0.000000000000000000, -0.000000000000000000 ) ) ;
#387 = VECTOR ( 'NONE', #386, 1000.000000000000000 ) ;
#388 = ORIENTED_EDGE ( 'NONE', *, *, #1, .T. ) ;
#389 = DIRECTION ( 'NONE',  ( 0.000000000000000000, 1.000000000000000000, 0.000000000000000000 ) ) ;
#390 = VERTEX_POINT ( 'NONE', #319 ) ;
#391 = AXIS2_PLACEMENT_3D ( 'NONE', #509, #314, #503 ) ;
#392 = CARTESIAN_POINT ( 'NONE',  ( -19.50000000000000000, 0.000000000000000000, 4.000000000000000000 ) ) ;
#393 = EDGE_LOOP ( 'NONE', ( #442, #504, #361, #451 ) ) ;
#394 = DIRECTION ( 'NONE',  ( -1.000000000000000000, 0.000000000000000000, 0.000000000000000000 ) ) ;
#395 = DIRECTION ( 'NONE',  ( 0.000000000000000000, 0.000000000000000000, 1.000000000000000000 ) ) ;
#396 = ORIENTED_EDGE ( 'NONE', *, *, #492, .T. ) ;
#397 = DIRECTION ( 'NONE',  ( -1.000000000000000000, 0.000000000000000000, 0.000000000000000000 ) ) ;
#398 = CARTESIAN_POINT ( 'NONE',  ( 13.02564170347303829, -3.142857142857141906, 4.000000000000000000 ) ) ;
#399 = ORIENTED_EDGE ( 'NONE', *, *, #186, .T. ) ;
#400 = DIRECTION ( 'NONE',  ( -1.000000000000000000, 0.000000000000000000, 0.000000000000000000 ) ) ;
#401 = EDGE_CURVE ( 'NONE', #347, #357, #105, .T. ) ;
#402 = CARTESIAN_POINT ( 'NONE',  ( -11.16987298107780724, -2.500000000000000444, 0.000000000000000000 ) ) ;
#403 = CARTESIAN_POINT ( 'NONE',  ( 0.000000000000000000, 0.000000000000000000, 0.000000000000000000 ) ) ;
#404 = ORIENTED_EDGE ( 'NONE', *, *, #467, .F. ) ;
#405 = CIRCLE ( 'NONE', #262, 3.000000000000000888 ) ;
#406 = CARTESIAN_POINT ( 'NONE',  ( 13.99999999999999822, 0.000000000000000000, 0.000000000000000000 ) ) ;
#407 =( NAMED_UNIT ( * ) SI_UNIT ( $, .STERADIAN. ) SOLID_ANGLE_UNIT ( ) );
#408 = LINE ( 'NONE', #141, #218 ) ;
#409 = ORIENTED_EDGE ( 'NONE', *, *, #51, .T. ) ;
#410 = CIRCLE ( 'NONE', #300, 1.500000000000001332 ) ;
#411 = DIRECTION ( 'NONE',  ( -1.000000000000000000, 0.000000000000000000, 0.000000000000000000 ) ) ;
#412 = AXIS2_PLACEMENT_3D ( 'NONE', #273, #113, #302 ) ;
#413 = EDGE_CURVE ( 'NONE', #209, #164, #8, .T. ) ;
#414 = AXIS2_PLACEMENT_3D ( 'NONE', #30, #117, #277 ) ;
#415 = EDGE_CURVE ( 'NONE', #164, #209, #410, .T. ) ;
#416 = ORIENTED_EDGE ( 'NONE', *, *, #359, .T. ) ;
#417 = CIRCLE ( 'NONE', #24, 4.000000000000000000 ) ;
#418 = LINE ( 'NONE', #22, #258 ) ;
#419 = CARTESIAN_POINT ( 'NONE',  ( -11.16987298107780546, 2.499999999999999556, 0.000000000000000000 ) ) ;
#420 = AXIS2_PLACEMENT_3D ( 'NONE', #94, #254, #411 ) ;
#421 = CYLINDRICAL_SURFACE ( 'NONE', #81, 3.000000000000000888 ) ;
#422 = LINE ( 'NONE', #144, #485 ) ;
#423 = CARTESIAN_POINT ( 'NONE',  ( -15.50000000000000000, 0.000000000000000000, 4.000000000000000000 ) ) ;
#424 = PRODUCT_RELATED_PRODUCT_CATEGORY ( 'part', '', ( #283 ) ) ;
#425 = ORIENTED_EDGE ( 'NONE', *, *, #489, .F. ) ;
#426 = CYLINDRICAL_SURFACE ( 'NONE', #66, 4.000000000000000000 ) ;
#427 = PLANE ( 'NONE',  #391 ) ;
#428 = ORIENTED_EDGE ( 'NONE', *, *, #336, .F. ) ;
#429 = CARTESIAN_POINT ( 'NONE',  ( -15.50000000000000000, 0.000000000000000000, 4.000000000000000000 ) ) ;
#430 = ORIENTED_EDGE ( 'NONE', *, *, #219, .F. ) ;
#431 = FACE_BOUND ( 'NONE', #483, .T. ) ;
#432 = VERTEX_POINT ( 'NONE', #32 ) ;
#433 = CIRCLE ( 'NONE', #450, 2.999999999999999112 ) ;
#434 = DIRECTION ( 'NONE',  ( 0.000000000000000000, 0.000000000000000000, 1.000000000000000000 ) ) ;
#435 = EDGE_LOOP ( 'NONE', ( #194, #275, #378, #263, #507, #260, #438, #121, #132 ) ) ;
#436 = LINE ( 'NONE', #71, #237 ) ;
#437 = EDGE_CURVE ( 'NONE', #248, #214, #70, .T. ) ;
#438 = ORIENTED_EDGE ( 'NONE', *, *, #334, .T. ) ;
#439 = PRODUCT_DEFINITION_SHAPE ( 'NONE', 'NONE',  #239 ) ;
#440 = DIRECTION ( 'NONE',  ( 1.000000000000000000, 0.000000000000000000, 0.000000000000000000 ) ) ;
#441 = VERTEX_POINT ( 'NONE', #406 ) ;
#442 = ORIENTED_EDGE ( 'NONE', *, *, #437, .T. ) ;
#443 = EDGE_LOOP ( 'NONE', ( #472, #36, #69, #11, #311, #118, #318, #165, #50 ) ) ;
#444 = CARTESIAN_POINT ( 'NONE',  ( -11.16987298107780546, 2.499999999999999556, 0.000000000000000000 ) ) ;
#445 = ADVANCED_FACE ( 'NONE', ( #481 ), #91, .T. ) ;
#446 = EDGE_CURVE ( 'NONE', #432, #159, #408, .T. ) ;
#447 = DIRECTION ( 'NONE',  ( 0.000000000000000000, 0.000000000000000000, 1.000000000000000000 ) ) ;
#448 = ORIENTED_EDGE ( 'NONE', *, *, #10, .F. ) ;
#449 = EDGE_CURVE ( 'NONE', #89, #390, #17, .T. ) ;
#450 = AXIS2_PLACEMENT_3D ( 'NONE', #82, #242, #65 ) ;
#451 = ORIENTED_EDGE ( 'NONE', *, *, #108, .T. ) ;
#452 = FACE_OUTER_BOUND ( 'NONE', #443, .T. ) ;
#453 = DIRECTION ( 'NONE',  ( -1.000000000000000000, 0.000000000000000000, 0.000000000000000000 ) ) ;
#454 = DIRECTION ( 'NONE',  ( 0.000000000000000000, -0.000000000000000000, -1.000000000000000000 ) ) ;
#455 = EDGE_CURVE ( 'NONE', #129, #223, #382, .T. ) ;
#456 = CARTESIAN_POINT ( 'NONE',  ( -13.02564170347303119, 3.142857142857141461, 4.000000000000000000 ) ) ;
#457 = DIRECTION ( 'NONE',  ( 1.000000000000000000, 0.000000000000000000, 0.000000000000000000 ) ) ;
#458 = CIRCLE ( 'NONE', #332, 1.500000000000001332 ) ;
#459 = VERTEX_POINT ( 'NONE', #233 ) ;
#460 = LINE ( 'NONE', #20, #100 ) ;
#461 = LINE ( 'NONE', #402, #358 ) ;
#462 = CYLINDRICAL_SURFACE ( 'NONE', #414, 3.999999999999994671 ) ;
#463 = ORIENTED_EDGE ( 'NONE', *, *, #449, .T. ) ;
#464 = ORIENTED_EDGE ( 'NONE', *, *, #10, .T. ) ;
#465 = CYLINDRICAL_SURFACE ( 'NONE', #412, 2.999999999999999112 ) ;
#466 = EDGE_LOOP ( 'NONE', ( #464, #43 ) ) ;
#467 = EDGE_CURVE ( 'NONE', #323, #206, #183, .T. ) ;
#468 = FACE_OUTER_BOUND ( 'NONE', #92, .T. ) ;
#469 = DIRECTION ( 'NONE',  ( -1.000000000000000000, 0.000000000000000000, 0.000000000000000000 ) ) ;
#470 = AXIS2_PLACEMENT_3D ( 'NONE', #344, #261, #54 ) ;
#471 = ORIENTED_EDGE ( 'NONE', *, *, #124, .F. ) ;
#472 = ORIENTED_EDGE ( 'NONE', *, *, #359, .F. ) ;
#473 = ORIENTED_EDGE ( 'NONE', *, *, #415, .F. ) ;
#474 = DIRECTION ( 'NONE',  ( 1.000000000000000000, 0.000000000000000000, 0.000000000000000000 ) ) ;
#475 = ORIENTED_EDGE ( 'NONE', *, *, #166, .T. ) ;
#476 = CARTESIAN_POINT ( 'NONE',  ( 11.16987298107781434, 5.500000000000000000, 4.000000000000000000 ) ) ;
#477 =( GEOMETRIC_REPRESENTATION_CONTEXT ( 3 ) GLOBAL_UNCERTAINTY_ASSIGNED_CONTEXT ( ( #146 ) ) GLOBAL_UNIT_ASSIGNED_CONTEXT ( ( #134, #90, #407 ) ) REPRESENTATION_CONTEXT ( 'NONE', 'WORKASPACE' ) );
#478 = LINE ( 'NONE', #147, #114 ) ;
#479 = ORIENTED_EDGE ( 'NONE', *, *, #39, .F. ) ;
#480 = DIRECTION ( 'NONE',  ( -1.000000000000000000, 0.000000000000000000, 0.000000000000000000 ) ) ;
#481 = FACE_OUTER_BOUND ( 'NONE', #236, .T. ) ;
#482 = ADVANCED_FACE ( 'NONE', ( #500 ), #103, .F. ) ;
#483 = EDGE_LOOP ( 'NONE', ( #131, #328 ) ) ;
#484 = DIRECTION ( 'NONE',  ( 0.000000000000000000, 0.000000000000000000, 1.000000000000000000 ) ) ;
#485 = VECTOR ( 'NONE', #102, 1000.000000000000000 ) ;
#486 = CARTESIAN_POINT ( 'NONE',  ( 15.50000000000000000, 0.000000000000000000, 4.000000000000000000 ) ) ;
#487 =( LENGTH_UNIT ( ) NAMED_UNIT ( * ) SI_UNIT ( .MILLI., .METRE. ) );
#488 = CARTESIAN_POINT ( 'NONE',  ( -13.02564170347303119, 3.142857142857141461, 0.000000000000000000 ) ) ;
#489 = EDGE_CURVE ( 'NONE', #223, #432, #72, .T. ) ;
#490 = AXIS2_PLACEMENT_3D ( 'NONE', #370, #333, #136 ) ;
#491 = FACE_OUTER_BOUND ( 'NONE', #393, .T. ) ;
#492 = EDGE_CURVE ( 'NONE', #209, #73, #34, .T. ) ;
#493 = FACE_OUTER_BOUND ( 'NONE', #352, .T. ) ;
#494 = EDGE_CURVE ( 'NONE', #323, #89, #213, .T. ) ;
#495 = CARTESIAN_POINT ( 'NONE',  ( -15.50000000000000000, 0.000000000000000000, 0.000000000000000000 ) ) ;
#496 = DIRECTION ( 'NONE',  ( -0.000000000000000000, -0.000000000000000000, -1.000000000000000000 ) ) ;
#497 = AXIS2_PLACEMENT_3D ( 'NONE', #170, #7, #480 ) ;
#498 = CARTESIAN_POINT ( 'NONE',  ( -13.99999999999999822, 1.836970198721029441E-16, 0.000000000000000000 ) ) ;
#499 = ORIENTED_EDGE ( 'NONE', *, *, #211, .F. ) ;
#500 = FACE_OUTER_BOUND ( 'NONE', #329, .T. ) ;
#501 = DIRECTION ( 'NONE',  ( 0.000000000000000000, 0.000000000000000000, 1.000000000000000000 ) ) ;
#502 = EDGE_LOOP ( 'NONE', ( #473, #169 ) ) ;
#503 = DIRECTION ( 'NONE',  ( 1.000000000000000000, 0.000000000000000000, -0.000000000000000000 ) ) ;
#504 = ORIENTED_EDGE ( 'NONE', *, *, #268, .F. ) ;
#505 = DIRECTION ( 'NONE',  ( 0.000000000000000000, 0.000000000000000000, 1.000000000000000000 ) ) ;
#506 = CARTESIAN_POINT ( 'NONE',  ( -11.16987298107780546, 2.499999999999999556, 4.000000000000000000 ) ) ;
#507 = ORIENTED_EDGE ( 'NONE', *, *, #455, .T. ) ;
#508 = AXIS2_PLACEMENT_3D ( 'NONE', #304, #149, #301 ) ;
#509 = CARTESIAN_POINT ( 'NONE',  ( 11.16987298107781434, 5.500000000000000000, 0.000000000000000000 ) ) ;
#510 = DIRECTION ( 'NONE',  ( -0.000000000000000000, -0.000000000000000000, -1.000000000000000000 ) ) ;
#511 = VERTEX_POINT ( 'NONE', #88 ) ;
#512 = CARTESIAN_POINT ( 'NONE',  ( -15.50000000000000000, 0.000000000000000000, 4.000000000000000000 ) ) ;
#513 = ORIENTED_EDGE ( 'NONE', *, *, #381, .T. ) ;
#514 = ORIENTED_EDGE ( 'NONE', *, *, #39, .T. ) ;
ENDSEC;
END-ISO-10303-21;
