ISO-10303-21;
HEADER;
FILE_DESCRIPTION (( 'STEP AP214' ),
    '1' );
FILE_NAME ('DS3225_metal_horn_base.STEP',
    '2026-08-13T22:16:17',
    ( '' ),
    ( '' ),
    'SwSTEP 2.0',
    'SolidWorks 2025',
    '' );
FILE_SCHEMA (( 'AUTOMOTIVE_DESIGN' ));
ENDSEC;

DATA;
#1 = ORIENTED_EDGE ( 'NONE', *, *, #458, .F. ) ;
#2 = DIRECTION ( 'NONE',  ( 0.000000000000000000, 0.000000000000000000, 1.000000000000000000 ) ) ;
#3 = EDGE_CURVE ( 'NONE', #412, #350, #538, .T. ) ;
#4 = CIRCLE ( 'NONE', #262, 9.799999999999998934 ) ;
#5 = ORIENTED_EDGE ( 'NONE', *, *, #612, .F. ) ;
#6 = CARTESIAN_POINT ( 'NONE',  ( -1.650000000000000133, 2.020667218593133001E-16, 12.83309524416878133 ) ) ;
#7 = STYLED_ITEM ( 'NONE', ( #461 ), #122 ) ;
#8 = ORIENTED_EDGE ( 'NONE', *, *, #388, .F. ) ;
#9 = FACE_OUTER_BOUND ( 'NONE', #604, .T. ) ;
#10 = ADVANCED_FACE ( 'NONE', ( #665 ), #197, .F. ) ;
#11 = ORIENTED_EDGE ( 'NONE', *, *, #75, .F. ) ;
#12 = CARTESIAN_POINT ( 'NONE',  ( 0.000000000000000000, 0.000000000000000000, 12.83309524416878133 ) ) ;
#13 = DIRECTION ( 'NONE',  ( 1.000000000000000000, 0.000000000000000000, 0.000000000000000000 ) ) ;
#14 = AXIS2_PLACEMENT_3D ( 'NONE', #186, #400, #406 ) ;
#15 = ORIENTED_EDGE ( 'NONE', *, *, #299, .T. ) ;
#16 = CARTESIAN_POINT ( 'NONE',  ( -19.99999999999999645, -2.449293598294706513E-15, 17.49999999999999645 ) ) ;
#17 = PRODUCT ( 'DS3225_metal_horn_base', 'DS3225_metal_horn_base', '', ( #537 ) ) ;
#18 = EDGE_CURVE ( 'NONE', #580, #363, #303, .T. ) ;
#19 = DIRECTION ( 'NONE',  ( 0.000000000000000000, 0.000000000000000000, 1.000000000000000000 ) ) ;
#20 = CARTESIAN_POINT ( 'NONE',  ( -18.49999999999999645, -2.449293598294706513E-15, 17.49999999999999645 ) ) ;
#21 = CARTESIAN_POINT ( 'NONE',  ( -24.00000000000000355, -3.700000000000002398, 17.49999999999999645 ) ) ;
#22 = VECTOR ( 'NONE', #642, 1000.000000000000000 ) ;
#23 = DIRECTION ( 'NONE',  ( 1.000000000000000000, 0.000000000000000000, 0.000000000000000000 ) ) ;
#24 = CARTESIAN_POINT ( 'NONE',  ( -11.13552872566004304, -3.700000000000000178, 17.49999999999999645 ) ) ;
#25 = DIRECTION ( 'NONE',  ( -0.000000000000000000, -0.000000000000000000, -1.000000000000000000 ) ) ;
#26 = EDGE_CURVE ( 'NONE', #514, #238, #31, .T. ) ;
#27 = LINE ( 'NONE', #589, #291 ) ;
#28 = AXIS2_PLACEMENT_3D ( 'NONE', #30, #126, #181 ) ;
#29 = AXIS2_PLACEMENT_3D ( 'NONE', #418, #574, #322 ) ;
#30 = CARTESIAN_POINT ( 'NONE',  ( -9.000000000000000000, -1.102182119232617714E-15, 20.99999999999999645 ) ) ;
#31 = CIRCLE ( 'NONE', #499, 7.699999999999999289 ) ;
#32 = FACE_BOUND ( 'NONE', #422, .T. ) ;
#33 = ORIENTED_EDGE ( 'NONE', *, *, #572, .T. ) ;
#34 = AXIS2_PLACEMENT_3D ( 'NONE', #277, #278, #488 ) ;
#35 = DIRECTION ( 'NONE',  ( -0.000000000000000000, 0.000000000000000000, 1.000000000000000000 ) ) ;
#36 = DIRECTION ( 'NONE',  ( -0.000000000000000000, -0.000000000000000000, 1.000000000000000000 ) ) ;
#37 = ORIENTED_EDGE ( 'NONE', *, *, #276, .F. ) ;
#38 = LINE ( 'NONE', #456, #587 ) ;
#39 = DIRECTION ( 'NONE',  ( 1.000000000000000000, 0.000000000000000000, 0.000000000000000000 ) ) ;
#40 = ORIENTED_EDGE ( 'NONE', *, *, #187, .F. ) ;
#41 = DIRECTION ( 'NONE',  ( -0.000000000000000000, -0.000000000000000000, 1.000000000000000000 ) ) ;
#42 = AXIS2_PLACEMENT_3D ( 'NONE', #123, #167, #494 ) ;
#43 = ORIENTED_EDGE ( 'NONE', *, *, #59, .F. ) ;
#44 = EDGE_LOOP ( 'NONE', ( #531, #454, #255, #198 ) ) ;
#45 = ORIENTED_EDGE ( 'NONE', *, *, #641, .T. ) ;
#46 = DIRECTION ( 'NONE',  ( 1.000000000000000000, 0.000000000000000000, 0.000000000000000000 ) ) ;
#47 = ORIENTED_EDGE ( 'NONE', *, *, #612, .T. ) ;
#48 = DIRECTION ( 'NONE',  ( -1.000000000000000000, 0.000000000000000000, 0.000000000000000000 ) ) ;
#49 = EDGE_LOOP ( 'NONE', ( #465, #603, #15, #510 ) ) ;
#50 = CYLINDRICAL_SURFACE ( 'NONE', #70, 1.650000000000000355 ) ;
#51 = VECTOR ( 'NONE', #314, 1000.000000000000000 ) ;
#52 = ORIENTED_EDGE ( 'NONE', *, *, #293, .F. ) ;
#53 = FACE_OUTER_BOUND ( 'NONE', #259, .T. ) ;
#54 = EDGE_CURVE ( 'NONE', #355, #374, #413, .T. ) ;
#55 = LINE ( 'NONE', #258, #621 ) ;
#56 = DIRECTION ( 'NONE',  ( -0.000000000000000000, -0.000000000000000000, -1.000000000000000000 ) ) ;
#57 = CARTESIAN_POINT ( 'NONE',  ( -21.50000000000000000, -2.265596578422603396E-15, 17.49999999999999645 ) ) ;
#58 = ORIENTED_EDGE ( 'NONE', *, *, #641, .F. ) ;
#59 = EDGE_CURVE ( 'NONE', #527, #235, #94, .T. ) ;
#60 = VERTEX_POINT ( 'NONE', #606 ) ;
#61 = CARTESIAN_POINT ( 'NONE',  ( -11.13552872566004304, 13.50000000000000000, 11.00000000000000000 ) ) ;
#62 = VECTOR ( 'NONE', #582, 1000.000000000000000 ) ;
#63 = EDGE_CURVE ( 'NONE', #271, #633, #486, .T. ) ;
#64 = DIRECTION ( 'NONE',  ( 1.000000000000000000, 0.000000000000000000, 0.000000000000000000 ) ) ;
#65 = AXIS2_PLACEMENT_3D ( 'NONE', #250, #272, #466 ) ;
#66 = ORIENTED_EDGE ( 'NONE', *, *, #581, .T. ) ;
#67 = ADVANCED_FACE ( 'NONE', ( #189 ), #50, .F. ) ;
#68 = DIRECTION ( 'NONE',  ( -0.000000000000000000, -0.000000000000000000, 1.000000000000000000 ) ) ;
#69 = CARTESIAN_POINT ( 'NONE',  ( -11.13552872566003948, -13.50000000000000178, 11.00000000000000000 ) ) ;
#70 = AXIS2_PLACEMENT_3D ( 'NONE', #618, #41, #46 ) ;
#71 = APPLICATION_PROTOCOL_DEFINITION ( 'draft international standard', 'automotive_design', 1998, #108 ) ;
#72 = FACE_OUTER_BOUND ( 'NONE', #245, .T. ) ;
#73 = DIRECTION ( 'NONE',  ( 0.000000000000000000, -0.000000000000000000, -1.000000000000000000 ) ) ;
#74 = CARTESIAN_POINT ( 'NONE',  ( 11.00000000000000178, 1.347111479062088602E-15, 20.99999999999999645 ) ) ;
#75 = EDGE_CURVE ( 'NONE', #190, #109, #649, .T. ) ;
#76 = CARTESIAN_POINT ( 'NONE',  ( -9.000000000000000000, -1.102182119232617714E-15, 20.99999999999999645 ) ) ;
#77 = CARTESIAN_POINT ( 'NONE',  ( -11.13552872566004126, 3.699999999999997513, 17.49999999999999645 ) ) ;
#78 =( NAMED_UNIT ( * ) PLANE_ANGLE_UNIT ( ) SI_UNIT ( $, .RADIAN. ) );
#79 = DIRECTION ( 'NONE',  ( 1.000000000000000000, 6.742303818723442187E-17, 0.000000000000000000 ) ) ;
#80 = EDGE_CURVE ( 'NONE', #363, #580, #147, .T. ) ;
#81 = VECTOR ( 'NONE', #68, 1000.000000000000000 ) ;
#82 = CIRCLE ( 'NONE', #29, 7.699999999999999289 ) ;
#83 = CARTESIAN_POINT ( 'NONE',  ( 0.000000000000000000, 0.000000000000000000, 20.99999999999999645 ) ) ;
#84 = ORIENTED_EDGE ( 'NONE', *, *, #121, .F. ) ;
#85 = CYLINDRICAL_SURFACE ( 'NONE', #269, 7.699999999999999289 ) ;
#86 = ORIENTED_EDGE ( 'NONE', *, *, #659, .T. ) ;
#87 = ADVANCED_FACE ( 'NONE', ( #352 ), #134, .T. ) ;
#88 = AXIS2_PLACEMENT_3D ( 'NONE', #83, #35, #399 ) ;
#89 = FACE_BOUND ( 'NONE', #266, .T. ) ;
#90 = DIRECTION ( 'NONE',  ( 0.000000000000000000, -0.000000000000000000, -1.000000000000000000 ) ) ;
#91 = ORIENTED_EDGE ( 'NONE', *, *, #477, .F. ) ;
#92 = CIRCLE ( 'NONE', #28, 1.650000000000000355 ) ;
#93 = ORIENTED_EDGE ( 'NONE', *, *, #293, .T. ) ;
#94 = LINE ( 'NONE', #144, #357 ) ;
#95 = VERTEX_POINT ( 'NONE', #348 ) ;
#96 = CLOSED_SHELL ( 'NONE', ( #10, #67, #377, #111, #326, #172, #492, #545, #150, #239, #565, #638, #87, #421, #211, #451, #333, #526, #336, #555 ) ) ;
#97 = DIRECTION ( 'NONE',  ( -1.000000000000000000, 0.000000000000000000, 0.000000000000000000 ) ) ;
#98 = VERTEX_POINT ( 'NONE', #558 ) ;
#99 = UNCERTAINTY_MEASURE_WITH_UNIT (LENGTH_MEASURE( 1.000000000000000082E-05 ), #542, 'distance_accuracy_value', 'NONE');
#100 = DIRECTION ( 'NONE',  ( 1.000000000000000000, 0.000000000000000000, 0.000000000000000000 ) ) ;
#101 = EDGE_LOOP ( 'NONE', ( #52, #184, #506, #58 ) ) ;
#102 = DIRECTION ( 'NONE',  ( 1.000000000000000000, 0.000000000000000000, 0.000000000000000000 ) ) ;
#103 = EDGE_LOOP ( 'NONE', ( #91, #626, #610, #313 ) ) ;
#104 =( NAMED_UNIT ( * ) SI_UNIT ( $, .STERADIAN. ) SOLID_ANGLE_UNIT ( ) );
#105 = ORIENTED_EDGE ( 'NONE', *, *, #489, .F. ) ;
#106 = CARTESIAN_POINT ( 'NONE',  ( 6.236631032319182575E-16, -3.699999999999998401, 11.00000000000000000 ) ) ;
#107 = CARTESIAN_POINT ( 'NONE',  ( -9.000000000000000000, -1.102182119232617714E-15, 20.99999999999999645 ) ) ;
#108 = APPLICATION_CONTEXT ( 'automotive_design' ) ;
#109 = VERTEX_POINT ( 'NONE', #658 ) ;
#110 = DIRECTION ( 'NONE',  ( 1.000000000000000000, 0.000000000000000000, 0.000000000000000000 ) ) ;
#111 = ADVANCED_FACE ( 'NONE', ( #234 ), #519, .F. ) ;
#112 = LINE ( 'NONE', #473, #62 ) ;
#113 = ORIENTED_EDGE ( 'NONE', *, *, #372, .F. ) ;
#114 = LINE ( 'NONE', #57, #324 ) ;
#115 = AXIS2_PLACEMENT_3D ( 'NONE', #411, #609, #504 ) ;
#116 = FACE_OUTER_BOUND ( 'NONE', #101, .T. ) ;
#117 = DIRECTION ( 'NONE',  ( 0.000000000000000000, -0.000000000000000000, -1.000000000000000000 ) ) ;
#118 = DIRECTION ( 'NONE',  ( -0.000000000000000000, -0.000000000000000000, -1.000000000000000000 ) ) ;
#119 = CARTESIAN_POINT ( 'NONE',  ( -9.000000000000000000, -1.102182119232617714E-15, 12.83309524416878133 ) ) ;
#120 = CIRCLE ( 'NONE', #480, 3.699999999999998401 ) ;
#121 = EDGE_CURVE ( 'NONE', #374, #355, #284, .T. ) ;
#122 = MANIFOLD_SOLID_BREP ( 'Stock-DS3225_MG_metal_horn-1', #96 ) ;
#123 = CARTESIAN_POINT ( 'NONE',  ( -11.13552872566004304, 13.50000000000000000, 17.49999999999999645 ) ) ;
#124 = LINE ( 'NONE', #20, #203 ) ;
#125 = CARTESIAN_POINT ( 'NONE',  ( -19.99999999999999645, -2.449293598294706513E-15, 20.99999999999999645 ) ) ;
#126 = DIRECTION ( 'NONE',  ( 0.000000000000000000, 0.000000000000000000, 1.000000000000000000 ) ) ;
#127 = EDGE_CURVE ( 'NONE', #512, #95, #405, .T. ) ;
#128 = LINE ( 'NONE', #549, #141 ) ;
#129 = AXIS2_PLACEMENT_3D ( 'NONE', #219, #393, #433 ) ;
#130 = DIRECTION ( 'NONE',  ( -0.000000000000000000, -0.000000000000000000, -1.000000000000000000 ) ) ;
#131 = CARTESIAN_POINT ( 'NONE',  ( -24.00000000000000355, -2.939152317953648683E-15, 17.49999999999999645 ) ) ;
#132 = ORIENTED_EDGE ( 'NONE', *, *, #26, .F. ) ;
#133 = DIRECTION ( 'NONE',  ( 1.000000000000000000, 0.000000000000000000, 0.000000000000000000 ) ) ;
#134 = CYLINDRICAL_SURFACE ( 'NONE', #495, 19.99999999999999645 ) ;
#135 = ORIENTED_EDGE ( 'NONE', *, *, #178, .T. ) ;
#136 = EDGE_CURVE ( 'NONE', #424, #98, #645, .T. ) ;
#137 = ORIENTED_EDGE ( 'NONE', *, *, #395, .T. ) ;
#138 = AXIS2_PLACEMENT_3D ( 'NONE', #312, #319, #622 ) ;
#139 = DIRECTION ( 'NONE',  ( 0.000000000000000000, 0.000000000000000000, 1.000000000000000000 ) ) ;
#140 = VERTEX_POINT ( 'NONE', #415 ) ;
#141 = VECTOR ( 'NONE', #288, 1000.000000000000000 ) ;
#142 = ORIENTED_EDGE ( 'NONE', *, *, #18, .F. ) ;
#143 = CIRCLE ( 'NONE', #129, 3.699999999999998401 ) ;
#144 = CARTESIAN_POINT ( 'NONE',  ( -24.00000000000000355, 3.699999999999996625, 20.99999999999999645 ) ) ;
#145 = ORIENTED_EDGE ( 'NONE', *, *, #547, .T. ) ;
#146 = ORIENTED_EDGE ( 'NONE', *, *, #264, .T. ) ;
#147 = CIRCLE ( 'NONE', #115, 1.500000000000001332 ) ;
#148 = CARTESIAN_POINT ( 'NONE',  ( -9.000000000000000000, -1.102182119232617714E-15, 20.99999999999999645 ) ) ;
#149 = AXIS2_PLACEMENT_3D ( 'NONE', #670, #155, #64 ) ;
#150 = ADVANCED_FACE ( 'NONE', ( #478 ), #425, .F. ) ;
#151 = ORIENTED_EDGE ( 'NONE', *, *, #301, .T. ) ;
#152 = DIRECTION ( 'NONE',  ( 0.000000000000000000, 0.000000000000000000, 1.000000000000000000 ) ) ;
#153 = ORIENTED_EDGE ( 'NONE', *, *, #121, .T. ) ;
#154 = AXIS2_PLACEMENT_3D ( 'NONE', #179, #117, #436 ) ;
#155 = DIRECTION ( 'NONE',  ( 0.000000000000000000, -0.000000000000000000, -1.000000000000000000 ) ) ;
#156 = ORIENTED_EDGE ( 'NONE', *, *, #607, .T. ) ;
#157 = CARTESIAN_POINT ( 'NONE',  ( -10.65000000000000036, -9.001153973733043645E-16, 20.99999999999999645 ) ) ;
#158 = FACE_BOUND ( 'NONE', #656, .T. ) ;
#159 = EDGE_CURVE ( 'NONE', #472, #514, #112, .T. ) ;
#160 = CARTESIAN_POINT ( 'NONE',  ( -9.000000000000000000, -1.102182119232617714E-15, 17.49999999999999645 ) ) ;
#161 = DIRECTION ( 'NONE',  ( -0.000000000000000000, 0.000000000000000000, 1.000000000000000000 ) ) ;
#162 = CARTESIAN_POINT ( 'NONE',  ( 0.000000000000000000, 0.000000000000000000, 11.00000000000000000 ) ) ;
#163 = ORIENTED_EDGE ( 'NONE', *, *, #59, .T. ) ;
#164 = DIRECTION ( 'NONE',  ( -0.000000000000000000, 0.000000000000000000, 1.000000000000000000 ) ) ;
#165 = CARTESIAN_POINT ( 'NONE',  ( -24.00000000000000355, 3.699999999999996625, 11.00000000000000000 ) ) ;
#166 = DIRECTION ( 'NONE',  ( -6.742303818723442187E-17, 1.000000000000000000, 0.000000000000000000 ) ) ;
#167 = DIRECTION ( 'NONE',  ( -0.000000000000000000, 0.000000000000000000, 1.000000000000000000 ) ) ;
#168 = AXIS2_PLACEMENT_3D ( 'NONE', #375, #166, #367 ) ;
#169 = CARTESIAN_POINT ( 'NONE',  ( -24.00000000000000355, -3.700000000000002398, 20.99999999999999645 ) ) ;
#170 = CARTESIAN_POINT ( 'NONE',  ( -11.13552872566004126, 3.699999999999997513, 11.00000000000000000 ) ) ;
#171 = CIRCLE ( 'NONE', #230, 1.500000000000001332 ) ;
#172 = ADVANCED_FACE ( 'NONE', ( #9 ), #576, .F. ) ;
#173 = CARTESIAN_POINT ( 'NONE',  ( 0.000000000000000000, 0.000000000000000000, 0.000000000000000000 ) ) ;
#174 = DIRECTION ( 'NONE',  ( -0.000000000000000000, 0.000000000000000000, 1.000000000000000000 ) ) ;
#175 = AXIS2_PLACEMENT_3D ( 'NONE', #61, #164, #267 ) ;
#176 = PRODUCT_RELATED_PRODUCT_CATEGORY ( 'part', '', ( #17 ) ) ;
#177 = DIRECTION ( 'NONE',  ( 1.000000000000000000, 0.000000000000000000, 0.000000000000000000 ) ) ;
#178 = EDGE_CURVE ( 'NONE', #527, #271, #441, .T. ) ;
#179 = CARTESIAN_POINT ( 'NONE',  ( 0.000000000000000000, 0.000000000000000000, 17.49999999999999645 ) ) ;
#180 = DIRECTION ( 'NONE',  ( -1.000000000000000000, 0.000000000000000000, 0.000000000000000000 ) ) ;
#181 = DIRECTION ( 'NONE',  ( 1.000000000000000000, 0.000000000000000000, 0.000000000000000000 ) ) ;
#182 = CARTESIAN_POINT ( 'NONE',  ( -24.00000000000000355, -2.939152317953648683E-15, 11.00000000000000000 ) ) ;
#183 = SURFACE_SIDE_STYLE ('',( #244 ) ) ;
#184 = ORIENTED_EDGE ( 'NONE', *, *, #63, .T. ) ;
#185 = CARTESIAN_POINT ( 'NONE',  ( -2.494652412927672635E-16, 3.699999999999998401, 17.49999999999999645 ) ) ;
#186 = CARTESIAN_POINT ( 'NONE',  ( -23.99999999999999645, -2.939152317953647894E-15, 17.49999999999999645 ) ) ;
#187 = EDGE_CURVE ( 'NONE', #235, #304, #55, .T. ) ;
#188 = ORIENTED_EDGE ( 'NONE', *, *, #507, .F. ) ;
#189 = FACE_OUTER_BOUND ( 'NONE', #419, .T. ) ;
#190 = VERTEX_POINT ( 'NONE', #209 ) ;
#191 = AXIS2_PLACEMENT_3D ( 'NONE', #567, #139, #241 ) ;
#192 = CARTESIAN_POINT ( 'NONE',  ( -23.99999999999999645, -2.939152317953647894E-15, 20.99999999999999645 ) ) ;
#193 = ORIENTED_EDGE ( 'NONE', *, *, #401, .F. ) ;
#194 = VECTOR ( 'NONE', #651, 1000.000000000000000 ) ;
#195 = EDGE_CURVE ( 'NONE', #374, #363, #632, .T. ) ;
#196 = VECTOR ( 'NONE', #438, 1000.000000000000000 ) ;
#197 = CYLINDRICAL_SURFACE ( 'NONE', #598, 1.650000000000000133 ) ;
#198 = ORIENTED_EDGE ( 'NONE', *, *, #602, .T. ) ;
#199 = LINE ( 'NONE', #256, #353 ) ;
#200 = DIRECTION ( 'NONE',  ( 1.000000000000000000, 6.742303818723442187E-17, 0.000000000000000000 ) ) ;
#201 = ORIENTED_EDGE ( 'NONE', *, *, #366, .F. ) ;
#202 = FACE_BOUND ( 'NONE', #516, .T. ) ;
#203 = VECTOR ( 'NONE', #325, 1000.000000000000000 ) ;
#204 = EDGE_CURVE ( 'NONE', #350, #412, #513, .T. ) ;
#205 = DIRECTION ( 'NONE',  ( -0.000000000000000000, 0.000000000000000000, 1.000000000000000000 ) ) ;
#206 = VERTEX_POINT ( 'NONE', #270 ) ;
#207 = DIRECTION ( 'NONE',  ( -1.000000000000000000, 0.000000000000000000, 0.000000000000000000 ) ) ;
#208 = ORIENTED_EDGE ( 'NONE', *, *, #159, .T. ) ;
#209 = CARTESIAN_POINT ( 'NONE',  ( -1.650000000000000133, 2.020667218593133001E-16, 17.49999999999999645 ) ) ;
#210 = ORIENTED_EDGE ( 'NONE', *, *, #264, .F. ) ;
#211 = ADVANCED_FACE ( 'NONE', ( #571, #158 ), #483, .F. ) ;
#212 = DIRECTION ( 'NONE',  ( -0.000000000000000000, -0.000000000000000000, 1.000000000000000000 ) ) ;
#213 = AXIS2_PLACEMENT_3D ( 'NONE', #160, #577, #306 ) ;
#214 = LINE ( 'NONE', #430, #339 ) ;
#215 = ORIENTED_EDGE ( 'NONE', *, *, #437, .F. ) ;
#216 = CARTESIAN_POINT ( 'NONE',  ( -11.13552872566003948, -13.50000000000000178, 20.99999999999999645 ) ) ;
#217 = CARTESIAN_POINT ( 'NONE',  ( -7.349999999999998757, -1.102182119232617714E-15, 17.49999999999999645 ) ) ;
#218 = DIRECTION ( 'NONE',  ( -0.000000000000000000, -0.000000000000000000, 1.000000000000000000 ) ) ;
#219 = CARTESIAN_POINT ( 'NONE',  ( -24.00000000000000355, -2.939152317953648683E-15, 11.00000000000000000 ) ) ;
#220 = CARTESIAN_POINT ( 'NONE',  ( -24.00000000000000355, -2.939152317953648683E-15, 20.99999999999999645 ) ) ;
#221 = CARTESIAN_POINT ( 'NONE',  ( 1.650000000000000133, 0.000000000000000000, 12.83309524416878133 ) ) ;
#222 = CYLINDRICAL_SURFACE ( 'NONE', #34, 1.500000000000001332 ) ;
#223 = DIRECTION ( 'NONE',  ( -0.000000000000000000, -0.000000000000000000, -1.000000000000000000 ) ) ;
#224 = AXIS2_PLACEMENT_3D ( 'NONE', #263, #523, #323 ) ;
#225 = CARTESIAN_POINT ( 'NONE',  ( -19.99999999999999645, -2.449293598294706513E-15, 20.99999999999999645 ) ) ;
#226 = AXIS2_PLACEMENT_3D ( 'NONE', #600, #343, #340 ) ;
#227 = DIRECTION ( 'NONE',  ( 0.000000000000000000, 0.000000000000000000, 1.000000000000000000 ) ) ;
#228 = DIRECTION ( 'NONE',  ( 0.000000000000000000, 0.000000000000000000, 1.000000000000000000 ) ) ;
#229 = CARTESIAN_POINT ( 'NONE',  ( -28.99999999999999645, -1.102182119232617714E-15, 20.99999999999999645 ) ) ;
#230 = AXIS2_PLACEMENT_3D ( 'NONE', #382, #490, #432 ) ;
#231 = ORIENTED_EDGE ( 'NONE', *, *, #659, .F. ) ;
#232 = EDGE_CURVE ( 'NONE', #657, #633, #214, .T. ) ;
#233 = CARTESIAN_POINT ( 'NONE',  ( -7.349999999999998757, -1.102182119232617714E-15, 12.83309524416878133 ) ) ;
#234 = FACE_OUTER_BOUND ( 'NONE', #398, .T. ) ;
#235 = VERTEX_POINT ( 'NONE', #165 ) ;
#236 = APPLICATION_CONTEXT ( 'automotive_design' ) ;
#237 = ORIENTED_EDGE ( 'NONE', *, *, #444, .F. ) ;
#238 = VERTEX_POINT ( 'NONE', #636 ) ;
#239 = ADVANCED_FACE ( 'NONE', ( #116 ), #647, .F. ) ;
#240 = CARTESIAN_POINT ( 'NONE',  ( -10.65000000000000036, -9.001153973733043645E-16, 17.49999999999999645 ) ) ;
#241 = DIRECTION ( 'NONE',  ( 1.000000000000000000, 0.000000000000000000, 0.000000000000000000 ) ) ;
#242 = EDGE_LOOP ( 'NONE', ( #468, #356, #33, #611 ) ) ;
#243 = ORIENTED_EDGE ( 'NONE', *, *, #54, .T. ) ;
#244 = SURFACE_STYLE_FILL_AREA ( #652 ) ;
#245 = EDGE_LOOP ( 'NONE', ( #249, #66, #231, #292 ) ) ;
#246 = EDGE_CURVE ( 'NONE', #307, #206, #330, .T. ) ;
#247 = ORIENTED_EDGE ( 'NONE', *, *, #246, .F. ) ;
#248 = CARTESIAN_POINT ( 'NONE',  ( -23.99999999999999645, -2.939152317953647894E-15, 17.49999999999999645 ) ) ;
#249 = ORIENTED_EDGE ( 'NONE', *, *, #366, .T. ) ;
#250 = CARTESIAN_POINT ( 'NONE',  ( 0.000000000000000000, 0.000000000000000000, 20.99999999999999645 ) ) ;
#251 = ORIENTED_EDGE ( 'NONE', *, *, #54, .F. ) ;
#252 =( GEOMETRIC_REPRESENTATION_CONTEXT ( 3 ) GLOBAL_UNCERTAINTY_ASSIGNED_CONTEXT ( ( #99 ) ) GLOBAL_UNIT_ASSIGNED_CONTEXT ( ( #542, #78, #279 ) ) REPRESENTATION_CONTEXT ( 'NONE', 'WORKASPACE' ) );
#253 = PRODUCT_DEFINITION_CONTEXT ( 'detailed design', #108, 'design' ) ;
#254 = CARTESIAN_POINT ( 'NONE',  ( -9.000000000000000000, -1.102182119232617714E-15, 20.99999999999999645 ) ) ;
#255 = ORIENTED_EDGE ( 'NONE', *, *, #489, .T. ) ;
#256 = CARTESIAN_POINT ( 'NONE',  ( -4.899632639290422809, 5.939999999999994174, 20.99999999999999645 ) ) ;
#257 = EDGE_LOOP ( 'NONE', ( #237, #616 ) ) ;
#258 = CARTESIAN_POINT ( 'NONE',  ( -2.494652412927672635E-16, 3.699999999999998401, 11.00000000000000000 ) ) ;
#259 = EDGE_LOOP ( 'NONE', ( #47, #261, #427, #455, #137, #362, #554 ) ) ;
#260 = CARTESIAN_POINT ( 'NONE',  ( -11.13552872566003948, -13.50000000000000178, 17.49999999999999645 ) ) ;
#261 = ORIENTED_EDGE ( 'NONE', *, *, #232, .T. ) ;
#262 = AXIS2_PLACEMENT_3D ( 'NONE', #69, #174, #23 ) ;
#263 = CARTESIAN_POINT ( 'NONE',  ( 6.236631032319182575E-16, -3.699999999999998401, 20.99999999999999645 ) ) ;
#264 = EDGE_CURVE ( 'NONE', #307, #304, #392, .T. ) ;
#265 = AXIS2_PLACEMENT_3D ( 'NONE', #254, #364, #373 ) ;
#266 = EDGE_LOOP ( 'NONE', ( #86, #349 ) ) ;
#267 = DIRECTION ( 'NONE',  ( 1.000000000000000000, 0.000000000000000000, 0.000000000000000000 ) ) ;
#268 = ORIENTED_EDGE ( 'NONE', *, *, #458, .T. ) ;
#269 = AXIS2_PLACEMENT_3D ( 'NONE', #605, #56, #48 ) ;
#270 = CARTESIAN_POINT ( 'NONE',  ( -4.899632639290422809, 5.939999999999994174, 17.49999999999999645 ) ) ;
#271 = VERTEX_POINT ( 'NONE', #590 ) ;
#272 = DIRECTION ( 'NONE',  ( 0.000000000000000000, 0.000000000000000000, 1.000000000000000000 ) ) ;
#273 = AXIS2_PLACEMENT_3D ( 'NONE', #131, #509, #39 ) ;
#274 = DIRECTION ( 'NONE',  ( -0.000000000000000000, -0.000000000000000000, -1.000000000000000000 ) ) ;
#275 = SHAPE_DEFINITION_REPRESENTATION ( #586, #383 ) ;
#276 = EDGE_CURVE ( 'NONE', #109, #190, #556, .T. ) ;
#277 = CARTESIAN_POINT ( 'NONE',  ( -19.99999999999999645, -2.449293598294706513E-15, 17.49999999999999645 ) ) ;
#278 = DIRECTION ( 'NONE',  ( 0.000000000000000000, 0.000000000000000000, 1.000000000000000000 ) ) ;
#279 =( NAMED_UNIT ( * ) SI_UNIT ( $, .STERADIAN. ) SOLID_ANGLE_UNIT ( ) );
#280 = PRODUCT_DEFINITION ( 'UNKNOWN', '', #579, #253 ) ;
#281 = DIRECTION ( 'NONE',  ( 1.000000000000000000, 0.000000000000000000, 0.000000000000000000 ) ) ;
#282 = CARTESIAN_POINT ( 'NONE',  ( -21.50000000000000000, -2.265596578422603396E-15, 17.49999999999999645 ) ) ;
#283 = CARTESIAN_POINT ( 'NONE',  ( -11.13552872566004304, 13.50000000000000000, 20.99999999999999645 ) ) ;
#284 = CIRCLE ( 'NONE', #593, 1.500000000000001332 ) ;
#285 = FACE_OUTER_BOUND ( 'NONE', #479, .T. ) ;
#286 = CIRCLE ( 'NONE', #226, 20.00000000000000000 ) ;
#287 = AXIS2_PLACEMENT_3D ( 'NONE', #423, #620, #110 ) ;
#288 = DIRECTION ( 'NONE',  ( -0.000000000000000000, -0.000000000000000000, 1.000000000000000000 ) ) ;
#289 = EDGE_LOOP ( 'NONE', ( #5, #208, #151, #193 ) ) ;
#290 = CARTESIAN_POINT ( 'NONE',  ( -24.00000000000000355, -3.700000000000002398, 11.00000000000000000 ) ) ;
#291 = VECTOR ( 'NONE', #274, 1000.000000000000000 ) ;
#292 = ORIENTED_EDGE ( 'NONE', *, *, #299, .F. ) ;
#293 = EDGE_CURVE ( 'NONE', #271, #474, #27, .T. ) ;
#294 = EDGE_LOOP ( 'NONE', ( #667, #1 ) ) ;
#295 = COLOUR_RGB ( '',0.7921568627450980005, 0.8196078431372548767, 0.9333333333333333481 ) ;
#296 = LINE ( 'NONE', #233, #194 ) ;
#297 = CARTESIAN_POINT ( 'NONE',  ( 0.000000000000000000, 0.000000000000000000, 12.83309524416878133 ) ) ;
#298 = ORIENTED_EDGE ( 'NONE', *, *, #127, .T. ) ;
#299 = EDGE_CURVE ( 'NONE', #563, #459, #124, .T. ) ;
#300 = DIRECTION ( 'NONE',  ( 1.000000000000000000, 0.000000000000000000, 0.000000000000000000 ) ) ;
#301 = EDGE_CURVE ( 'NONE', #514, #671, #4, .T. ) ;
#302 = EDGE_LOOP ( 'NONE', ( #402, #163, #570, #210 ) ) ;
#303 = CIRCLE ( 'NONE', #328, 1.500000000000001332 ) ;
#304 = VERTEX_POINT ( 'NONE', #170 ) ;
#305 = AXIS2_PLACEMENT_3D ( 'NONE', #162, #205, #13 ) ;
#306 = DIRECTION ( 'NONE',  ( 1.000000000000000000, 0.000000000000000000, 0.000000000000000000 ) ) ;
#307 = VERTEX_POINT ( 'NONE', #77 ) ;
#308 = LINE ( 'NONE', #106, #51 ) ;
#309 = FILL_AREA_STYLE_COLOUR ( '', #295 ) ;
#310 = ORIENTED_EDGE ( 'NONE', *, *, #18, .T. ) ;
#311 = PLANE ( 'NONE',  #442 ) ;
#312 = CARTESIAN_POINT ( 'NONE',  ( -24.00000000000000355, -2.939152317953648683E-15, 20.99999999999999645 ) ) ;
#313 = ORIENTED_EDGE ( 'NONE', *, *, #444, .T. ) ;
#314 = DIRECTION ( 'NONE',  ( -1.000000000000000000, -1.685575954680860855E-16, 0.000000000000000000 ) ) ;
#315 = ORIENTED_EDGE ( 'NONE', *, *, #232, .F. ) ;
#316 = EDGE_CURVE ( 'NONE', #140, #459, #644, .T. ) ;
#317 = ORIENTED_EDGE ( 'NONE', *, *, #401, .T. ) ;
#318 = CARTESIAN_POINT ( 'NONE',  ( -28.99999999999999645, -1.102182119232617714E-15, 11.00000000000000000 ) ) ;
#319 = DIRECTION ( 'NONE',  ( -0.000000000000000000, -0.000000000000000000, -1.000000000000000000 ) ) ;
#320 = MECHANICAL_DESIGN_GEOMETRIC_PRESENTATION_REPRESENTATION (  '', ( #7 ), #560 ) ;
#321 = ORIENTED_EDGE ( 'NONE', *, *, #595, .T. ) ;
#322 = DIRECTION ( 'NONE',  ( 1.000000000000000000, 0.000000000000000000, 0.000000000000000000 ) ) ;
#323 = DIRECTION ( 'NONE',  ( 1.000000000000000000, 1.685575954680860855E-16, 0.000000000000000000 ) ) ;
#324 = VECTOR ( 'NONE', #152, 1000.000000000000000 ) ;
#325 = DIRECTION ( 'NONE',  ( 0.000000000000000000, 0.000000000000000000, 1.000000000000000000 ) ) ;
#326 = ADVANCED_FACE ( 'NONE', ( #386 ), #329, .T. ) ;
#327 = APPLICATION_PROTOCOL_DEFINITION ( 'draft international standard', 'automotive_design', 1998, #236 ) ;
#328 = AXIS2_PLACEMENT_3D ( 'NONE', #192, #90, #515 ) ;
#329 = CYLINDRICAL_SURFACE ( 'NONE', #540, 19.99999999999999645 ) ;
#330 = CIRCLE ( 'NONE', #42, 9.800000000000000711 ) ;
#331 = VECTOR ( 'NONE', #508, 1000.000000000000000 ) ;
#332 = DIRECTION ( 'NONE',  ( 1.000000000000000000, 0.000000000000000000, 0.000000000000000000 ) ) ;
#333 = ADVANCED_FACE ( 'NONE', ( #541 ), #337, .F. ) ;
#334 = FACE_OUTER_BOUND ( 'NONE', #520, .T. ) ;
#335 = CYLINDRICAL_SURFACE ( 'NONE', #592, 1.650000000000000355 ) ;
#336 = ADVANCED_FACE ( 'NONE', ( #594 ), #335, .F. ) ;
#337 = CYLINDRICAL_SURFACE ( 'NONE', #385, 1.500000000000001332 ) ;
#338 = LINE ( 'NONE', #221, #196 ) ;
#339 = VECTOR ( 'NONE', #369, 1000.000000000000000 ) ;
#340 = DIRECTION ( 'NONE',  ( 1.000000000000000000, 0.000000000000000000, 0.000000000000000000 ) ) ;
#341 = FACE_BOUND ( 'NONE', #257, .T. ) ;
#342 = AXIS2_PLACEMENT_3D ( 'NONE', #12, #212, #634 ) ;
#343 = DIRECTION ( 'NONE',  ( -0.000000000000000000, 0.000000000000000000, 1.000000000000000000 ) ) ;
#344 = DIRECTION ( 'NONE',  ( 1.000000000000000000, 0.000000000000000000, 0.000000000000000000 ) ) ;
#345 = VERTEX_POINT ( 'NONE', #282 ) ;
#346 = ORIENTED_EDGE ( 'NONE', *, *, #518, .T. ) ;
#347 = FACE_BOUND ( 'NONE', #617, .T. ) ;
#348 = CARTESIAN_POINT ( 'NONE',  ( -7.349999999999998757, -1.102182119232617714E-15, 20.99999999999999645 ) ) ;
#349 = ORIENTED_EDGE ( 'NONE', *, *, #316, .T. ) ;
#350 = VERTEX_POINT ( 'NONE', #217 ) ;
#351 = AXIS2_PLACEMENT_3D ( 'NONE', #107, #376, #528 ) ;
#352 = FACE_OUTER_BOUND ( 'NONE', #44, .T. ) ;
#353 = VECTOR ( 'NONE', #588, 1000.000000000000000 ) ;
#354 = EDGE_LOOP ( 'NONE', ( #315, #317, #156, #8 ) ) ;
#355 = VERTEX_POINT ( 'NONE', #596 ) ;
#356 = ORIENTED_EDGE ( 'NONE', *, *, #507, .T. ) ;
#357 = VECTOR ( 'NONE', #511, 1000.000000000000000 ) ;
#358 = AXIS2_PLACEMENT_3D ( 'NONE', #469, #585, #420 ) ;
#359 = DIRECTION ( 'NONE',  ( -0.000000000000000000, -0.000000000000000000, -1.000000000000000000 ) ) ;
#360 = ORIENTED_EDGE ( 'NONE', *, *, #372, .T. ) ;
#361 = DIRECTION ( 'NONE',  ( 1.000000000000000000, 0.000000000000000000, 0.000000000000000000 ) ) ;
#362 = ORIENTED_EDGE ( 'NONE', *, *, #246, .T. ) ;
#363 = VERTEX_POINT ( 'NONE', #546 ) ;
#364 = DIRECTION ( 'NONE',  ( 0.000000000000000000, 0.000000000000000000, 1.000000000000000000 ) ) ;
#365 = ORIENTED_EDGE ( 'NONE', *, *, #661, .T. ) ;
#366 = EDGE_CURVE ( 'NONE', #563, #345, #171, .T. ) ;
#367 = DIRECTION ( 'NONE',  ( -1.000000000000000000, -6.742303818723442187E-17, 0.000000000000000000 ) ) ;
#368 = ORIENTED_EDGE ( 'NONE', *, *, #3, .F. ) ;
#369 = DIRECTION ( 'NONE',  ( -1.000000000000000000, -1.685575954680860855E-16, 0.000000000000000000 ) ) ;
#370 = VERTEX_POINT ( 'NONE', #544 ) ;
#371 = CARTESIAN_POINT ( 'NONE',  ( 0.000000000000000000, 0.000000000000000000, 17.49999999999999645 ) ) ;
#372 = EDGE_CURVE ( 'NONE', #98, #424, #502, .T. ) ;
#373 = DIRECTION ( 'NONE',  ( 1.000000000000000000, 0.000000000000000000, 0.000000000000000000 ) ) ;
#374 = VERTEX_POINT ( 'NONE', #493 ) ;
#375 = CARTESIAN_POINT ( 'NONE',  ( -2.494652412927672635E-16, 3.699999999999998401, 20.99999999999999645 ) ) ;
#376 = DIRECTION ( 'NONE',  ( -0.000000000000000000, 0.000000000000000000, 1.000000000000000000 ) ) ;
#377 = ADVANCED_FACE ( 'NONE', ( #72 ), #222, .F. ) ;
#378 = CARTESIAN_POINT ( 'NONE',  ( -25.50000000000000000, -2.755455298081544778E-15, 20.99999999999999645 ) ) ;
#379 = VECTOR ( 'NONE', #130, 1000.000000000000000 ) ;
#380 = AXIS2_PLACEMENT_3D ( 'NONE', #530, #630, #361 ) ;
#381 = DIRECTION ( 'NONE',  ( -0.000000000000000000, -0.000000000000000000, -1.000000000000000000 ) ) ;
#382 = CARTESIAN_POINT ( 'NONE',  ( -19.99999999999999645, -2.449293598294706513E-15, 17.49999999999999645 ) ) ;
#383 = ADVANCED_BREP_SHAPE_REPRESENTATION ( 'DS3225_metal_horn_base', ( #122, #403 ), #252 ) ;
#384 = DIRECTION ( 'NONE',  ( 0.000000000000000000, -0.000000000000000000, -1.000000000000000000 ) ) ;
#385 = AXIS2_PLACEMENT_3D ( 'NONE', #640, #19, #443 ) ;
#386 = FACE_OUTER_BOUND ( 'NONE', #608, .T. ) ;
#387 = PRESENTATION_LAYER_ASSIGNMENT (  '', '', ( #7 ) ) ;
#388 = EDGE_CURVE ( 'NONE', #633, #450, #435, .T. ) ;
#389 = CIRCLE ( 'NONE', #175, 9.800000000000000711 ) ;
#390 = DIRECTION ( 'NONE',  ( -1.000000000000000000, 0.000000000000000000, 0.000000000000000000 ) ) ;
#391 = LINE ( 'NONE', #74, #498 ) ;
#392 = LINE ( 'NONE', #536, #22 ) ;
#393 = DIRECTION ( 'NONE',  ( -0.000000000000000000, 0.000000000000000000, 1.000000000000000000 ) ) ;
#394 = FACE_OUTER_BOUND ( 'NONE', #532, .T. ) ;
#395 = EDGE_CURVE ( 'NONE', #527, #307, #440, .T. ) ;
#396 = CARTESIAN_POINT ( 'NONE',  ( -23.99999999999999645, -2.939152317953647894E-15, 17.49999999999999645 ) ) ;
#397 = SURFACE_STYLE_USAGE ( .BOTH. , #183 ) ;
#398 = EDGE_LOOP ( 'NONE', ( #153, #660, #631, #628 ) ) ;
#399 = DIRECTION ( 'NONE',  ( 1.000000000000000000, 0.000000000000000000, 0.000000000000000000 ) ) ;
#400 = DIRECTION ( 'NONE',  ( 0.000000000000000000, -0.000000000000000000, -1.000000000000000000 ) ) ;
#401 = EDGE_CURVE ( 'NONE', #657, #671, #503, .T. ) ;
#402 = ORIENTED_EDGE ( 'NONE', *, *, #395, .F. ) ;
#403 = AXIS2_PLACEMENT_3D ( 'NONE', #173, #227, #491 ) ;
#404 = ORIENTED_EDGE ( 'NONE', *, *, #136, .T. ) ;
#405 = CIRCLE ( 'NONE', #265, 1.650000000000000355 ) ;
#406 = DIRECTION ( 'NONE',  ( 1.000000000000000000, 0.000000000000000000, 0.000000000000000000 ) ) ;
#407 = CIRCLE ( 'NONE', #533, 1.500000000000001332 ) ;
#408 = ORIENTED_EDGE ( 'NONE', *, *, #429, .F. ) ;
#409 = CIRCLE ( 'NONE', #434, 9.799999999999998934 ) ;
#410 = ORIENTED_EDGE ( 'NONE', *, *, #426, .T. ) ;
#411 = CARTESIAN_POINT ( 'NONE',  ( -23.99999999999999645, -2.939152317953647894E-15, 20.99999999999999645 ) ) ;
#412 = VERTEX_POINT ( 'NONE', #240 ) ;
#413 = CIRCLE ( 'NONE', #14, 1.500000000000001332 ) ;
#414 = FACE_OUTER_BOUND ( 'NONE', #289, .T. ) ;
#415 = CARTESIAN_POINT ( 'NONE',  ( -21.50000000000000000, -2.265596578422603396E-15, 20.99999999999999645 ) ) ;
#416 = ORIENTED_EDGE ( 'NONE', *, *, #80, .T. ) ;
#417 = VECTOR ( 'NONE', #25, 1000.000000000000000 ) ;
#418 = CARTESIAN_POINT ( 'NONE',  ( 0.000000000000000000, 0.000000000000000000, 17.49999999999999645 ) ) ;
#419 = EDGE_LOOP ( 'NONE', ( #462, #562, #298, #408 ) ) ;
#420 = DIRECTION ( 'NONE',  ( 1.000000000000000000, 0.000000000000000000, 0.000000000000000000 ) ) ;
#421 = ADVANCED_FACE ( 'NONE', ( #347, #341, #285, #32, #89 ), #449, .T. ) ;
#422 = EDGE_LOOP ( 'NONE', ( #416, #310 ) ) ;
#423 = CARTESIAN_POINT ( 'NONE',  ( 0.000000000000000000, 0.000000000000000000, 20.99999999999999645 ) ) ;
#424 = VERTEX_POINT ( 'NONE', #557 ) ;
#425 = PLANE ( 'NONE',  #224 ) ;
#426 = EDGE_CURVE ( 'NONE', #235, #474, #120, .T. ) ;
#427 = ORIENTED_EDGE ( 'NONE', *, *, #63, .F. ) ;
#428 = DIRECTION ( 'NONE',  ( -0.000000000000000000, 0.000000000000000000, 1.000000000000000000 ) ) ;
#429 = EDGE_CURVE ( 'NONE', #350, #95, #296, .T. ) ;
#430 = CARTESIAN_POINT ( 'NONE',  ( 6.236631032319182575E-16, -3.699999999999998401, 17.49999999999999645 ) ) ;
#431 = CARTESIAN_POINT ( 'NONE',  ( -1.650000000000000133, 2.020667218593133001E-16, 20.99999999999999645 ) ) ;
#432 = DIRECTION ( 'NONE',  ( 1.000000000000000000, 0.000000000000000000, 0.000000000000000000 ) ) ;
#433 = DIRECTION ( 'NONE',  ( 1.000000000000000000, 0.000000000000000000, 0.000000000000000000 ) ) ;
#434 = AXIS2_PLACEMENT_3D ( 'NONE', #260, #161, #591 ) ;
#435 = LINE ( 'NONE', #169, #417 ) ;
#436 = DIRECTION ( 'NONE',  ( 1.000000000000000000, 0.000000000000000000, 0.000000000000000000 ) ) ;
#437 = EDGE_CURVE ( 'NONE', #355, #580, #38, .T. ) ;
#438 = DIRECTION ( 'NONE',  ( -0.000000000000000000, -0.000000000000000000, 1.000000000000000000 ) ) ;
#439 = VECTOR ( 'NONE', #79, 1000.000000000000000 ) ;
#440 = LINE ( 'NONE', #185, #439 ) ;
#441 = CIRCLE ( 'NONE', #358, 3.699999999999998401 ) ;
#442 = AXIS2_PLACEMENT_3D ( 'NONE', #371, #428, #102 ) ;
#443 = DIRECTION ( 'NONE',  ( 1.000000000000000000, 0.000000000000000000, 0.000000000000000000 ) ) ;
#444 = EDGE_CURVE ( 'NONE', #95, #512, #92, .T. ) ;
#445 = AXIS2_PLACEMENT_3D ( 'NONE', #464, #614, #344 ) ;
#446 = CARTESIAN_POINT ( 'NONE',  ( -11.13552872566004304, -3.700000000000000178, 20.99999999999999645 ) ) ;
#447 = VECTOR ( 'NONE', #2, 1000.000000000000000 ) ;
#448 = AXIS2_PLACEMENT_3D ( 'NONE', #225, #73, #639 ) ;
#449 = PLANE ( 'NONE',  #88 ) ;
#450 = VERTEX_POINT ( 'NONE', #290 ) ;
#451 = ADVANCED_FACE ( 'NONE', ( #394 ), #452, .F. ) ;
#452 = CYLINDRICAL_SURFACE ( 'NONE', #613, 1.500000000000001332 ) ;
#453 = DIRECTION ( 'NONE',  ( -0.000000000000000000, 0.000000000000000000, 1.000000000000000000 ) ) ;
#454 = ORIENTED_EDGE ( 'NONE', *, *, #136, .F. ) ;
#455 = ORIENTED_EDGE ( 'NONE', *, *, #178, .F. ) ;
#456 = CARTESIAN_POINT ( 'NONE',  ( -25.50000000000000000, -2.755455298081544778E-15, 17.49999999999999645 ) ) ;
#457 = DIRECTION ( 'NONE',  ( 0.000000000000000000, -0.000000000000000000, -1.000000000000000000 ) ) ;
#458 = EDGE_CURVE ( 'NONE', #60, #501, #286, .T. ) ;
#459 = VERTEX_POINT ( 'NONE', #654 ) ;
#460 = ORIENTED_EDGE ( 'NONE', *, *, #543, .F. ) ;
#461 = PRESENTATION_STYLE_ASSIGNMENT (( #397 ) ) ;
#462 = ORIENTED_EDGE ( 'NONE', *, *, #204, .T. ) ;
#463 = ORIENTED_EDGE ( 'NONE', *, *, #204, .F. ) ;
#464 = CARTESIAN_POINT ( 'NONE',  ( 0.000000000000000000, 0.000000000000000000, 17.49999999999999645 ) ) ;
#465 = ORIENTED_EDGE ( 'NONE', *, *, #581, .F. ) ;
#466 = DIRECTION ( 'NONE',  ( 1.000000000000000000, 0.000000000000000000, 0.000000000000000000 ) ) ;
#467 = AXIS2_PLACEMENT_3D ( 'NONE', #283, #223, #180 ) ;
#468 = ORIENTED_EDGE ( 'NONE', *, *, #276, .T. ) ;
#469 = CARTESIAN_POINT ( 'NONE',  ( -24.00000000000000355, -2.939152317953648683E-15, 17.49999999999999645 ) ) ;
#470 = EDGE_LOOP ( 'NONE', ( #201, #566 ) ) ;
#471 = CYLINDRICAL_SURFACE ( 'NONE', #342, 1.650000000000000133 ) ;
#472 = VERTEX_POINT ( 'NONE', #650 ) ;
#473 = CARTESIAN_POINT ( 'NONE',  ( -4.899632639290417480, -5.940000000000001279, 20.99999999999999645 ) ) ;
#474 = VERTEX_POINT ( 'NONE', #601 ) ;
#475 = FACE_BOUND ( 'NONE', #575, .T. ) ;
#476 = ORIENTED_EDGE ( 'NONE', *, *, #75, .T. ) ;
#477 = EDGE_CURVE ( 'NONE', #412, #512, #128, .T. ) ;
#478 = FACE_OUTER_BOUND ( 'NONE', #354, .T. ) ;
#479 = EDGE_LOOP ( 'NONE', ( #404, #360 ) ) ;
#480 = AXIS2_PLACEMENT_3D ( 'NONE', #182, #497, #599 ) ;
#481 = DIRECTION ( 'NONE',  ( -0.000000000000000000, -0.000000000000000000, -1.000000000000000000 ) ) ;
#482 = ORIENTED_EDGE ( 'NONE', *, *, #426, .F. ) ;
#483 = PLANE ( 'NONE',  #305 ) ;
#484 = EDGE_LOOP ( 'NONE', ( #551, #321, #583, #132 ) ) ;
#485 = CARTESIAN_POINT ( 'NONE',  ( -18.49999999999999645, -2.449293598294706513E-15, 17.49999999999999645 ) ) ;
#486 = CIRCLE ( 'NONE', #273, 3.699999999999998401 ) ;
#487 = CARTESIAN_POINT ( 'NONE',  ( -9.000000000000000000, -1.102182119232617714E-15, 20.99999999999999645 ) ) ;
#488 = DIRECTION ( 'NONE',  ( 1.000000000000000000, 0.000000000000000000, 0.000000000000000000 ) ) ;
#489 = EDGE_CURVE ( 'NONE', #424, #501, #500, .T. ) ;
#490 = DIRECTION ( 'NONE',  ( 0.000000000000000000, -0.000000000000000000, -1.000000000000000000 ) ) ;
#491 = DIRECTION ( 'NONE',  ( 1.000000000000000000, 0.000000000000000000, 0.000000000000000000 ) ) ;
#492 = ADVANCED_FACE ( 'NONE', ( #552 ), #85, .F. ) ;
#493 = CARTESIAN_POINT ( 'NONE',  ( -22.49999999999999645, -2.939152317953647894E-15, 17.49999999999999645 ) ) ;
#494 = DIRECTION ( 'NONE',  ( 1.000000000000000000, 0.000000000000000000, 0.000000000000000000 ) ) ;
#495 = AXIS2_PLACEMENT_3D ( 'NONE', #148, #359, #97 ) ;
#496 = EDGE_CURVE ( 'NONE', #345, #563, #407, .T. ) ;
#497 = DIRECTION ( 'NONE',  ( -0.000000000000000000, 0.000000000000000000, 1.000000000000000000 ) ) ;
#498 = VECTOR ( 'NONE', #648, 1000.000000000000000 ) ;
#499 = AXIS2_PLACEMENT_3D ( 'NONE', #655, #453, #564 ) ;
#500 = LINE ( 'NONE', #229, #379 ) ;
#501 = VERTEX_POINT ( 'NONE', #318 ) ;
#502 = CIRCLE ( 'NONE', #623, 20.00000000000000000 ) ;
#503 = LINE ( 'NONE', #446, #331 ) ;
#504 = DIRECTION ( 'NONE',  ( 1.000000000000000000, 0.000000000000000000, 0.000000000000000000 ) ) ;
#505 = ORIENTED_EDGE ( 'NONE', *, *, #547, .F. ) ;
#506 = ORIENTED_EDGE ( 'NONE', *, *, #388, .T. ) ;
#507 = EDGE_CURVE ( 'NONE', #190, #559, #534, .T. ) ;
#508 = DIRECTION ( 'NONE',  ( -0.000000000000000000, -0.000000000000000000, -1.000000000000000000 ) ) ;
#509 = DIRECTION ( 'NONE',  ( -0.000000000000000000, 0.000000000000000000, 1.000000000000000000 ) ) ;
#510 = ORIENTED_EDGE ( 'NONE', *, *, #316, .F. ) ;
#511 = DIRECTION ( 'NONE',  ( -0.000000000000000000, -0.000000000000000000, -1.000000000000000000 ) ) ;
#512 = VERTEX_POINT ( 'NONE', #157 ) ;
#513 = CIRCLE ( 'NONE', #149, 1.650000000000000355 ) ;
#514 = VERTEX_POINT ( 'NONE', #525 ) ;
#515 = DIRECTION ( 'NONE',  ( 1.000000000000000000, 0.000000000000000000, 0.000000000000000000 ) ) ;
#516 = EDGE_LOOP ( 'NONE', ( #84, #251 ) ) ;
#517 = DIRECTION ( 'NONE',  ( 1.000000000000000000, 0.000000000000000000, 0.000000000000000000 ) ) ;
#518 = EDGE_CURVE ( 'NONE', #370, #559, #561, .T. ) ;
#519 = CYLINDRICAL_SURFACE ( 'NONE', #191, 1.500000000000001332 ) ;
#520 = EDGE_LOOP ( 'NONE', ( #247, #146, #145, #460 ) ) ;
#521 = FACE_OUTER_BOUND ( 'NONE', #529, .T. ) ;
#522 = ORIENTED_EDGE ( 'NONE', *, *, #301, .F. ) ;
#523 = DIRECTION ( 'NONE',  ( 1.685575954680860855E-16, -1.000000000000000000, 0.000000000000000000 ) ) ;
#524 = ORIENTED_EDGE ( 'NONE', *, *, #195, .T. ) ;
#525 = CARTESIAN_POINT ( 'NONE',  ( -4.899632639290417480, -5.940000000000001279, 11.00000000000000000 ) ) ;
#526 = ADVANCED_FACE ( 'NONE', ( #668, #475, #53, #202, #569 ), #311, .F. ) ;
#527 = VERTEX_POINT ( 'NONE', #578 ) ;
#528 = DIRECTION ( 'NONE',  ( 1.000000000000000000, 0.000000000000000000, 0.000000000000000000 ) ) ;
#529 = EDGE_LOOP ( 'NONE', ( #188, #476, #365, #346 ) ) ;
#530 = CARTESIAN_POINT ( 'NONE',  ( -9.000000000000000000, -1.102182119232617714E-15, 11.00000000000000000 ) ) ;
#531 = ORIENTED_EDGE ( 'NONE', *, *, #629, .F. ) ;
#532 = EDGE_LOOP ( 'NONE', ( #215, #243, #524, #142 ) ) ;
#533 = AXIS2_PLACEMENT_3D ( 'NONE', #16, #625, #517 ) ;
#534 = LINE ( 'NONE', #6, #81 ) ;
#535 = AXIS2_PLACEMENT_3D ( 'NONE', #125, #384, #177 ) ;
#536 = CARTESIAN_POINT ( 'NONE',  ( -11.13552872566004126, 3.699999999999997513, 20.99999999999999645 ) ) ;
#537 = PRODUCT_CONTEXT ( 'NONE', #236, 'mechanical' ) ;
#538 = CIRCLE ( 'NONE', #213, 1.650000000000000355 ) ;
#539 = DIRECTION ( 'NONE',  ( -0.000000000000000000, 0.000000000000000000, 1.000000000000000000 ) ) ;
#540 = AXIS2_PLACEMENT_3D ( 'NONE', #487, #118, #390 ) ;
#541 = FACE_OUTER_BOUND ( 'NONE', #49, .T. ) ;
#542 =( LENGTH_UNIT ( ) NAMED_UNIT ( * ) SI_UNIT ( .MILLI., .METRE. ) );
#543 = EDGE_CURVE ( 'NONE', #206, #238, #199, .T. ) ;
#544 = CARTESIAN_POINT ( 'NONE',  ( 1.650000000000000133, 0.000000000000000000, 20.99999999999999645 ) ) ;
#545 = ADVANCED_FACE ( 'NONE', ( #414 ), #584, .T. ) ;
#546 = CARTESIAN_POINT ( 'NONE',  ( -22.49999999999999645, -2.939152317953647894E-15, 20.99999999999999645 ) ) ;
#547 = EDGE_CURVE ( 'NONE', #304, #238, #389, .T. ) ;
#548 = DIRECTION ( 'NONE',  ( 0.000000000000000000, 0.000000000000000000, 1.000000000000000000 ) ) ;
#549 = CARTESIAN_POINT ( 'NONE',  ( -10.65000000000000036, -9.001153973733043645E-16, 12.83309524416878133 ) ) ;
#550 = CIRCLE ( 'NONE', #535, 1.500000000000001332 ) ;
#551 = ORIENTED_EDGE ( 'NONE', *, *, #159, .F. ) ;
#552 = FACE_OUTER_BOUND ( 'NONE', #484, .T. ) ;
#553 =( NAMED_UNIT ( * ) PLANE_ANGLE_UNIT ( ) SI_UNIT ( $, .RADIAN. ) );
#554 = ORIENTED_EDGE ( 'NONE', *, *, #595, .F. ) ;
#555 = ADVANCED_FACE ( 'NONE', ( #521 ), #471, .F. ) ;
#556 = CIRCLE ( 'NONE', #154, 1.650000000000000133 ) ;
#557 = CARTESIAN_POINT ( 'NONE',  ( -28.99999999999999645, -1.102182119232617714E-15, 20.99999999999999645 ) ) ;
#558 = CARTESIAN_POINT ( 'NONE',  ( 11.00000000000000178, 1.347111479062088602E-15, 20.99999999999999645 ) ) ;
#559 = VERTEX_POINT ( 'NONE', #431 ) ;
#560 =( GEOMETRIC_REPRESENTATION_CONTEXT ( 3 ) GLOBAL_UNCERTAINTY_ASSIGNED_CONTEXT ( ( #669 ) ) GLOBAL_UNIT_ASSIGNED_CONTEXT ( ( #662, #553, #104 ) ) REPRESENTATION_CONTEXT ( 'NONE', 'WORKASPACE' ) );
#561 = CIRCLE ( 'NONE', #65, 1.650000000000000133 ) ;
#562 = ORIENTED_EDGE ( 'NONE', *, *, #477, .T. ) ;
#563 = VERTEX_POINT ( 'NONE', #485 ) ;
#564 = DIRECTION ( 'NONE',  ( 1.000000000000000000, 0.000000000000000000, 0.000000000000000000 ) ) ;
#565 = ADVANCED_FACE ( 'NONE', ( #672 ), #637, .F. ) ;
#566 = ORIENTED_EDGE ( 'NONE', *, *, #496, .F. ) ;
#567 = CARTESIAN_POINT ( 'NONE',  ( -23.99999999999999645, -2.939152317953647894E-15, 17.49999999999999645 ) ) ;
#568 = ORIENTED_EDGE ( 'NONE', *, *, #607, .F. ) ;
#569 = FACE_BOUND ( 'NONE', #470, .T. ) ;
#570 = ORIENTED_EDGE ( 'NONE', *, *, #187, .T. ) ;
#571 = FACE_OUTER_BOUND ( 'NONE', #294, .T. ) ;
#572 = EDGE_CURVE ( 'NONE', #559, #370, #615, .T. ) ;
#573 = ORIENTED_EDGE ( 'NONE', *, *, #629, .T. ) ;
#574 = DIRECTION ( 'NONE',  ( -0.000000000000000000, 0.000000000000000000, 1.000000000000000000 ) ) ;
#575 = EDGE_LOOP ( 'NONE', ( #463, #368 ) ) ;
#576 = CYLINDRICAL_SURFACE ( 'NONE', #138, 3.699999999999998401 ) ;
#577 = DIRECTION ( 'NONE',  ( 0.000000000000000000, -0.000000000000000000, -1.000000000000000000 ) ) ;
#578 = CARTESIAN_POINT ( 'NONE',  ( -24.00000000000000355, 3.699999999999996625, 17.49999999999999645 ) ) ;
#579 = PRODUCT_DEFINITION_FORMATION_WITH_SPECIFIED_SOURCE ( 'ANY', '', #17, .NOT_KNOWN. ) ;
#580 = VERTEX_POINT ( 'NONE', #378 ) ;
#581 = EDGE_CURVE ( 'NONE', #345, #140, #114, .T. ) ;
#582 = DIRECTION ( 'NONE',  ( -0.000000000000000000, -0.000000000000000000, -1.000000000000000000 ) ) ;
#583 = ORIENTED_EDGE ( 'NONE', *, *, #543, .T. ) ;
#584 = CYLINDRICAL_SURFACE ( 'NONE', #664, 9.800000000000000711 ) ;
#585 = DIRECTION ( 'NONE',  ( -0.000000000000000000, 0.000000000000000000, 1.000000000000000000 ) ) ;
#586 = PRODUCT_DEFINITION_SHAPE ( 'NONE', 'NONE',  #280 ) ;
#587 = VECTOR ( 'NONE', #228, 1000.000000000000000 ) ;
#588 = DIRECTION ( 'NONE',  ( -0.000000000000000000, -0.000000000000000000, -1.000000000000000000 ) ) ;
#589 = CARTESIAN_POINT ( 'NONE',  ( -27.70000000000000284, -2.939152317953648683E-15, 20.99999999999999645 ) ) ;
#590 = CARTESIAN_POINT ( 'NONE',  ( -27.70000000000000284, -2.939152317953648683E-15, 17.49999999999999645 ) ) ;
#591 = DIRECTION ( 'NONE',  ( 1.000000000000000000, 0.000000000000000000, 0.000000000000000000 ) ) ;
#592 = AXIS2_PLACEMENT_3D ( 'NONE', #119, #218, #332 ) ;
#593 = AXIS2_PLACEMENT_3D ( 'NONE', #248, #457, #100 ) ;
#594 = FACE_OUTER_BOUND ( 'NONE', #103, .T. ) ;
#595 = EDGE_CURVE ( 'NONE', #472, #206, #82, .T. ) ;
#596 = CARTESIAN_POINT ( 'NONE',  ( -25.50000000000000000, -2.755455298081544778E-15, 17.49999999999999645 ) ) ;
#597 = CYLINDRICAL_SURFACE ( 'NONE', #467, 9.800000000000000711 ) ;
#598 = AXIS2_PLACEMENT_3D ( 'NONE', #297, #36, #300 ) ;
#599 = DIRECTION ( 'NONE',  ( 1.000000000000000000, 0.000000000000000000, 0.000000000000000000 ) ) ;
#600 = CARTESIAN_POINT ( 'NONE',  ( -9.000000000000000000, -1.102182119232617714E-15, 11.00000000000000000 ) ) ;
#601 = CARTESIAN_POINT ( 'NONE',  ( -27.70000000000000284, -2.939152317953648683E-15, 11.00000000000000000 ) ) ;
#602 = EDGE_CURVE ( 'NONE', #501, #60, #666, .T. ) ;
#603 = ORIENTED_EDGE ( 'NONE', *, *, #496, .T. ) ;
#604 = EDGE_LOOP ( 'NONE', ( #135, #93, #482, #43 ) ) ;
#605 = CARTESIAN_POINT ( 'NONE',  ( 0.000000000000000000, 0.000000000000000000, 20.99999999999999645 ) ) ;
#606 = CARTESIAN_POINT ( 'NONE',  ( 11.00000000000000178, 1.347111479062088602E-15, 11.00000000000000000 ) ) ;
#607 = EDGE_CURVE ( 'NONE', #671, #450, #308, .T. ) ;
#608 = EDGE_LOOP ( 'NONE', ( #113, #573, #268, #105 ) ) ;
#609 = DIRECTION ( 'NONE',  ( 0.000000000000000000, -0.000000000000000000, -1.000000000000000000 ) ) ;
#610 = ORIENTED_EDGE ( 'NONE', *, *, #429, .T. ) ;
#611 = ORIENTED_EDGE ( 'NONE', *, *, #661, .F. ) ;
#612 = EDGE_CURVE ( 'NONE', #472, #657, #409, .T. ) ;
#613 = AXIS2_PLACEMENT_3D ( 'NONE', #396, #548, #133 ) ;
#614 = DIRECTION ( 'NONE',  ( 0.000000000000000000, -0.000000000000000000, -1.000000000000000000 ) ) ;
#615 = CIRCLE ( 'NONE', #287, 1.650000000000000133 ) ;
#616 = ORIENTED_EDGE ( 'NONE', *, *, #127, .F. ) ;
#617 = EDGE_LOOP ( 'NONE', ( #663, #653 ) ) ;
#618 = CARTESIAN_POINT ( 'NONE',  ( -9.000000000000000000, -1.102182119232617714E-15, 12.83309524416878133 ) ) ;
#619 = EDGE_LOOP ( 'NONE', ( #37, #11 ) ) ;
#620 = DIRECTION ( 'NONE',  ( 0.000000000000000000, 0.000000000000000000, 1.000000000000000000 ) ) ;
#621 = VECTOR ( 'NONE', #200, 1000.000000000000000 ) ;
#622 = DIRECTION ( 'NONE',  ( -1.000000000000000000, 0.000000000000000000, 0.000000000000000000 ) ) ;
#623 = AXIS2_PLACEMENT_3D ( 'NONE', #76, #539, #281 ) ;
#624 = ORIENTED_EDGE ( 'NONE', *, *, #26, .T. ) ;
#625 = DIRECTION ( 'NONE',  ( 0.000000000000000000, -0.000000000000000000, -1.000000000000000000 ) ) ;
#626 = ORIENTED_EDGE ( 'NONE', *, *, #3, .T. ) ;
#627 = CARTESIAN_POINT ( 'NONE',  ( -22.49999999999999645, -2.939152317953647894E-15, 17.49999999999999645 ) ) ;
#628 = ORIENTED_EDGE ( 'NONE', *, *, #195, .F. ) ;
#629 = EDGE_CURVE ( 'NONE', #98, #60, #391, .T. ) ;
#630 = DIRECTION ( 'NONE',  ( -0.000000000000000000, 0.000000000000000000, 1.000000000000000000 ) ) ;
#631 = ORIENTED_EDGE ( 'NONE', *, *, #80, .F. ) ;
#632 = LINE ( 'NONE', #627, #447 ) ;
#633 = VERTEX_POINT ( 'NONE', #21 ) ;
#634 = DIRECTION ( 'NONE',  ( 1.000000000000000000, 0.000000000000000000, 0.000000000000000000 ) ) ;
#635 = AXIS2_PLACEMENT_3D ( 'NONE', #220, #381, #646 ) ;
#636 = CARTESIAN_POINT ( 'NONE',  ( -4.899632639290422809, 5.939999999999994174, 11.00000000000000000 ) ) ;
#637 = PLANE ( 'NONE',  #168 ) ;
#638 = ADVANCED_FACE ( 'NONE', ( #334 ), #597, .T. ) ;
#639 = DIRECTION ( 'NONE',  ( 1.000000000000000000, 0.000000000000000000, 0.000000000000000000 ) ) ;
#640 = CARTESIAN_POINT ( 'NONE',  ( -19.99999999999999645, -2.449293598294706513E-15, 17.49999999999999645 ) ) ;
#641 = EDGE_CURVE ( 'NONE', #474, #450, #143, .T. ) ;
#642 = DIRECTION ( 'NONE',  ( -0.000000000000000000, -0.000000000000000000, -1.000000000000000000 ) ) ;
#643 = CARTESIAN_POINT ( 'NONE',  ( -11.13552872566004304, -3.700000000000000178, 11.00000000000000000 ) ) ;
#644 = CIRCLE ( 'NONE', #448, 1.500000000000001332 ) ;
#645 = CIRCLE ( 'NONE', #351, 20.00000000000000000 ) ;
#646 = DIRECTION ( 'NONE',  ( -1.000000000000000000, 0.000000000000000000, 0.000000000000000000 ) ) ;
#647 = CYLINDRICAL_SURFACE ( 'NONE', #635, 3.699999999999998401 ) ;
#648 = DIRECTION ( 'NONE',  ( -0.000000000000000000, -0.000000000000000000, -1.000000000000000000 ) ) ;
#649 = CIRCLE ( 'NONE', #445, 1.650000000000000133 ) ;
#650 = CARTESIAN_POINT ( 'NONE',  ( -4.899632639290417480, -5.940000000000001279, 17.49999999999999645 ) ) ;
#651 = DIRECTION ( 'NONE',  ( -0.000000000000000000, -0.000000000000000000, 1.000000000000000000 ) ) ;
#652 = FILL_AREA_STYLE ('',( #309 ) ) ;
#653 = ORIENTED_EDGE ( 'NONE', *, *, #572, .F. ) ;
#654 = CARTESIAN_POINT ( 'NONE',  ( -18.49999999999999645, -2.449293598294706513E-15, 20.99999999999999645 ) ) ;
#655 = CARTESIAN_POINT ( 'NONE',  ( 0.000000000000000000, 0.000000000000000000, 11.00000000000000000 ) ) ;
#656 = EDGE_LOOP ( 'NONE', ( #624, #505, #40, #410, #45, #568, #522 ) ) ;
#657 = VERTEX_POINT ( 'NONE', #24 ) ;
#658 = CARTESIAN_POINT ( 'NONE',  ( 1.650000000000000133, 0.000000000000000000, 17.49999999999999645 ) ) ;
#659 = EDGE_CURVE ( 'NONE', #459, #140, #550, .T. ) ;
#660 = ORIENTED_EDGE ( 'NONE', *, *, #437, .T. ) ;
#661 = EDGE_CURVE ( 'NONE', #109, #370, #338, .T. ) ;
#662 =( LENGTH_UNIT ( ) NAMED_UNIT ( * ) SI_UNIT ( .MILLI., .METRE. ) );
#663 = ORIENTED_EDGE ( 'NONE', *, *, #518, .F. ) ;
#664 = AXIS2_PLACEMENT_3D ( 'NONE', #216, #481, #207 ) ;
#665 = FACE_OUTER_BOUND ( 'NONE', #242, .T. ) ;
#666 = CIRCLE ( 'NONE', #380, 20.00000000000000000 ) ;
#667 = ORIENTED_EDGE ( 'NONE', *, *, #602, .F. ) ;
#668 = FACE_BOUND ( 'NONE', #619, .T. ) ;
#669 = UNCERTAINTY_MEASURE_WITH_UNIT (LENGTH_MEASURE( 1.000000000000000082E-05 ), #662, 'distance_accuracy_value', 'NONE');
#670 = CARTESIAN_POINT ( 'NONE',  ( -9.000000000000000000, -1.102182119232617714E-15, 17.49999999999999645 ) ) ;
#671 = VERTEX_POINT ( 'NONE', #643 ) ;
#672 = FACE_OUTER_BOUND ( 'NONE', #302, .T. ) ;
ENDSEC;
END-ISO-10303-21;
