ISO-10303-21;
HEADER;
FILE_DESCRIPTION (( 'STEP AP214' ),
    '1' );
FILE_NAME ('gripper_spacer.STEP',
    '2026-08-26T10:01:46',
    ( '' ),
    ( '' ),
    'SwSTEP 2.0',
    'SolidWorks 2025',
    '' );
FILE_SCHEMA (( 'AUTOMOTIVE_DESIGN' ));
ENDSEC;

DATA;
#1 = ORIENTED_EDGE ( 'NONE', *, *, #242, .F. ) ;
#2 = ORIENTED_EDGE ( 'NONE', *, *, #295, .T. ) ;
#3 =( GEOMETRIC_REPRESENTATION_CONTEXT ( 3 ) GLOBAL_UNCERTAINTY_ASSIGNED_CONTEXT ( ( #277 ) ) GLOBAL_UNIT_ASSIGNED_CONTEXT ( ( #55, #34, #145 ) ) REPRESENTATION_CONTEXT ( 'NONE', 'WORKASPACE' ) );
#4 = ORIENTED_EDGE ( 'NONE', *, *, #51, .F. ) ;
#5 = ORIENTED_EDGE ( 'NONE', *, *, #192, .F. ) ;
#6 = FACE_OUTER_BOUND ( 'NONE', #186, .T. ) ;
#7 = DIRECTION ( 'NONE',  ( -0.000000000000000000, -1.000000000000000000, -0.000000000000000000 ) ) ;
#8 = APPLICATION_PROTOCOL_DEFINITION ( 'draft international standard', 'automotive_design', 1998, #223 ) ;
#9 = ORIENTED_EDGE ( 'NONE', *, *, #162, .T. ) ;
#10 = DIRECTION ( 'NONE',  ( 0.000000000000000000, 1.000000000000000000, 0.000000000000000000 ) ) ;
#11 = DIRECTION ( 'NONE',  ( 0.000000000000000000, 1.000000000000000000, 0.000000000000000000 ) ) ;
#12 = DIRECTION ( 'NONE',  ( 0.000000000000000000, 0.000000000000000000, 1.000000000000000000 ) ) ;
#13 = CARTESIAN_POINT ( 'NONE',  ( 0.000000000000000000, 1.250000000000000000, 0.000000000000000000 ) ) ;
#14 = AXIS2_PLACEMENT_3D ( 'NONE', #199, #113, #157 ) ;
#15 = AXIS2_PLACEMENT_3D ( 'NONE', #193, #11, #41 ) ;
#16 = PRESENTATION_STYLE_ASSIGNMENT (( #191 ) ) ;
#17 = ADVANCED_FACE ( 'NONE', ( #6 ), #187, .T. ) ;
#18 = CARTESIAN_POINT ( 'NONE',  ( 7.435874108439740732E-16, 1.250000000000000000, 6.071851993257881830 ) ) ;
#19 = EDGE_CURVE ( 'NONE', #72, #77, #79, .T. ) ;
#20 = CYLINDRICAL_SURFACE ( 'NONE', #117, 1.750000000000000000 ) ;
#21 = LINE ( 'NONE', #18, #230 ) ;
#22 = VERTEX_POINT ( 'NONE', #81 ) ;
#23 = VECTOR ( 'NONE', #42, 1000.000000000000000 ) ;
#24 = CIRCLE ( 'NONE', #40, 6.499999999999994671 ) ;
#25 = ORIENTED_EDGE ( 'NONE', *, *, #154, .F. ) ;
#26 = EDGE_LOOP ( 'NONE', ( #137, #9, #93, #234 ) ) ;
#27 = ADVANCED_FACE ( 'NONE', ( #260 ), #264, .T. ) ;
#28 = CIRCLE ( 'NONE', #109, 1.750000000000000000 ) ;
#29 = AXIS2_PLACEMENT_3D ( 'NONE', #128, #265, #84 ) ;
#30 = ORIENTED_EDGE ( 'NONE', *, *, #272, .F. ) ;
#31 = CARTESIAN_POINT ( 'NONE',  ( 0.000000000000000000, 0.1781480067421161440, 7.500000000000000000 ) ) ;
#32 = CARTESIAN_POINT ( 'NONE',  ( 0.000000000000000000, -1.250000000000000000, 0.000000000000000000 ) ) ;
#33 = EDGE_LOOP ( 'NONE', ( #258, #189, #253, #101 ) ) ;
#34 =( NAMED_UNIT ( * ) PLANE_ANGLE_UNIT ( ) SI_UNIT ( $, .RADIAN. ) );
#35 = EDGE_CURVE ( 'NONE', #274, #77, #70, .T. ) ;
#36 = DIRECTION ( 'NONE',  ( 0.000000000000000000, -0.000000000000000000, 1.000000000000000000 ) ) ;
#37 = CYLINDRICAL_SURFACE ( 'NONE', #221, 1.750000000000000000 ) ;
#38 = ADVANCED_FACE ( 'NONE', ( #197, #129 ), #61, .T. ) ;
#39 = CARTESIAN_POINT ( 'NONE',  ( 9.184850993605147944E-16, 0.1781480067421161440, 7.500000000000000000 ) ) ;
#40 = AXIS2_PLACEMENT_3D ( 'NONE', #268, #178, #68 ) ;
#41 = DIRECTION ( 'NONE',  ( 0.000000000000000000, 0.000000000000000000, 1.000000000000000000 ) ) ;
#42 = DIRECTION ( 'NONE',  ( -0.000000000000000000, -1.000000000000000000, -0.000000000000000000 ) ) ;
#43 = DIRECTION ( 'NONE',  ( 0.000000000000000000, 0.000000000000000000, 1.000000000000000000 ) ) ;
#44 = VECTOR ( 'NONE', #133, 1000.000000000000000 ) ;
#45 = CARTESIAN_POINT ( 'NONE',  ( 0.000000000000000000, -1.250000000000000000, 0.000000000000000000 ) ) ;
#46 = CLOSED_SHELL ( 'NONE', ( #202, #141, #196, #99, #38, #179, #17, #62, #148, #27 ) ) ;
#47 = ORIENTED_EDGE ( 'NONE', *, *, #162, .F. ) ;
#48 = ORIENTED_EDGE ( 'NONE', *, *, #71, .T. ) ;
#49 = ORIENTED_EDGE ( 'NONE', *, *, #269, .T. ) ;
#50 = EDGE_LOOP ( 'NONE', ( #52, #136, #54, #143 ) ) ;
#51 = EDGE_CURVE ( 'NONE', #118, #299, #56, .T. ) ;
#52 = ORIENTED_EDGE ( 'NONE', *, *, #19, .F. ) ;
#53 = AXIS2_PLACEMENT_3D ( 'NONE', #105, #82, #102 ) ;
#54 = ORIENTED_EDGE ( 'NONE', *, *, #160, .T. ) ;
#55 =( LENGTH_UNIT ( ) NAMED_UNIT ( * ) SI_UNIT ( .MILLI., .METRE. ) );
#56 = CIRCLE ( 'NONE', #88, 6.071851993257881830 ) ;
#57 = ORIENTED_EDGE ( 'NONE', *, *, #176, .F. ) ;
#58 = CARTESIAN_POINT ( 'NONE',  ( 0.000000000000000000, 0.1781480067421161440, 0.000000000000000000 ) ) ;
#59 = FACE_OUTER_BOUND ( 'NONE', #50, .T. ) ;
#60 = AXIS2_PLACEMENT_3D ( 'NONE', #45, #226, #201 ) ;
#61 = PLANE ( 'NONE',  #182 ) ;
#62 = ADVANCED_FACE ( 'NONE', ( #59 ), #37, .F. ) ;
#63 = CIRCLE ( 'NONE', #220, 1.750000000000000000 ) ;
#64 = CONICAL_SURFACE ( 'NONE', #231, 6.071851993257881830, 0.9599310885968799223 ) ;
#65 = FACE_BOUND ( 'NONE', #257, .T. ) ;
#66 = DIRECTION ( 'NONE',  ( 1.003171929053523761E-16, -0.5735764363510472696, 0.8191520442889910214 ) ) ;
#67 = DIRECTION ( 'NONE',  ( -0.000000000000000000, 1.000000000000000000, -0.000000000000000000 ) ) ;
#68 = DIRECTION ( 'NONE',  ( 0.000000000000000000, 0.000000000000000000, 1.000000000000000000 ) ) ;
#69 = EDGE_CURVE ( 'NONE', #232, #181, #291, .T. ) ;
#70 = CIRCLE ( 'NONE', #29, 1.750000000000000000 ) ;
#71 = EDGE_CURVE ( 'NONE', #164, #125, #78, .T. ) ;
#72 = VERTEX_POINT ( 'NONE', #127 ) ;
#73 = ADVANCED_BREP_SHAPE_REPRESENTATION ( 'gripper_spacer', ( #76, #208 ), #142 ) ;
#74 = ORIENTED_EDGE ( 'NONE', *, *, #218, .T. ) ;
#75 = EDGE_LOOP ( 'NONE', ( #165, #25 ) ) ;
#76 = MANIFOLD_SOLID_BREP ( 'Chamfer1', #46 ) ;
#77 = VERTEX_POINT ( 'NONE', #110 ) ;
#78 = LINE ( 'NONE', #31, #95 ) ;
#79 = LINE ( 'NONE', #214, #209 ) ;
#80 = CARTESIAN_POINT ( 'NONE',  ( 0.000000000000000000, 1.250000000000000000, 0.000000000000000000 ) ) ;
#81 = CARTESIAN_POINT ( 'NONE',  ( 0.000000000000000000, 1.250000000000000000, -1.750000000000000000 ) ) ;
#82 = DIRECTION ( 'NONE',  ( 0.000000000000000000, 1.000000000000000000, 0.000000000000000000 ) ) ;
#83 = DIRECTION ( 'NONE',  ( 0.000000000000000000, 0.000000000000000000, 1.000000000000000000 ) ) ;
#84 = DIRECTION ( 'NONE',  ( 0.000000000000000000, 0.000000000000000000, 1.000000000000000000 ) ) ;
#85 = AXIS2_PLACEMENT_3D ( 'NONE', #58, #169, #12 ) ;
#86 =( NAMED_UNIT ( * ) SI_UNIT ( $, .STERADIAN. ) SOLID_ANGLE_UNIT ( ) );
#87 = FACE_OUTER_BOUND ( 'NONE', #206, .T. ) ;
#88 = AXIS2_PLACEMENT_3D ( 'NONE', #80, #108, #219 ) ;
#89 = CARTESIAN_POINT ( 'NONE',  ( 0.000000000000000000, 0.000000000000000000, 0.000000000000000000 ) ) ;
#90 = CARTESIAN_POINT ( 'NONE',  ( 0.000000000000000000, 0.2499999999999948097, 0.000000000000000000 ) ) ;
#91 = DIRECTION ( 'NONE',  ( -0.000000000000000000, -1.000000000000000000, -0.000000000000000000 ) ) ;
#92 = PLANE ( 'NONE',  #60 ) ;
#93 = ORIENTED_EDGE ( 'NONE', *, *, #254, .F. ) ;
#94 = CIRCLE ( 'NONE', #292, 6.499999999999994671 ) ;
#95 = VECTOR ( 'NONE', #287, 1000.000000000000227 ) ;
#96 = VERTEX_POINT ( 'NONE', #239 ) ;
#97 = ORIENTED_EDGE ( 'NONE', *, *, #160, .F. ) ;
#98 = STYLED_ITEM ( 'NONE', ( #16 ), #76 ) ;
#99 = ADVANCED_FACE ( 'NONE', ( #152 ), #212, .T. ) ;
#100 = ORIENTED_EDGE ( 'NONE', *, *, #272, .T. ) ;
#101 = ORIENTED_EDGE ( 'NONE', *, *, #69, .F. ) ;
#102 = DIRECTION ( 'NONE',  ( 0.000000000000000000, 0.000000000000000000, 1.000000000000000000 ) ) ;
#103 = CARTESIAN_POINT ( 'NONE',  ( 0.000000000000000000, 1.250000000000000000, 0.000000000000000000 ) ) ;
#104 = DIRECTION ( 'NONE',  ( 0.000000000000000000, 0.000000000000000000, -1.000000000000000000 ) ) ;
#105 = CARTESIAN_POINT ( 'NONE',  ( 0.000000000000000000, -1.250000000000000000, 0.000000000000000000 ) ) ;
#106 = PRODUCT_DEFINITION_CONTEXT ( 'detailed design', #161, 'design' ) ;
#107 = CARTESIAN_POINT ( 'NONE',  ( 0.000000000000000000, 1.250000000000000000, 0.000000000000000000 ) ) ;
#108 = DIRECTION ( 'NONE',  ( 0.000000000000000000, 1.000000000000000000, 0.000000000000000000 ) ) ;
#109 = AXIS2_PLACEMENT_3D ( 'NONE', #107, #132, #43 ) ;
#110 = CARTESIAN_POINT ( 'NONE',  ( 2.143131898507868297E-16, -1.250000000000000000, 1.750000000000000000 ) ) ;
#111 = AXIS2_PLACEMENT_3D ( 'NONE', #279, #282, #104 ) ;
#112 = LINE ( 'NONE', #294, #273 ) ;
#113 = DIRECTION ( 'NONE',  ( 0.000000000000000000, -1.000000000000000000, 0.000000000000000000 ) ) ;
#114 = CARTESIAN_POINT ( 'NONE',  ( 0.000000000000000000, 1.250000000000000000, 0.000000000000000000 ) ) ;
#115 = DIRECTION ( 'NONE',  ( 0.000000000000000000, 0.000000000000000000, 1.000000000000000000 ) ) ;
#116 = CIRCLE ( 'NONE', #280, 7.500000000000000000 ) ;
#117 = AXIS2_PLACEMENT_3D ( 'NONE', #114, #91, #271 ) ;
#118 = VERTEX_POINT ( 'NONE', #215 ) ;
#119 = ORIENTED_EDGE ( 'NONE', *, *, #218, .F. ) ;
#120 = EDGE_CURVE ( 'NONE', #77, #274, #233, .T. ) ;
#121 = ORIENTED_EDGE ( 'NONE', *, *, #176, .T. ) ;
#122 = UNCERTAINTY_MEASURE_WITH_UNIT (LENGTH_MEASURE( 1.000000000000000082E-05 ), #170, 'distance_accuracy_value', 'NONE');
#123 = ORIENTED_EDGE ( 'NONE', *, *, #51, .T. ) ;
#124 = EDGE_LOOP ( 'NONE', ( #49, #211, #235, #97 ) ) ;
#125 = VERTEX_POINT ( 'NONE', #39 ) ;
#126 = DIRECTION ( 'NONE',  ( 0.000000000000000000, 0.000000000000000000, 1.000000000000000000 ) ) ;
#127 = CARTESIAN_POINT ( 'NONE',  ( 2.143131898507868297E-16, 1.250000000000000000, 1.750000000000000000 ) ) ;
#128 = CARTESIAN_POINT ( 'NONE',  ( 0.000000000000000000, -1.250000000000000000, 0.000000000000000000 ) ) ;
#129 = FACE_BOUND ( 'NONE', #75, .T. ) ;
#130 = CIRCLE ( 'NONE', #15, 6.071851993257881830 ) ;
#131 = DIRECTION ( 'NONE',  ( 0.000000000000000000, 0.000000000000000000, 1.000000000000000000 ) ) ;
#132 = DIRECTION ( 'NONE',  ( 0.000000000000000000, 1.000000000000000000, 0.000000000000000000 ) ) ;
#133 = DIRECTION ( 'NONE',  ( -0.000000000000000000, -1.000000000000000000, -0.000000000000000000 ) ) ;
#134 = DIRECTION ( 'NONE',  ( 0.000000000000000000, -0.5735764363510472696, -0.8191520442889910214 ) ) ;
#135 = CARTESIAN_POINT ( 'NONE',  ( 0.000000000000000000, 0.1781480067421161440, -7.500000000000000000 ) ) ;
#136 = ORIENTED_EDGE ( 'NONE', *, *, #154, .T. ) ;
#137 = ORIENTED_EDGE ( 'NONE', *, *, #295, .F. ) ;
#138 = EDGE_LOOP ( 'NONE', ( #1, #30, #185, #57 ) ) ;
#139 = CIRCLE ( 'NONE', #14, 7.500000000000000000 ) ;
#140 = ORIENTED_EDGE ( 'NONE', *, *, #200, .F. ) ;
#141 = ADVANCED_FACE ( 'NONE', ( #172 ), #194, .T. ) ;
#142 =( GEOMETRIC_REPRESENTATION_CONTEXT ( 3 ) GLOBAL_UNCERTAINTY_ASSIGNED_CONTEXT ( ( #122 ) ) GLOBAL_UNIT_ASSIGNED_CONTEXT ( ( #170, #284, #86 ) ) REPRESENTATION_CONTEXT ( 'NONE', 'WORKASPACE' ) );
#143 = ORIENTED_EDGE ( 'NONE', *, *, #120, .F. ) ;
#144 = AXIS2_PLACEMENT_3D ( 'NONE', #171, #210, #190 ) ;
#145 =( NAMED_UNIT ( * ) SI_UNIT ( $, .STERADIAN. ) SOLID_ANGLE_UNIT ( ) );
#146 = ORIENTED_EDGE ( 'NONE', *, *, #288, .T. ) ;
#147 = CARTESIAN_POINT ( 'NONE',  ( 0.000000000000000000, 1.250000000000000000, 0.000000000000000000 ) ) ;
#148 = ADVANCED_FACE ( 'NONE', ( #87 ), #207, .T. ) ;
#149 = DIRECTION ( 'NONE',  ( 1.000000000000000000, 0.000000000000000000, 0.000000000000000000 ) ) ;
#150 = CARTESIAN_POINT ( 'NONE',  ( 0.000000000000000000, 0.1781480067421161440, 0.000000000000000000 ) ) ;
#151 = CARTESIAN_POINT ( 'NONE',  ( 0.000000000000000000, -1.250000000000000000, -1.750000000000000000 ) ) ;
#152 = FACE_OUTER_BOUND ( 'NONE', #33, .T. ) ;
#153 = AXIS2_PLACEMENT_3D ( 'NONE', #90, #296, #180 ) ;
#154 = EDGE_CURVE ( 'NONE', #72, #22, #28, .T. ) ;
#155 = DIRECTION ( 'NONE',  ( 0.000000000000000000, -1.000000000000000000, 0.000000000000000000 ) ) ;
#156 = FACE_OUTER_BOUND ( 'NONE', #168, .T. ) ;
#157 = DIRECTION ( 'NONE',  ( 0.000000000000000000, 0.000000000000000000, 1.000000000000000000 ) ) ;
#158 = CARTESIAN_POINT ( 'NONE',  ( 0.000000000000000000, 1.250000000000000000, -1.750000000000000000 ) ) ;
#159 = PRODUCT_DEFINITION_FORMATION_WITH_SPECIFIED_SOURCE ( 'ANY', '', #166, .NOT_KNOWN. ) ;
#160 = EDGE_CURVE ( 'NONE', #22, #274, #204, .T. ) ;
#161 = APPLICATION_CONTEXT ( 'automotive_design' ) ;
#162 = EDGE_CURVE ( 'NONE', #96, #181, #112, .T. ) ;
#163 = ORIENTED_EDGE ( 'NONE', *, *, #266, .F. ) ;
#164 = VERTEX_POINT ( 'NONE', #251 ) ;
#165 = ORIENTED_EDGE ( 'NONE', *, *, #269, .F. ) ;
#166 = PRODUCT ( 'gripper_spacer', 'gripper_spacer', '', ( #198 ) ) ;
#167 = SURFACE_STYLE_FILL_AREA ( #245 ) ;
#168 = EDGE_LOOP ( 'NONE', ( #4, #238, #140, #5 ) ) ;
#169 = DIRECTION ( 'NONE',  ( -0.000000000000000000, 1.000000000000000000, -0.000000000000000000 ) ) ;
#170 =( LENGTH_UNIT ( ) NAMED_UNIT ( * ) SI_UNIT ( .MILLI., .METRE. ) );
#171 = CARTESIAN_POINT ( 'NONE',  ( 0.000000000000000000, 1.250000000000000000, 0.000000000000000000 ) ) ;
#172 = FACE_OUTER_BOUND ( 'NONE', #26, .T. ) ;
#173 = SURFACE_SIDE_STYLE ('',( #167 ) ) ;
#174 = CARTESIAN_POINT ( 'NONE',  ( 0.000000000000000000, 1.250000000000000000, -6.071851993257881830 ) ) ;
#175 = LINE ( 'NONE', #228, #281 ) ;
#176 = EDGE_CURVE ( 'NONE', #276, #232, #139, .T. ) ;
#177 = PRODUCT_DEFINITION_SHAPE ( 'NONE', 'NONE',  #259 ) ;
#178 = DIRECTION ( 'NONE',  ( -0.000000000000000000, -1.000000000000000000, -0.000000000000000000 ) ) ;
#179 = ADVANCED_FACE ( 'NONE', ( #203, #65 ), #92, .F. ) ;
#180 = DIRECTION ( 'NONE',  ( 0.000000000000000000, 0.000000000000000000, 1.000000000000000000 ) ) ;
#181 = VERTEX_POINT ( 'NONE', #135 ) ;
#182 = AXIS2_PLACEMENT_3D ( 'NONE', #236, #10, #36 ) ;
#183 = ORIENTED_EDGE ( 'NONE', *, *, #120, .T. ) ;
#184 = PRESENTATION_LAYER_ASSIGNMENT (  '', '', ( #98 ) ) ;
#185 = ORIENTED_EDGE ( 'NONE', *, *, #192, .T. ) ;
#186 = EDGE_LOOP ( 'NONE', ( #163, #121, #255, #146 ) ) ;
#187 = CYLINDRICAL_SURFACE ( 'NONE', #111, 7.500000000000000000 ) ;
#188 = CARTESIAN_POINT ( 'NONE',  ( 0.000000000000000000, 0.1781480067421161440, 0.000000000000000000 ) ) ;
#189 = ORIENTED_EDGE ( 'NONE', *, *, #266, .T. ) ;
#190 = DIRECTION ( 'NONE',  ( 0.000000000000000000, 0.000000000000000000, -1.000000000000000000 ) ) ;
#191 = SURFACE_STYLE_USAGE ( .BOTH. , #173 ) ;
#192 = EDGE_CURVE ( 'NONE', #299, #232, #175, .T. ) ;
#193 = CARTESIAN_POINT ( 'NONE',  ( 0.000000000000000000, 1.250000000000000000, 0.000000000000000000 ) ) ;
#194 = CONICAL_SURFACE ( 'NONE', #225, 7.500000000000000000, 0.6108652381980171908 ) ;
#195 = DIRECTION ( 'NONE',  ( 0.000000000000000000, 0.000000000000000000, -1.000000000000000000 ) ) ;
#196 = ADVANCED_FACE ( 'NONE', ( #249 ), #20, .F. ) ;
#197 = FACE_OUTER_BOUND ( 'NONE', #278, .T. ) ;
#198 = PRODUCT_CONTEXT ( 'NONE', #223, 'mechanical' ) ;
#199 = CARTESIAN_POINT ( 'NONE',  ( 0.000000000000000000, 0.2499999999999948097, 0.000000000000000000 ) ) ;
#200 = EDGE_CURVE ( 'NONE', #232, #276, #246, .T. ) ;
#201 = DIRECTION ( 'NONE',  ( 0.000000000000000000, -0.000000000000000000, 1.000000000000000000 ) ) ;
#202 = ADVANCED_FACE ( 'NONE', ( #156 ), #64, .T. ) ;
#203 = FACE_OUTER_BOUND ( 'NONE', #205, .T. ) ;
#204 = LINE ( 'NONE', #158, #44 ) ;
#205 = EDGE_LOOP ( 'NONE', ( #74, #2 ) ) ;
#206 = EDGE_LOOP ( 'NONE', ( #47, #119, #48, #229 ) ) ;
#207 = CONICAL_SURFACE ( 'NONE', #85, 7.500000000000000000, 0.6108652381980171908 ) ;
#208 = AXIS2_PLACEMENT_3D ( 'NONE', #89, #83, #149 ) ;
#209 = VECTOR ( 'NONE', #285, 1000.000000000000000 ) ;
#210 = DIRECTION ( 'NONE',  ( 0.000000000000000000, -1.000000000000000000, 0.000000000000000000 ) ) ;
#211 = ORIENTED_EDGE ( 'NONE', *, *, #19, .T. ) ;
#212 = CYLINDRICAL_SURFACE ( 'NONE', #289, 7.500000000000000000 ) ;
#213 = AXIS2_PLACEMENT_3D ( 'NONE', #150, #244, #131 ) ;
#214 = CARTESIAN_POINT ( 'NONE',  ( 2.143131898507868297E-16, 1.250000000000000000, 1.750000000000000000 ) ) ;
#215 = CARTESIAN_POINT ( 'NONE',  ( 8.310362551022444338E-16, 1.250000000000000000, 6.071851993257881830 ) ) ;
#216 = CARTESIAN_POINT ( 'NONE',  ( 9.184850993605147944E-16, 0.2499999999999948097, 7.500000000000000000 ) ) ;
#217 = FILL_AREA_STYLE_COLOUR ( '', #227 ) ;
#218 = EDGE_CURVE ( 'NONE', #164, #96, #24, .T. ) ;
#219 = DIRECTION ( 'NONE',  ( 0.000000000000000000, 0.000000000000000000, 1.000000000000000000 ) ) ;
#220 = AXIS2_PLACEMENT_3D ( 'NONE', #103, #237, #126 ) ;
#221 = AXIS2_PLACEMENT_3D ( 'NONE', #147, #7, #243 ) ;
#222 = CARTESIAN_POINT ( 'NONE',  ( 0.000000000000000000, 1.250000000000000000, 0.000000000000000000 ) ) ;
#223 = APPLICATION_CONTEXT ( 'automotive_design' ) ;
#224 = CARTESIAN_POINT ( 'NONE',  ( 0.000000000000000000, 0.1781480067421161440, 0.000000000000000000 ) ) ;
#225 = AXIS2_PLACEMENT_3D ( 'NONE', #188, #283, #241 ) ;
#226 = DIRECTION ( 'NONE',  ( 0.000000000000000000, 1.000000000000000000, 0.000000000000000000 ) ) ;
#227 = COLOUR_RGB ( '',0.7921568627450980005, 0.8196078431372548767, 0.9333333333333333481 ) ;
#228 = CARTESIAN_POINT ( 'NONE',  ( 0.000000000000000000, 1.250000000000000000, -6.071851993257881830 ) ) ;
#229 = ORIENTED_EDGE ( 'NONE', *, *, #288, .F. ) ;
#230 = VECTOR ( 'NONE', #66, 999.9999999999998863 ) ;
#231 = AXIS2_PLACEMENT_3D ( 'NONE', #222, #155, #248 ) ;
#232 = VERTEX_POINT ( 'NONE', #270 ) ;
#233 = CIRCLE ( 'NONE', #53, 1.750000000000000000 ) ;
#234 = ORIENTED_EDGE ( 'NONE', *, *, #71, .F. ) ;
#235 = ORIENTED_EDGE ( 'NONE', *, *, #35, .F. ) ;
#236 = CARTESIAN_POINT ( 'NONE',  ( 0.000000000000000000, 1.250000000000000000, 0.000000000000000000 ) ) ;
#237 = DIRECTION ( 'NONE',  ( 0.000000000000000000, 1.000000000000000000, 0.000000000000000000 ) ) ;
#238 = ORIENTED_EDGE ( 'NONE', *, *, #242, .T. ) ;
#239 = CARTESIAN_POINT ( 'NONE',  ( 8.572527594031469245E-16, -1.250000000000000000, -6.499999999999994671 ) ) ;
#240 = SHAPE_DEFINITION_REPRESENTATION ( #177, #73 ) ;
#241 = DIRECTION ( 'NONE',  ( 0.000000000000000000, 0.000000000000000000, 1.000000000000000000 ) ) ;
#242 = EDGE_CURVE ( 'NONE', #118, #276, #21, .T. ) ;
#243 = DIRECTION ( 'NONE',  ( 0.000000000000000000, 0.000000000000000000, -1.000000000000000000 ) ) ;
#244 = DIRECTION ( 'NONE',  ( -0.000000000000000000, 1.000000000000000000, -0.000000000000000000 ) ) ;
#245 = FILL_AREA_STYLE ('',( #217 ) ) ;
#246 = CIRCLE ( 'NONE', #153, 7.500000000000000000 ) ;
#247 = CARTESIAN_POINT ( 'NONE',  ( 9.184850993605147944E-16, 1.250000000000000000, 7.500000000000000000 ) ) ;
#248 = DIRECTION ( 'NONE',  ( 0.000000000000000000, 0.000000000000000000, -1.000000000000000000 ) ) ;
#249 = FACE_OUTER_BOUND ( 'NONE', #124, .T. ) ;
#250 = MECHANICAL_DESIGN_GEOMETRIC_PRESENTATION_REPRESENTATION (  '', ( #98 ), #3 ) ;
#251 = CARTESIAN_POINT ( 'NONE',  ( 0.000000000000000000, -1.250000000000000000, 6.499999999999994671 ) ) ;
#252 = PRODUCT_RELATED_PRODUCT_CATEGORY ( 'part', '', ( #166 ) ) ;
#253 = ORIENTED_EDGE ( 'NONE', *, *, #254, .T. ) ;
#254 = EDGE_CURVE ( 'NONE', #125, #181, #116, .T. ) ;
#255 = ORIENTED_EDGE ( 'NONE', *, *, #69, .T. ) ;
#256 = CIRCLE ( 'NONE', #213, 7.500000000000000000 ) ;
#257 = EDGE_LOOP ( 'NONE', ( #297, #183 ) ) ;
#258 = ORIENTED_EDGE ( 'NONE', *, *, #200, .T. ) ;
#259 = PRODUCT_DEFINITION ( 'UNKNOWN', '', #159, #106 ) ;
#260 = FACE_OUTER_BOUND ( 'NONE', #138, .T. ) ;
#261 = DIRECTION ( 'NONE',  ( -0.000000000000000000, -1.000000000000000000, -0.000000000000000000 ) ) ;
#262 = APPLICATION_PROTOCOL_DEFINITION ( 'draft international standard', 'automotive_design', 1998, #161 ) ;
#263 = CARTESIAN_POINT ( 'NONE',  ( 0.000000000000000000, 1.250000000000000000, -7.500000000000000000 ) ) ;
#264 = CONICAL_SURFACE ( 'NONE', #144, 6.071851993257881830, 0.9599310885968799223 ) ;
#265 = DIRECTION ( 'NONE',  ( 0.000000000000000000, 1.000000000000000000, 0.000000000000000000 ) ) ;
#266 = EDGE_CURVE ( 'NONE', #276, #125, #298, .T. ) ;
#267 = DIRECTION ( 'NONE',  ( -0.000000000000000000, -1.000000000000000000, -0.000000000000000000 ) ) ;
#268 = CARTESIAN_POINT ( 'NONE',  ( 0.000000000000000000, -1.250000000000000000, 0.000000000000000000 ) ) ;
#269 = EDGE_CURVE ( 'NONE', #22, #72, #63, .T. ) ;
#270 = CARTESIAN_POINT ( 'NONE',  ( 0.000000000000000000, 0.2499999999999948097, -7.500000000000000000 ) ) ;
#271 = DIRECTION ( 'NONE',  ( 0.000000000000000000, 0.000000000000000000, -1.000000000000000000 ) ) ;
#272 = EDGE_CURVE ( 'NONE', #299, #118, #130, .T. ) ;
#273 = VECTOR ( 'NONE', #293, 1000.000000000000227 ) ;
#274 = VERTEX_POINT ( 'NONE', #151 ) ;
#275 = VECTOR ( 'NONE', #286, 1000.000000000000000 ) ;
#276 = VERTEX_POINT ( 'NONE', #216 ) ;
#277 = UNCERTAINTY_MEASURE_WITH_UNIT (LENGTH_MEASURE( 1.000000000000000082E-05 ), #55, 'distance_accuracy_value', 'NONE');
#278 = EDGE_LOOP ( 'NONE', ( #100, #123 ) ) ;
#279 = CARTESIAN_POINT ( 'NONE',  ( 0.000000000000000000, 1.250000000000000000, 0.000000000000000000 ) ) ;
#280 = AXIS2_PLACEMENT_3D ( 'NONE', #224, #67, #115 ) ;
#281 = VECTOR ( 'NONE', #134, 999.9999999999998863 ) ;
#282 = DIRECTION ( 'NONE',  ( -0.000000000000000000, -1.000000000000000000, -0.000000000000000000 ) ) ;
#283 = DIRECTION ( 'NONE',  ( -0.000000000000000000, 1.000000000000000000, -0.000000000000000000 ) ) ;
#284 =( NAMED_UNIT ( * ) PLANE_ANGLE_UNIT ( ) SI_UNIT ( $, .RADIAN. ) );
#285 = DIRECTION ( 'NONE',  ( -0.000000000000000000, -1.000000000000000000, -0.000000000000000000 ) ) ;
#286 = DIRECTION ( 'NONE',  ( -0.000000000000000000, -1.000000000000000000, -0.000000000000000000 ) ) ;
#287 = DIRECTION ( 'NONE',  ( 0.000000000000000000, 0.8191520442889907994, 0.5735764363510476027 ) ) ;
#288 = EDGE_CURVE ( 'NONE', #181, #125, #256, .T. ) ;
#289 = AXIS2_PLACEMENT_3D ( 'NONE', #13, #261, #195 ) ;
#290 = DIRECTION ( 'NONE',  ( 0.000000000000000000, 0.000000000000000000, 1.000000000000000000 ) ) ;
#291 = LINE ( 'NONE', #263, #275 ) ;
#292 = AXIS2_PLACEMENT_3D ( 'NONE', #32, #267, #290 ) ;
#293 = DIRECTION ( 'NONE',  ( 7.024285468436558421E-17, 0.8191520442889907994, -0.5735764363510476027 ) ) ;
#294 = CARTESIAN_POINT ( 'NONE',  ( 9.184850993605147944E-16, 0.1781480067421161440, -7.500000000000000000 ) ) ;
#295 = EDGE_CURVE ( 'NONE', #96, #164, #94, .T. ) ;
#296 = DIRECTION ( 'NONE',  ( 0.000000000000000000, -1.000000000000000000, 0.000000000000000000 ) ) ;
#297 = ORIENTED_EDGE ( 'NONE', *, *, #35, .T. ) ;
#298 = LINE ( 'NONE', #247, #23 ) ;
#299 = VERTEX_POINT ( 'NONE', #174 ) ;
ENDSEC;
END-ISO-10303-21;
