ISO-10303-21;
HEADER;
FILE_DESCRIPTION (( 'STEP AP214' ),
    '1' );
FILE_NAME ('mg90s_horn_base.STEP',
    '2026-08-16T22:20:52',
    ( '' ),
    ( '' ),
    'SwSTEP 2.0',
    'SolidWorks 2025',
    '' );
FILE_SCHEMA (( 'AUTOMOTIVE_DESIGN' ));
ENDSEC;

DATA;
#1 = VERTEX_POINT ( 'NONE', #604 ) ;
#2 = PLANE ( 'NONE',  #501 ) ;
#3 = CIRCLE ( 'NONE', #161, 3.549999999999997602 ) ;
#4 = ORIENTED_EDGE ( 'NONE', *, *, #36, .F. ) ;
#5 = DIRECTION ( 'NONE',  ( 0.000000000000000000, -1.000000000000000000, 0.000000000000000000 ) ) ;
#6 = CARTESIAN_POINT ( 'NONE',  ( 30.00000000000000355, 5.453910524340073174, 0.000000000000000000 ) ) ;
#7 = ORIENTED_EDGE ( 'NONE', *, *, #439, .F. ) ;
#8 = DIRECTION ( 'NONE',  ( 1.368232600770440287E-14, 0.000000000000000000, -1.000000000000000000 ) ) ;
#9 = ORIENTED_EDGE ( 'NONE', *, *, #606, .T. ) ;
#10 = DIRECTION ( 'NONE',  ( -0.000000000000000000, 1.000000000000000000, -0.000000000000000000 ) ) ;
#11 = CYLINDRICAL_SURFACE ( 'NONE', #232, 2.599999999999992539 ) ;
#12 = CIRCLE ( 'NONE', #380, 2.599999999999992539 ) ;
#13 = CARTESIAN_POINT ( 'NONE',  ( 35.10000000000000142, -4.700000000000000178, 13.50000000000000000 ) ) ;
#14 = DIRECTION ( 'NONE',  ( -0.9952295494196655712, 0.000000000000000000, -0.09756097560976598193 ) ) ;
#15 = CYLINDRICAL_SURFACE ( 'NONE', #69, 1.300000000000001599 ) ;
#16 = SHAPE_DEFINITION_REPRESENTATION ( #581, #51 ) ;
#17 = ORIENTED_EDGE ( 'NONE', *, *, #264, .F. ) ;
#18 = CARTESIAN_POINT ( 'NONE',  ( 30.00000000000000000, 2.799999999999999378, 0.000000000000000000 ) ) ;
#19 = CARTESIAN_POINT ( 'NONE',  ( 30.34634146341466021, 2.799999999999999378, 3.533064900439819578 ) ) ;
#20 = PRODUCT_CONTEXT ( 'NONE', #113, 'mechanical' ) ;
#21 = ORIENTED_EDGE ( 'NONE', *, *, #391, .F. ) ;
#22 = FACE_OUTER_BOUND ( 'NONE', #359, .T. ) ;
#23 = VECTOR ( 'NONE', #324, 1000.000000000000000 ) ;
#24 = DIRECTION ( 'NONE',  ( -0.9952295494196656822, 0.000000000000000000, -0.09756097560976598193 ) ) ;
#25 = CIRCLE ( 'NONE', #127, 1.300000000000001599 ) ;
#26 = LINE ( 'NONE', #423, #631 ) ;
#27 = VECTOR ( 'NONE', #625, 1000.000000000000000 ) ;
#28 = DIRECTION ( 'NONE',  ( 0.000000000000000000, 0.000000000000000000, -1.000000000000000000 ) ) ;
#29 = CARTESIAN_POINT ( 'NONE',  ( 30.00000000000000000, 2.799999999999999378, 0.000000000000000000 ) ) ;
#30 = EDGE_CURVE ( 'NONE', #286, #348, #68, .T. ) ;
#31 = FACE_OUTER_BOUND ( 'NONE', #237, .T. ) ;
#32 = VERTEX_POINT ( 'NONE', #377 ) ;
#33 = CARTESIAN_POINT ( 'NONE',  ( 35.09999999999999432, -1.899999999999999689, -1.300000000000001599 ) ) ;
#34 = VECTOR ( 'NONE', #364, 1000.000000000000000 ) ;
#35 = AXIS2_PLACEMENT_3D ( 'NONE', #335, #339, #528 ) ;
#36 = EDGE_CURVE ( 'NONE', #95, #195, #506, .T. ) ;
#37 = ORIENTED_EDGE ( 'NONE', *, *, #513, .T. ) ;
#38 = DIRECTION ( 'NONE',  ( 0.000000000000000000, 0.000000000000000000, -1.000000000000000000 ) ) ;
#39 = EDGE_LOOP ( 'NONE', ( #590, #303, #102, #443 ) ) ;
#40 = DIRECTION ( 'NONE',  ( 0.000000000000000000, 0.000000000000000000, -1.000000000000000000 ) ) ;
#41 = ORIENTED_EDGE ( 'NONE', *, *, #372, .T. ) ;
#42 = PLANE ( 'NONE',  #337 ) ;
#43 = EDGE_CURVE ( 'NONE', #243, #71, #182, .T. ) ;
#44 = CARTESIAN_POINT ( 'NONE',  ( 0.000000000000000000, -1.900000000000000133, 0.000000000000000000 ) ) ;
#45 = ORIENTED_EDGE ( 'NONE', *, *, #430, .T. ) ;
#46 = CARTESIAN_POINT ( 'NONE',  ( 46.59024390243906311, -1.899999999999999689, 1.940697621368529413 ) ) ;
#47 = EDGE_CURVE ( 'NONE', #173, #426, #119, .T. ) ;
#48 = CARTESIAN_POINT ( 'NONE',  ( 30.00000000000000355, 5.453910524340073174, -2.599999999999992539 ) ) ;
#49 = VERTEX_POINT ( 'NONE', #13 ) ;
#50 = DIRECTION ( 'NONE',  ( 0.000000000000000000, -1.000000000000000000, 0.000000000000000000 ) ) ;
#51 = ADVANCED_BREP_SHAPE_REPRESENTATION ( 'mg90s_horn_base', ( #564, #59 ), #139 ) ;
#52 = ADVANCED_FACE ( 'NONE', ( #75 ), #165, .F. ) ;
#53 = CARTESIAN_POINT ( 'NONE',  ( 30.34634146341466732, 2.799999999999999378, -3.533064900440159306 ) ) ;
#54 = ORIENTED_EDGE ( 'NONE', *, *, #336, .T. ) ;
#55 = DIRECTION ( 'NONE',  ( 0.000000000000000000, -1.000000000000000000, 0.000000000000000000 ) ) ;
#56 = AXIS2_PLACEMENT_3D ( 'NONE', #414, #329, #228 ) ;
#57 = CIRCLE ( 'NONE', #611, 3.549999999999997602 ) ;
#58 = ADVANCED_FACE ( 'NONE', ( #518 ), #425, .F. ) ;
#59 = AXIS2_PLACEMENT_3D ( 'NONE', #72, #608, #370 ) ;
#60 = EDGE_CURVE ( 'NONE', #243, #220, #507, .T. ) ;
#61 = ORIENTED_EDGE ( 'NONE', *, *, #603, .F. ) ;
#62 = EDGE_LOOP ( 'NONE', ( #532, #21, #153, #133 ) ) ;
#63 = CARTESIAN_POINT ( 'NONE',  ( 46.39999999999999858, 2.799999999999999378, 0.000000000000000000 ) ) ;
#64 = EDGE_CURVE ( 'NONE', #286, #49, #550, .T. ) ;
#65 = EDGE_LOOP ( 'NONE', ( #432, #141, #89, #529 ) ) ;
#66 =( LENGTH_UNIT ( ) NAMED_UNIT ( * ) SI_UNIT ( .MILLI., .METRE. ) );
#67 = EDGE_CURVE ( 'NONE', #583, #426, #117, .T. ) ;
#68 = CIRCLE ( 'NONE', #254, 13.50000000000000000 ) ;
#69 = AXIS2_PLACEMENT_3D ( 'NONE', #224, #167, #216 ) ;
#70 = CIRCLE ( 'NONE', #600, 3.549999999999997602 ) ;
#71 = VERTEX_POINT ( 'NONE', #316 ) ;
#72 = CARTESIAN_POINT ( 'NONE',  ( 0.000000000000000000, 0.000000000000000000, 0.000000000000000000 ) ) ;
#73 = DIRECTION ( 'NONE',  ( 0.000000000000000000, 0.000000000000000000, -1.000000000000000000 ) ) ;
#74 = DIRECTION ( 'NONE',  ( 0.000000000000000000, 0.000000000000000000, -1.000000000000000000 ) ) ;
#75 = FACE_OUTER_BOUND ( 'NONE', #636, .T. ) ;
#76 = APPLICATION_PROTOCOL_DEFINITION ( 'draft international standard', 'automotive_design', 1998, #113 ) ;
#77 = CARTESIAN_POINT ( 'NONE',  ( 30.00000000000000355, -1.899999999999999689, 0.000000000000000000 ) ) ;
#78 = AXIS2_PLACEMENT_3D ( 'NONE', #474, #469, #28 ) ;
#79 = DIRECTION ( 'NONE',  ( 0.000000000000000000, 0.000000000000000000, -1.000000000000000000 ) ) ;
#80 = EDGE_LOOP ( 'NONE', ( #478, #407, #299, #208 ) ) ;
#81 = CARTESIAN_POINT ( 'NONE',  ( 30.00000000000000000, 2.799999999999999378, 3.549999999999997602 ) ) ;
#82 = CIRCLE ( 'NONE', #546, 13.50000000000000000 ) ;
#83 = CARTESIAN_POINT ( 'NONE',  ( 35.10000000000000142, 2.799999999999999378, 0.000000000000000000 ) ) ;
#84 = EDGE_LOOP ( 'NONE', ( #4, #92 ) ) ;
#85 = CARTESIAN_POINT ( 'NONE',  ( 38.95999999999999375, -1.899999999999999689, 1.300000000000001599 ) ) ;
#86 = ADVANCED_FACE ( 'NONE', ( #462 ), #15, .F. ) ;
#87 = VERTEX_POINT ( 'NONE', #172 ) ;
#88 = DIRECTION ( 'NONE',  ( 0.000000000000000000, 0.000000000000000000, -1.000000000000000000 ) ) ;
#89 = ORIENTED_EDGE ( 'NONE', *, *, #606, .F. ) ;
#90 = CARTESIAN_POINT ( 'NONE',  ( 42.82000000000000739, -1.899999999999999689, -1.300000000000001599 ) ) ;
#91 = VECTOR ( 'NONE', #142, 1000.000000000000000 ) ;
#92 = ORIENTED_EDGE ( 'NONE', *, *, #336, .F. ) ;
#93 = CARTESIAN_POINT ( 'NONE',  ( 42.82000000000000739, -1.899999999999999689, 0.000000000000000000 ) ) ;
#94 = EDGE_CURVE ( 'NONE', #351, #220, #242, .T. ) ;
#95 = VERTEX_POINT ( 'NONE', #321 ) ;
#96 = CARTESIAN_POINT ( 'NONE',  ( 35.10000000000000142, 2.799999999999999378, -13.50000000000000000 ) ) ;
#97 = ORIENTED_EDGE ( 'NONE', *, *, #582, .F. ) ;
#98 = FACE_BOUND ( 'NONE', #366, .T. ) ;
#99 = VECTOR ( 'NONE', #298, 1000.000000000000000 ) ;
#100 = VERTEX_POINT ( 'NONE', #19 ) ;
#101 = CARTESIAN_POINT ( 'NONE',  ( 46.59024390243906311, 2.799999999999999378, -1.940697621368529413 ) ) ;
#102 = ORIENTED_EDGE ( 'NONE', *, *, #476, .T. ) ;
#103 = DIRECTION ( 'NONE',  ( 0.000000000000000000, 0.000000000000000000, -1.000000000000000000 ) ) ;
#104 = ORIENTED_EDGE ( 'NONE', *, *, #47, .T. ) ;
#105 = PRESENTATION_STYLE_ASSIGNMENT (( #551 ) ) ;
#106 = VECTOR ( 'NONE', #511, 1000.000000000000114 ) ;
#107 = VECTOR ( 'NONE', #24, 999.9999999999998863 ) ;
#108 = CIRCLE ( 'NONE', #328, 1.950000000000183364 ) ;
#109 = DIRECTION ( 'NONE',  ( 0.000000000000000000, -1.000000000000000000, 0.000000000000000000 ) ) ;
#110 = ORIENTED_EDGE ( 'NONE', *, *, #531, .T. ) ;
#111 = FILL_AREA_STYLE_COLOUR ( '', #557 ) ;
#112 = CARTESIAN_POINT ( 'NONE',  ( 38.95999999999999375, -1.899999999999999689, 0.000000000000000000 ) ) ;
#113 = APPLICATION_CONTEXT ( 'automotive_design' ) ;
#114 = ADVANCED_FACE ( 'NONE', ( #179 ), #219, .F. ) ;
#115 = ORIENTED_EDGE ( 'NONE', *, *, #239, .F. ) ;
#116 = CARTESIAN_POINT ( 'NONE',  ( 42.82000000000000739, 5.453910524340073174, -1.300000000000001599 ) ) ;
#117 = LINE ( 'NONE', #607, #106 ) ;
#118 = CIRCLE ( 'NONE', #480, 3.549999999999997602 ) ;
#119 = LINE ( 'NONE', #459, #440 ) ;
#120 = CARTESIAN_POINT ( 'NONE',  ( 0.6318857822723560336, 2.799999999999999378, 6.445931874350726787 ) ) ;
#121 = EDGE_CURVE ( 'NONE', #87, #157, #567, .T. ) ;
#122 = CARTESIAN_POINT ( 'NONE',  ( 0.6318857822725834072, -1.900000000000000133, -6.445931874351666480 ) ) ;
#123 = CARTESIAN_POINT ( 'NONE',  ( 35.09999999999999432, 5.453910524340073174, 0.000000000000000000 ) ) ;
#124 = DIRECTION ( 'NONE',  ( 0.000000000000000000, -1.000000000000000000, 0.000000000000000000 ) ) ;
#125 = ORIENTED_EDGE ( 'NONE', *, *, #239, .T. ) ;
#126 = CARTESIAN_POINT ( 'NONE',  ( 42.82000000000000739, -1.899999999999999689, 1.300000000000001599 ) ) ;
#127 = AXIS2_PLACEMENT_3D ( 'NONE', #112, #312, #265 ) ;
#128 = CARTESIAN_POINT ( 'NONE',  ( 30.00000000000000000, 2.799999999999999378, 0.000000000000000000 ) ) ;
#129 = STYLED_ITEM ( 'NONE', ( #105 ), #564 ) ;
#130 = DIRECTION ( 'NONE',  ( -0.000000000000000000, -1.000000000000000000, -0.000000000000000000 ) ) ;
#131 = ORIENTED_EDGE ( 'NONE', *, *, #36, .T. ) ;
#132 = PLANE ( 'NONE',  #202 ) ;
#133 = ORIENTED_EDGE ( 'NONE', *, *, #168, .T. ) ;
#134 = DIRECTION ( 'NONE',  ( 0.000000000000000000, 0.000000000000000000, -1.000000000000000000 ) ) ;
#135 = AXIS2_PLACEMENT_3D ( 'NONE', #610, #365, #277 ) ;
#136 = ORIENTED_EDGE ( 'NONE', *, *, #439, .T. ) ;
#137 = LINE ( 'NONE', #482, #91 ) ;
#138 = CIRCLE ( 'NONE', #357, 1.300000000000001599 ) ;
#139 =( GEOMETRIC_REPRESENTATION_CONTEXT ( 3 ) GLOBAL_UNCERTAINTY_ASSIGNED_CONTEXT ( ( #305 ) ) GLOBAL_UNIT_ASSIGNED_CONTEXT ( ( #225, #422, #317 ) ) REPRESENTATION_CONTEXT ( 'NONE', 'WORKASPACE' ) );
#140 = EDGE_CURVE ( 'NONE', #392, #481, #369, .T. ) ;
#141 = ORIENTED_EDGE ( 'NONE', *, *, #47, .F. ) ;
#142 = DIRECTION ( 'NONE',  ( 0.000000000000000000, -1.000000000000000000, 0.000000000000000000 ) ) ;
#143 = ADVANCED_FACE ( 'NONE', ( #421, #615, #176, #259, #205 ), #293, .F. ) ;
#144 = VERTEX_POINT ( 'NONE', #596 ) ;
#145 = CARTESIAN_POINT ( 'NONE',  ( 35.09999999999999432, -1.899999999999999689, 0.000000000000000000 ) ) ;
#146 = LINE ( 'NONE', #152, #99 ) ;
#147 = EDGE_CURVE ( 'NONE', #294, #383, #554, .T. ) ;
#148 = ORIENTED_EDGE ( 'NONE', *, *, #547, .F. ) ;
#149 = DIRECTION ( 'NONE',  ( 0.000000000000000000, -1.000000000000000000, 0.000000000000000000 ) ) ;
#150 = CIRCLE ( 'NONE', #471, 13.50000000000000000 ) ;
#151 = AXIS2_PLACEMENT_3D ( 'NONE', #145, #187, #386 ) ;
#152 = CARTESIAN_POINT ( 'NONE',  ( 42.82000000000000739, 5.453910524340073174, 1.300000000000001599 ) ) ;
#153 = ORIENTED_EDGE ( 'NONE', *, *, #215, .F. ) ;
#154 = DIRECTION ( 'NONE',  ( 0.000000000000000000, 0.000000000000000000, -1.000000000000000000 ) ) ;
#155 = ORIENTED_EDGE ( 'NONE', *, *, #352, .T. ) ;
#156 = FACE_OUTER_BOUND ( 'NONE', #569, .T. ) ;
#157 = VERTEX_POINT ( 'NONE', #394 ) ;
#158 = VECTOR ( 'NONE', #465, 1000.000000000000000 ) ;
#159 = ADVANCED_FACE ( 'NONE', ( #156 ), #635, .F. ) ;
#160 = AXIS2_PLACEMENT_3D ( 'NONE', #599, #246, #397 ) ;
#161 = AXIS2_PLACEMENT_3D ( 'NONE', #438, #584, #295 ) ;
#162 = ORIENTED_EDGE ( 'NONE', *, *, #574, .T. ) ;
#163 = FACE_OUTER_BOUND ( 'NONE', #62, .T. ) ;
#164 = CARTESIAN_POINT ( 'NONE',  ( 0.6318857822725835183, 2.799999999999999378, -6.445931874351667368 ) ) ;
#165 = CYLINDRICAL_SURFACE ( 'NONE', #56, 1.300000000000001599 ) ;
#166 = CARTESIAN_POINT ( 'NONE',  ( 35.09999999999999432, 5.453910524340073174, -1.300000000000001599 ) ) ;
#167 = DIRECTION ( 'NONE',  ( -0.000000000000000000, -1.000000000000000000, -0.000000000000000000 ) ) ;
#168 = EDGE_CURVE ( 'NONE', #587, #481, #490, .T. ) ;
#169 = DIRECTION ( 'NONE',  ( 0.9952295494196656822, 0.000000000000000000, 0.09756097560976598193 ) ) ;
#170 = CIRCLE ( 'NONE', #379, 1.300000000000001599 ) ;
#171 = AXIS2_PLACEMENT_3D ( 'NONE', #201, #300, #8 ) ;
#172 = CARTESIAN_POINT ( 'NONE',  ( 35.09999999999999432, -4.700000000000000178, 1.300000000000001599 ) ) ;
#173 = VERTEX_POINT ( 'NONE', #586 ) ;
#174 = DIRECTION ( 'NONE',  ( 0.000000000000000000, 0.000000000000000000, -1.000000000000000000 ) ) ;
#175 = EDGE_CURVE ( 'NONE', #294, #195, #146, .T. ) ;
#176 = FACE_BOUND ( 'NONE', #206, .T. ) ;
#177 = DIRECTION ( 'NONE',  ( -0.000000000000000000, -1.000000000000000000, -0.000000000000000000 ) ) ;
#178 = APPLICATION_CONTEXT ( 'automotive_design' ) ;
#179 = FACE_OUTER_BOUND ( 'NONE', #450, .T. ) ;
#180 = ORIENTED_EDGE ( 'NONE', *, *, #623, .F. ) ;
#181 = FACE_OUTER_BOUND ( 'NONE', #540, .T. ) ;
#182 = CIRCLE ( 'NONE', #78, 1.300000000000001599 ) ;
#183 = AXIS2_PLACEMENT_3D ( 'NONE', #558, #319, #514 ) ;
#184 = ORIENTED_EDGE ( 'NONE', *, *, #398, .F. ) ;
#185 = FACE_OUTER_BOUND ( 'NONE', #385, .T. ) ;
#186 = ORIENTED_EDGE ( 'NONE', *, *, #617, .F. ) ;
#187 = DIRECTION ( 'NONE',  ( -0.000000000000000000, 1.000000000000000000, -0.000000000000000000 ) ) ;
#188 = EDGE_LOOP ( 'NONE', ( #555, #291, #544, #110, #45, #200 ) ) ;
#189 = CARTESIAN_POINT ( 'NONE',  ( 46.59024390243906311, -1.899999999999999689, -1.940697621368529413 ) ) ;
#190 = EDGE_CURVE ( 'NONE', #491, #515, #494, .T. ) ;
#191 = ORIENTED_EDGE ( 'NONE', *, *, #94, .F. ) ;
#192 = LINE ( 'NONE', #292, #388 ) ;
#193 = AXIS2_PLACEMENT_3D ( 'NONE', #475, #322, #284 ) ;
#194 = CIRCLE ( 'NONE', #517, 2.599999999999992539 ) ;
#195 = VERTEX_POINT ( 'NONE', #594 ) ;
#196 = DIRECTION ( 'NONE',  ( 0.000000000000000000, -0.000000000000000000, -1.000000000000000000 ) ) ;
#197 = EDGE_CURVE ( 'NONE', #71, #243, #25, .T. ) ;
#198 = VERTEX_POINT ( 'NONE', #539 ) ;
#199 = LINE ( 'NONE', #627, #613 ) ;
#200 = ORIENTED_EDGE ( 'NONE', *, *, #67, .T. ) ;
#201 = CARTESIAN_POINT ( 'NONE',  ( 30.00000000000000000, -1.900000000000000133, 0.000000000000000000 ) ) ;
#202 = AXIS2_PLACEMENT_3D ( 'NONE', #619, #333, #516 ) ;
#203 = EDGE_LOOP ( 'NONE', ( #597, #497, #234, #97 ) ) ;
#204 = DIRECTION ( 'NONE',  ( 0.000000000000000000, 0.000000000000000000, -1.000000000000000000 ) ) ;
#205 = FACE_OUTER_BOUND ( 'NONE', #188, .T. ) ;
#206 = EDGE_LOOP ( 'NONE', ( #345, #310 ) ) ;
#207 = EDGE_CURVE ( 'NONE', #220, #351, #170, .T. ) ;
#208 = ORIENTED_EDGE ( 'NONE', *, *, #372, .F. ) ;
#209 = DIRECTION ( 'NONE',  ( 0.000000000000000000, 0.000000000000000000, -1.000000000000000000 ) ) ;
#210 = DIRECTION ( 'NONE',  ( -0.000000000000000000, -1.000000000000000000, -0.000000000000000000 ) ) ;
#211 = ADVANCED_FACE ( 'NONE', ( #453 ), #11, .F. ) ;
#212 = CIRCLE ( 'NONE', #568, 13.50000000000000000 ) ;
#213 = CARTESIAN_POINT ( 'NONE',  ( 38.95999999999999375, 5.453910524340073174, 1.300000000000001599 ) ) ;
#214 = CARTESIAN_POINT ( 'NONE',  ( 46.39999999999999858, -1.900000000000000133, 0.000000000000000000 ) ) ;
#215 = EDGE_CURVE ( 'NONE', #587, #486, #602, .T. ) ;
#216 = DIRECTION ( 'NONE',  ( 0.000000000000000000, 0.000000000000000000, -1.000000000000000000 ) ) ;
#217 = ORIENTED_EDGE ( 'NONE', *, *, #585, .T. ) ;
#218 = FACE_BOUND ( 'NONE', #354, .T. ) ;
#219 = CYLINDRICAL_SURFACE ( 'NONE', #441, 3.549999999999997602 ) ;
#220 = VERTEX_POINT ( 'NONE', #621 ) ;
#221 = CYLINDRICAL_SURFACE ( 'NONE', #534, 1.300000000000001599 ) ;
#222 = AXIS2_PLACEMENT_3D ( 'NONE', #123, #280, #477 ) ;
#223 = AXIS2_PLACEMENT_3D ( 'NONE', #457, #10, #209 ) ;
#224 = CARTESIAN_POINT ( 'NONE',  ( 35.09999999999999432, 5.453910524340073174, 0.000000000000000000 ) ) ;
#225 =( LENGTH_UNIT ( ) NAMED_UNIT ( * ) SI_UNIT ( .MILLI., .METRE. ) );
#226 = PRODUCT_DEFINITION_FORMATION_WITH_SPECIFIED_SOURCE ( 'ANY', '', #436, .NOT_KNOWN. ) ;
#227 = PLANE ( 'NONE',  #245 ) ;
#228 = DIRECTION ( 'NONE',  ( 0.000000000000000000, 0.000000000000000000, -1.000000000000000000 ) ) ;
#229 = ORIENTED_EDGE ( 'NONE', *, *, #447, .T. ) ;
#230 = CARTESIAN_POINT ( 'NONE',  ( 42.82000000000000739, -4.700000000000000178, 0.000000000000000000 ) ) ;
#231 = CYLINDRICAL_SURFACE ( 'NONE', #222, 1.300000000000001599 ) ;
#232 = AXIS2_PLACEMENT_3D ( 'NONE', #6, #210, #410 ) ;
#233 = PRESENTATION_LAYER_ASSIGNMENT (  '', '', ( #129 ) ) ;
#234 = ORIENTED_EDGE ( 'NONE', *, *, #121, .T. ) ;
#235 = FACE_BOUND ( 'NONE', #84, .T. ) ;
#236 = ADVANCED_FACE ( 'NONE', ( #185 ), #221, .F. ) ;
#237 = EDGE_LOOP ( 'NONE', ( #521, #575 ) ) ;
#238 = CYLINDRICAL_SURFACE ( 'NONE', #309, 1.950000000000183364 ) ;
#239 = EDGE_CURVE ( 'NONE', #32, #49, #150, .T. ) ;
#240 = EDGE_LOOP ( 'NONE', ( #456, #229, #148, #272 ) ) ;
#241 = DIRECTION ( 'NONE',  ( 0.000000000000000000, -1.000000000000000000, 0.000000000000000000 ) ) ;
#242 = CIRCLE ( 'NONE', #183, 1.300000000000001599 ) ;
#243 = VERTEX_POINT ( 'NONE', #85 ) ;
#244 = CARTESIAN_POINT ( 'NONE',  ( 38.95999999999999375, 5.453910524340073174, 0.000000000000000000 ) ) ;
#245 = AXIS2_PLACEMENT_3D ( 'NONE', #120, #371, #560 ) ;
#246 = DIRECTION ( 'NONE',  ( -0.000000000000000000, 1.000000000000000000, -0.000000000000000000 ) ) ;
#247 = ORIENTED_EDGE ( 'NONE', *, *, #468, .T. ) ;
#248 = CYLINDRICAL_SURFACE ( 'NONE', #35, 13.50000000000000000 ) ;
#249 = ORIENTED_EDGE ( 'NONE', *, *, #476, .F. ) ;
#250 = DIRECTION ( 'NONE',  ( 0.000000000000000000, 0.000000000000000000, -1.000000000000000000 ) ) ;
#251 = PRODUCT_RELATED_PRODUCT_CATEGORY ( 'part', '', ( #436 ) ) ;
#252 = ORIENTED_EDGE ( 'NONE', *, *, #67, .F. ) ;
#253 = DIRECTION ( 'NONE',  ( 0.000000000000000000, -1.000000000000000000, 0.000000000000000000 ) ) ;
#254 = AXIS2_PLACEMENT_3D ( 'NONE', #83, #412, #79 ) ;
#255 = DIRECTION ( 'NONE',  ( 0.000000000000000000, 0.000000000000000000, -1.000000000000000000 ) ) ;
#256 = VECTOR ( 'NONE', #169, 999.9999999999998863 ) ;
#257 = AXIS2_PLACEMENT_3D ( 'NONE', #63, #541, #263 ) ;
#258 = AXIS2_PLACEMENT_3D ( 'NONE', #553, #415, #466 ) ;
#259 = FACE_BOUND ( 'NONE', #381, .T. ) ;
#260 = ORIENTED_EDGE ( 'NONE', *, *, #352, .F. ) ;
#261 = DIRECTION ( 'NONE',  ( 0.09756097560976598193, 0.000000000000000000, -0.9952295494196655712 ) ) ;
#262 = EDGE_LOOP ( 'NONE', ( #340, #592 ) ) ;
#263 = DIRECTION ( 'NONE',  ( 0.000000000000000000, 0.000000000000000000, -1.000000000000000000 ) ) ;
#264 = EDGE_CURVE ( 'NONE', #454, #144, #57, .T. ) ;
#265 = DIRECTION ( 'NONE',  ( 0.000000000000000000, 0.000000000000000000, -1.000000000000000000 ) ) ;
#266 = EDGE_CURVE ( 'NONE', #572, #1, #570, .T. ) ;
#267 = ORIENTED_EDGE ( 'NONE', *, *, #207, .T. ) ;
#268 = FACE_OUTER_BOUND ( 'NONE', #240, .T. ) ;
#269 = AXIS2_PLACEMENT_3D ( 'NONE', #244, #530, #576 ) ;
#270 = CARTESIAN_POINT ( 'NONE',  ( 35.10000000000000142, 2.799999999999999378, 13.50000000000000000 ) ) ;
#271 = DIRECTION ( 'NONE',  ( 0.000000000000000000, -1.000000000000000000, 0.000000000000000000 ) ) ;
#272 = ORIENTED_EDGE ( 'NONE', *, *, #168, .F. ) ;
#273 = CARTESIAN_POINT ( 'NONE',  ( 35.10000000000000142, 2.799999999999999378, 13.50000000000000000 ) ) ;
#274 = DIRECTION ( 'NONE',  ( -0.000000000000000000, -1.000000000000000000, -0.000000000000000000 ) ) ;
#275 = DIRECTION ( 'NONE',  ( 0.000000000000000000, 0.000000000000000000, -1.000000000000000000 ) ) ;
#276 = CIRCLE ( 'NONE', #151, 1.300000000000001599 ) ;
#277 = DIRECTION ( 'NONE',  ( 0.000000000000000000, 0.000000000000000000, -1.000000000000000000 ) ) ;
#278 = ADVANCED_FACE ( 'NONE', ( #522 ), #231, .F. ) ;
#279 = ORIENTED_EDGE ( 'NONE', *, *, #585, .F. ) ;
#280 = DIRECTION ( 'NONE',  ( -0.000000000000000000, -1.000000000000000000, -0.000000000000000000 ) ) ;
#281 = ORIENTED_EDGE ( 'NONE', *, *, #315, .T. ) ;
#282 = DIRECTION ( 'NONE',  ( 0.000000000000000000, -1.000000000000000000, 0.000000000000000000 ) ) ;
#283 = ORIENTED_EDGE ( 'NONE', *, *, #315, .F. ) ;
#284 = DIRECTION ( 'NONE',  ( 0.000000000000000000, 0.000000000000000000, -1.000000000000000000 ) ) ;
#285 = AXIS2_PLACEMENT_3D ( 'NONE', #510, #612, #88 ) ;
#286 = VERTEX_POINT ( 'NONE', #273 ) ;
#287 = DIRECTION ( 'NONE',  ( 0.000000000000000000, -1.000000000000000000, 0.000000000000000000 ) ) ;
#288 = EDGE_LOOP ( 'NONE', ( #279, #249 ) ) ;
#289 = CARTESIAN_POINT ( 'NONE',  ( 46.39999999999999858, 2.799999999999999378, 0.000000000000000000 ) ) ;
#290 = ADVANCED_FACE ( 'NONE', ( #22 ), #467, .T. ) ;
#291 = ORIENTED_EDGE ( 'NONE', *, *, #140, .T. ) ;
#292 = CARTESIAN_POINT ( 'NONE',  ( 0.6318857822723560336, 2.799999999999999378, 6.445931874350726787 ) ) ;
#293 = PLANE ( 'NONE',  #589 ) ;
#294 = VERTEX_POINT ( 'NONE', #126 ) ;
#295 = DIRECTION ( 'NONE',  ( -1.465963500825471646E-14, 0.000000000000000000, -1.000000000000000000 ) ) ;
#296 = EDGE_CURVE ( 'NONE', #144, #587, #387, .T. ) ;
#297 = CIRCLE ( 'NONE', #347, 1.300000000000001599 ) ;
#298 = DIRECTION ( 'NONE',  ( -0.000000000000000000, -1.000000000000000000, -0.000000000000000000 ) ) ;
#299 = ORIENTED_EDGE ( 'NONE', *, *, #428, .T. ) ;
#300 = DIRECTION ( 'NONE',  ( -0.000000000000000000, 1.000000000000000000, -0.000000000000000000 ) ) ;
#301 = PRODUCT_DEFINITION ( 'UNKNOWN', '', #226, #571 ) ;
#302 = CARTESIAN_POINT ( 'NONE',  ( 30.00000000000000000, 2.799999999999999378, 0.000000000000000000 ) ) ;
#303 = ORIENTED_EDGE ( 'NONE', *, *, #266, .T. ) ;
#304 = CYLINDRICAL_SURFACE ( 'NONE', #401, 3.549999999999997602 ) ;
#305 = UNCERTAINTY_MEASURE_WITH_UNIT (LENGTH_MEASURE( 1.000000000000000082E-05 ), #225, 'distance_accuracy_value', 'NONE');
#306 = ADVANCED_FACE ( 'NONE', ( #218, #31 ), #132, .F. ) ;
#307 = ORIENTED_EDGE ( 'NONE', *, *, #468, .F. ) ;
#308 = CARTESIAN_POINT ( 'NONE',  ( 30.00000000000000355, -1.899999999999999689, 2.599999999999992539 ) ) ;
#309 = AXIS2_PLACEMENT_3D ( 'NONE', #289, #149, #40 ) ;
#310 = ORIENTED_EDGE ( 'NONE', *, *, #43, .F. ) ;
#311 = DIRECTION ( 'NONE',  ( -0.000000000000000000, 1.000000000000000000, -0.000000000000000000 ) ) ;
#312 = DIRECTION ( 'NONE',  ( -0.000000000000000000, 1.000000000000000000, -0.000000000000000000 ) ) ;
#313 = EDGE_LOOP ( 'NONE', ( #252, #7, #523, #104 ) ) ;
#314 = CARTESIAN_POINT ( 'NONE',  ( 30.00000000000000000, -1.900000000000000133, 0.000000000000000000 ) ) ;
#315 = EDGE_CURVE ( 'NONE', #157, #87, #622, .T. ) ;
#316 = CARTESIAN_POINT ( 'NONE',  ( 38.95999999999999375, -1.899999999999999689, -1.300000000000001599 ) ) ;
#317 =( NAMED_UNIT ( * ) SI_UNIT ( $, .STERADIAN. ) SOLID_ANGLE_UNIT ( ) );
#318 = EDGE_CURVE ( 'NONE', #491, #572, #194, .T. ) ;
#319 = DIRECTION ( 'NONE',  ( 0.000000000000000000, -1.000000000000000000, 0.000000000000000000 ) ) ;
#320 = DIRECTION ( 'NONE',  ( 0.000000000000000000, 0.000000000000000000, -1.000000000000000000 ) ) ;
#321 = CARTESIAN_POINT ( 'NONE',  ( 42.82000000000000739, -4.700000000000000178, -1.300000000000001599 ) ) ;
#322 = DIRECTION ( 'NONE',  ( 0.000000000000000000, -1.000000000000000000, 0.000000000000000000 ) ) ;
#323 = ADVANCED_FACE ( 'NONE', ( #556 ), #227, .F. ) ;
#324 = DIRECTION ( 'NONE',  ( -0.000000000000000000, -1.000000000000000000, -0.000000000000000000 ) ) ;
#325 = ORIENTED_EDGE ( 'NONE', *, *, #197, .T. ) ;
#326 = LINE ( 'NONE', #81, #452 ) ;
#327 = MECHANICAL_DESIGN_GEOMETRIC_PRESENTATION_REPRESENTATION (  '', ( #129 ), #489 ) ;
#328 = AXIS2_PLACEMENT_3D ( 'NONE', #214, #449, #250 ) ;
#329 = DIRECTION ( 'NONE',  ( -0.000000000000000000, -1.000000000000000000, -0.000000000000000000 ) ) ;
#330 = ORIENTED_EDGE ( 'NONE', *, *, #60, .F. ) ;
#331 = DIRECTION ( 'NONE',  ( 0.000000000000000000, 0.000000000000000000, -1.000000000000000000 ) ) ;
#332 = ORIENTED_EDGE ( 'NONE', *, *, #207, .F. ) ;
#333 = DIRECTION ( 'NONE',  ( 0.000000000000000000, -1.000000000000000000, 0.000000000000000000 ) ) ;
#334 = ORIENTED_EDGE ( 'NONE', *, *, #64, .T. ) ;
#335 = CARTESIAN_POINT ( 'NONE',  ( 35.10000000000000142, 2.799999999999999378, 0.000000000000000000 ) ) ;
#336 = EDGE_CURVE ( 'NONE', #195, #95, #138, .T. ) ;
#337 = AXIS2_PLACEMENT_3D ( 'NONE', #341, #241, #196 ) ;
#338 = EDGE_LOOP ( 'NONE', ( #191, #332 ) ) ;
#339 = DIRECTION ( 'NONE',  ( 0.000000000000000000, -1.000000000000000000, 0.000000000000000000 ) ) ;
#340 = ORIENTED_EDGE ( 'NONE', *, *, #318, .F. ) ;
#341 = CARTESIAN_POINT ( 'NONE',  ( 0.000000000000000000, -4.700000000000000178, 0.000000000000000000 ) ) ;
#342 = ORIENTED_EDGE ( 'NONE', *, *, #190, .T. ) ;
#343 = CARTESIAN_POINT ( 'NONE',  ( 35.09999999999999432, -1.899999999999999689, 1.300000000000001599 ) ) ;
#344 = DIRECTION ( 'NONE',  ( 0.000000000000000000, 0.000000000000000000, -1.000000000000000000 ) ) ;
#345 = ORIENTED_EDGE ( 'NONE', *, *, #197, .F. ) ;
#346 = FACE_BOUND ( 'NONE', #288, .T. ) ;
#347 = AXIS2_PLACEMENT_3D ( 'NONE', #93, #524, #536 ) ;
#348 = VERTEX_POINT ( 'NONE', #470 ) ;
#349 = DIRECTION ( 'NONE',  ( -0.000000000000000000, -1.000000000000000000, -0.000000000000000000 ) ) ;
#350 = EDGE_CURVE ( 'NONE', #502, #87, #26, .T. ) ;
#351 = VERTEX_POINT ( 'NONE', #376 ) ;
#352 = EDGE_CURVE ( 'NONE', #454, #601, #326, .T. ) ;
#353 = DIRECTION ( 'NONE',  ( 0.000000000000000000, -1.000000000000000000, 0.000000000000000000 ) ) ;
#354 = EDGE_LOOP ( 'NONE', ( #9, #445, #483, #579, #537, #527 ) ) ;
#355 = LINE ( 'NONE', #166, #461 ) ;
#356 = CLOSED_SHELL ( 'NONE', ( #211, #278, #424, #52, #290, #114, #595, #485, #323, #159, #542, #455, #306, #406, #143, #58, #236, #86, #358 ) ) ;
#357 = AXIS2_PLACEMENT_3D ( 'NONE', #230, #512, #275 ) ;
#358 = ADVANCED_FACE ( 'NONE', ( #181 ), #378, .F. ) ;
#359 = EDGE_LOOP ( 'NONE', ( #162, #334, #115, #562 ) ) ;
#360 = CARTESIAN_POINT ( 'NONE',  ( 30.34634146341466732, 2.799999999999999378, -3.533064900440159306 ) ) ;
#361 = ORIENTED_EDGE ( 'NONE', *, *, #398, .T. ) ;
#362 = CARTESIAN_POINT ( 'NONE',  ( 30.00000000000000355, -4.700000000000000178, 0.000000000000000000 ) ) ;
#363 = VERTEX_POINT ( 'NONE', #33 ) ;
#364 = DIRECTION ( 'NONE',  ( -0.000000000000000000, -1.000000000000000000, -0.000000000000000000 ) ) ;
#365 = DIRECTION ( 'NONE',  ( 0.000000000000000000, -1.000000000000000000, 0.000000000000000000 ) ) ;
#366 = EDGE_LOOP ( 'NONE', ( #283, #405 ) ) ;
#367 = DIRECTION ( 'NONE',  ( -0.000000000000000000, -1.000000000000000000, -0.000000000000000000 ) ) ;
#368 = VECTOR ( 'NONE', #400, 1000.000000000000000 ) ;
#369 = LINE ( 'NONE', #122, #107 ) ;
#370 = DIRECTION ( 'NONE',  ( 1.000000000000000000, 0.000000000000000000, 0.000000000000000000 ) ) ;
#371 = DIRECTION ( 'NONE',  ( 0.09756097560974531790, 0.000000000000000000, 0.9952295494196676806 ) ) ;
#372 = EDGE_CURVE ( 'NONE', #49, #32, #82, .T. ) ;
#373 = CARTESIAN_POINT ( 'NONE',  ( 35.10000000000000142, -4.700000000000000178, 0.000000000000000000 ) ) ;
#374 = DIRECTION ( 'NONE',  ( -0.000000000000000000, -1.000000000000000000, -0.000000000000000000 ) ) ;
#375 = ORIENTED_EDGE ( 'NONE', *, *, #531, .F. ) ;
#376 = CARTESIAN_POINT ( 'NONE',  ( 38.95999999999999375, -4.700000000000000178, -1.300000000000001599 ) ) ;
#377 = CARTESIAN_POINT ( 'NONE',  ( 35.10000000000000142, -4.700000000000000178, -13.50000000000000000 ) ) ;
#378 = CYLINDRICAL_SURFACE ( 'NONE', #431, 2.599999999999992539 ) ;
#379 = AXIS2_PLACEMENT_3D ( 'NONE', #498, #458, #255 ) ;
#380 = AXIS2_PLACEMENT_3D ( 'NONE', #362, #55, #103 ) ;
#381 = EDGE_LOOP ( 'NONE', ( #307, #495 ) ) ;
#382 = DIRECTION ( 'NONE',  ( 0.000000000000000000, -1.000000000000000000, 0.000000000000000000 ) ) ;
#383 = VERTEX_POINT ( 'NONE', #90 ) ;
#384 = CARTESIAN_POINT ( 'NONE',  ( 30.00000000000000000, 2.799999999999999378, 3.549999999999997602 ) ) ;
#385 = EDGE_LOOP ( 'NONE', ( #330, #548, #37, #434 ) ) ;
#386 = DIRECTION ( 'NONE',  ( 0.000000000000000000, 0.000000000000000000, -1.000000000000000000 ) ) ;
#387 = CIRCLE ( 'NONE', #508, 3.549999999999997602 ) ;
#388 = VECTOR ( 'NONE', #444, 1000.000000000000114 ) ;
#389 = ORIENTED_EDGE ( 'NONE', *, *, #430, .F. ) ;
#390 = CARTESIAN_POINT ( 'NONE',  ( 30.34634146341463179, -1.900000000000000133, -3.533064900439814249 ) ) ;
#391 = EDGE_CURVE ( 'NONE', #486, #392, #199, .T. ) ;
#392 = VERTEX_POINT ( 'NONE', #189 ) ;
#393 = CYLINDRICAL_SURFACE ( 'NONE', #269, 1.300000000000001599 ) ;
#394 = CARTESIAN_POINT ( 'NONE',  ( 35.09999999999999432, -4.700000000000000178, -1.300000000000001599 ) ) ;
#395 = EDGE_LOOP ( 'NONE', ( #186, #184 ) ) ;
#396 = FACE_OUTER_BOUND ( 'NONE', #626, .T. ) ;
#397 = DIRECTION ( 'NONE',  ( 0.000000000000000000, 0.000000000000000000, -1.000000000000000000 ) ) ;
#398 = EDGE_CURVE ( 'NONE', #502, #363, #276, .T. ) ;
#399 = EDGE_LOOP ( 'NONE', ( #565, #361, #559, #281 ) ) ;
#400 = DIRECTION ( 'NONE',  ( -0.000000000000000000, -1.000000000000000000, -0.000000000000000000 ) ) ;
#401 = AXIS2_PLACEMENT_3D ( 'NONE', #598, #5, #549 ) ;
#402 = ORIENTED_EDGE ( 'NONE', *, *, #513, .F. ) ;
#403 = CARTESIAN_POINT ( 'NONE',  ( 30.00000000000000355, -4.700000000000000178, -2.599999999999992539 ) ) ;
#404 = DIRECTION ( 'NONE',  ( 0.000000000000000000, -0.000000000000000000, -1.000000000000000000 ) ) ;
#405 = ORIENTED_EDGE ( 'NONE', *, *, #121, .F. ) ;
#406 = ADVANCED_FACE ( 'NONE', ( #346, #98, #479, #235, #396 ), #42, .T. ) ;
#407 = ORIENTED_EDGE ( 'NONE', *, *, #30, .T. ) ;
#408 = LINE ( 'NONE', #116, #614 ) ;
#409 = AXIS2_PLACEMENT_3D ( 'NONE', #302, #109, #344 ) ;
#410 = DIRECTION ( 'NONE',  ( 0.000000000000000000, 0.000000000000000000, -1.000000000000000000 ) ) ;
#411 = AXIS2_PLACEMENT_3D ( 'NONE', #637, #588, #38 ) ;
#412 = DIRECTION ( 'NONE',  ( 0.000000000000000000, -1.000000000000000000, 0.000000000000000000 ) ) ;
#413 = CARTESIAN_POINT ( 'NONE',  ( 30.34634146341466021, -1.899999999999999689, 3.533064900439819578 ) ) ;
#414 = CARTESIAN_POINT ( 'NONE',  ( 42.82000000000000739, 5.453910524340073174, 0.000000000000000000 ) ) ;
#415 = DIRECTION ( 'NONE',  ( -0.000000000000000000, 1.000000000000000000, -0.000000000000000000 ) ) ;
#416 = DIRECTION ( 'NONE',  ( -0.000000000000000000, -1.000000000000000000, -0.000000000000000000 ) ) ;
#417 = DIRECTION ( 'NONE',  ( 0.000000000000000000, 0.000000000000000000, -1.000000000000000000 ) ) ;
#418 = DIRECTION ( 'NONE',  ( 0.000000000000000000, 0.000000000000000000, -1.000000000000000000 ) ) ;
#419 = AXIS2_PLACEMENT_3D ( 'NONE', #552, #274, #618 ) ;
#420 = CIRCLE ( 'NONE', #223, 1.300000000000001599 ) ;
#421 = FACE_BOUND ( 'NONE', #262, .T. ) ;
#422 =( NAMED_UNIT ( * ) PLANE_ANGLE_UNIT ( ) SI_UNIT ( $, .RADIAN. ) );
#423 = CARTESIAN_POINT ( 'NONE',  ( 35.09999999999999432, 5.453910524340073174, 1.300000000000001599 ) ) ;
#424 = ADVANCED_FACE ( 'NONE', ( #484 ), #393, .F. ) ;
#425 = CYLINDRICAL_SURFACE ( 'NONE', #419, 1.300000000000001599 ) ;
#426 = VERTEX_POINT ( 'NONE', #46 ) ;
#427 = DIRECTION ( 'NONE',  ( 0.000000000000000000, -1.000000000000000000, 0.000000000000000000 ) ) ;
#428 = EDGE_CURVE ( 'NONE', #348, #32, #433, .T. ) ;
#429 = CARTESIAN_POINT ( 'NONE',  ( 30.00000000000000355, 5.453910524340073174, 2.599999999999992539 ) ) ;
#430 = EDGE_CURVE ( 'NONE', #601, #583, #3, .T. ) ;
#431 = AXIS2_PLACEMENT_3D ( 'NONE', #566, #130, #331 ) ;
#432 = ORIENTED_EDGE ( 'NONE', *, *, #525, .F. ) ;
#433 = LINE ( 'NONE', #96, #442 ) ;
#434 = ORIENTED_EDGE ( 'NONE', *, *, #94, .T. ) ;
#435 = DIRECTION ( 'NONE',  ( 0.000000000000000000, -1.000000000000000000, 0.000000000000000000 ) ) ;
#436 = PRODUCT ( 'mg90s_horn_base', 'mg90s_horn_base', '', ( #20 ) ) ;
#437 = ORIENTED_EDGE ( 'NONE', *, *, #60, .T. ) ;
#438 = CARTESIAN_POINT ( 'NONE',  ( 30.00000000000000000, -1.900000000000000133, 0.000000000000000000 ) ) ;
#439 = EDGE_CURVE ( 'NONE', #100, #583, #137, .T. ) ;
#440 = VECTOR ( 'NONE', #124, 1000.000000000000000 ) ;
#441 = AXIS2_PLACEMENT_3D ( 'NONE', #128, #509, #73 ) ;
#442 = VECTOR ( 'NONE', #287, 1000.000000000000000 ) ;
#443 = ORIENTED_EDGE ( 'NONE', *, *, #190, .F. ) ;
#444 = DIRECTION ( 'NONE',  ( -0.9952295494196675696, 0.000000000000000000, 0.09756097560974530403 ) ) ;
#445 = ORIENTED_EDGE ( 'NONE', *, *, #493, .T. ) ;
#446 = CARTESIAN_POINT ( 'NONE',  ( 30.00000000000000000, 2.799999999999999378, -3.549999999999997602 ) ) ;
#447 = EDGE_CURVE ( 'NONE', #144, #198, #580, .T. ) ;
#448 = ORIENTED_EDGE ( 'NONE', *, *, #623, .T. ) ;
#449 = DIRECTION ( 'NONE',  ( -0.000000000000000000, 1.000000000000000000, -0.000000000000000000 ) ) ;
#450 = EDGE_LOOP ( 'NONE', ( #17, #155, #375, #620 ) ) ;
#451 = CARTESIAN_POINT ( 'NONE',  ( 38.95999999999999375, 5.453910524340073174, -1.300000000000001599 ) ) ;
#452 = VECTOR ( 'NONE', #427, 1000.000000000000000 ) ;
#453 = FACE_OUTER_BOUND ( 'NONE', #39, .T. ) ;
#454 = VERTEX_POINT ( 'NONE', #384 ) ;
#455 = ADVANCED_FACE ( 'NONE', ( #573 ), #248, .T. ) ;
#456 = ORIENTED_EDGE ( 'NONE', *, *, #296, .F. ) ;
#457 = CARTESIAN_POINT ( 'NONE',  ( 35.09999999999999432, -1.899999999999999689, 0.000000000000000000 ) ) ;
#458 = DIRECTION ( 'NONE',  ( 0.000000000000000000, -1.000000000000000000, 0.000000000000000000 ) ) ;
#459 = CARTESIAN_POINT ( 'NONE',  ( 46.59024390243906311, 2.799999999999999378, 1.940697621368529413 ) ) ;
#460 = CARTESIAN_POINT ( 'NONE',  ( 0.6318857822725835183, 2.799999999999999378, -6.445931874351667368 ) ) ;
#461 = VECTOR ( 'NONE', #349, 1000.000000000000000 ) ;
#462 = FACE_OUTER_BOUND ( 'NONE', #399, .T. ) ;
#463 = APPLICATION_PROTOCOL_DEFINITION ( 'draft international standard', 'automotive_design', 1998, #178 ) ;
#464 = ORIENTED_EDGE ( 'NONE', *, *, #175, .T. ) ;
#465 = DIRECTION ( 'NONE',  ( 0.000000000000000000, -1.000000000000000000, 0.000000000000000000 ) ) ;
#466 = DIRECTION ( 'NONE',  ( 0.000000000000000000, 0.000000000000000000, -1.000000000000000000 ) ) ;
#467 = CYLINDRICAL_SURFACE ( 'NONE', #193, 13.50000000000000000 ) ;
#468 = EDGE_CURVE ( 'NONE', #383, #294, #297, .T. ) ;
#469 = DIRECTION ( 'NONE',  ( -0.000000000000000000, 1.000000000000000000, -0.000000000000000000 ) ) ;
#470 = CARTESIAN_POINT ( 'NONE',  ( 35.10000000000000142, 2.799999999999999378, -13.50000000000000000 ) ) ;
#471 = AXIS2_PLACEMENT_3D ( 'NONE', #373, #616, #563 ) ;
#472 = CIRCLE ( 'NONE', #171, 3.549999999999997602 ) ;
#473 = CIRCLE ( 'NONE', #258, 2.599999999999992539 ) ;
#474 = CARTESIAN_POINT ( 'NONE',  ( 38.95999999999999375, -1.899999999999999689, 0.000000000000000000 ) ) ;
#475 = CARTESIAN_POINT ( 'NONE',  ( 35.10000000000000142, 2.799999999999999378, 0.000000000000000000 ) ) ;
#476 = EDGE_CURVE ( 'NONE', #1, #515, #578, .T. ) ;
#477 = DIRECTION ( 'NONE',  ( 0.000000000000000000, 0.000000000000000000, -1.000000000000000000 ) ) ;
#478 = ORIENTED_EDGE ( 'NONE', *, *, #64, .F. ) ;
#479 = FACE_BOUND ( 'NONE', #338, .T. ) ;
#480 = AXIS2_PLACEMENT_3D ( 'NONE', #605, #253, #204 ) ;
#481 = VERTEX_POINT ( 'NONE', #390 ) ;
#482 = CARTESIAN_POINT ( 'NONE',  ( 30.34634146341466021, 2.799999999999999378, 3.533064900439819578 ) ) ;
#483 = ORIENTED_EDGE ( 'NONE', *, *, #603, .T. ) ;
#484 = FACE_OUTER_BOUND ( 'NONE', #628, .T. ) ;
#485 = ADVANCED_FACE ( 'NONE', ( #633 ), #238, .F. ) ;
#486 = VERTEX_POINT ( 'NONE', #101 ) ;
#487 = CARTESIAN_POINT ( 'NONE',  ( 35.10000000000000142, -4.700000000000000178, 0.000000000000000000 ) ) ;
#488 = AXIS2_PLACEMENT_3D ( 'NONE', #561, #271, #417 ) ;
#489 =( GEOMETRIC_REPRESENTATION_CONTEXT ( 3 ) GLOBAL_UNCERTAINTY_ASSIGNED_CONTEXT ( ( #520 ) ) GLOBAL_UNIT_ASSIGNED_CONTEXT ( ( #66, #538, #591 ) ) REPRESENTATION_CONTEXT ( 'NONE', 'WORKASPACE' ) );
#490 = LINE ( 'NONE', #53, #630 ) ;
#491 = VERTEX_POINT ( 'NONE', #629 ) ;
#492 = DIRECTION ( 'NONE',  ( 0.000000000000000000, -1.000000000000000000, 0.000000000000000000 ) ) ;
#493 = EDGE_CURVE ( 'NONE', #173, #100, #192, .T. ) ;
#494 = LINE ( 'NONE', #48, #34 ) ;
#495 = ORIENTED_EDGE ( 'NONE', *, *, #147, .F. ) ;
#496 = FILL_AREA_STYLE ('',( #111 ) ) ;
#497 = ORIENTED_EDGE ( 'NONE', *, *, #350, .T. ) ;
#498 = CARTESIAN_POINT ( 'NONE',  ( 38.95999999999999375, -4.700000000000000178, 0.000000000000000000 ) ) ;
#499 = ORIENTED_EDGE ( 'NONE', *, *, #175, .F. ) ;
#500 = CARTESIAN_POINT ( 'NONE',  ( 35.10000000000000142, 2.799999999999999378, 0.000000000000000000 ) ) ;
#501 = AXIS2_PLACEMENT_3D ( 'NONE', #460, #261, #14 ) ;
#502 = VERTEX_POINT ( 'NONE', #343 ) ;
#503 = CARTESIAN_POINT ( 'NONE',  ( 30.00000000000000000, -1.900000000000000133, 3.549999999999997602 ) ) ;
#504 = ORIENTED_EDGE ( 'NONE', *, *, #634, .T. ) ;
#505 = DIRECTION ( 'NONE',  ( 0.000000000000000000, 0.000000000000000000, -1.000000000000000000 ) ) ;
#506 = CIRCLE ( 'NONE', #135, 1.300000000000001599 ) ;
#507 = LINE ( 'NONE', #213, #23 ) ;
#508 = AXIS2_PLACEMENT_3D ( 'NONE', #18, #382, #320 ) ;
#509 = DIRECTION ( 'NONE',  ( 0.000000000000000000, -1.000000000000000000, 0.000000000000000000 ) ) ;
#510 = CARTESIAN_POINT ( 'NONE',  ( 35.09999999999999432, -4.700000000000000178, 0.000000000000000000 ) ) ;
#511 = DIRECTION ( 'NONE',  ( 0.9952295494196675696, 0.000000000000000000, -0.09756097560974530403 ) ) ;
#512 = DIRECTION ( 'NONE',  ( 0.000000000000000000, -1.000000000000000000, 0.000000000000000000 ) ) ;
#513 = EDGE_CURVE ( 'NONE', #71, #351, #533, .T. ) ;
#514 = DIRECTION ( 'NONE',  ( 0.000000000000000000, 0.000000000000000000, -1.000000000000000000 ) ) ;
#515 = VERTEX_POINT ( 'NONE', #403 ) ;
#516 = DIRECTION ( 'NONE',  ( 0.000000000000000000, -0.000000000000000000, -1.000000000000000000 ) ) ;
#517 = AXIS2_PLACEMENT_3D ( 'NONE', #77, #609, #174 ) ;
#518 = FACE_OUTER_BOUND ( 'NONE', #632, .T. ) ;
#519 = CARTESIAN_POINT ( 'NONE',  ( 38.95999999999999375, 5.453910524340073174, 0.000000000000000000 ) ) ;
#520 = UNCERTAINTY_MEASURE_WITH_UNIT (LENGTH_MEASURE( 1.000000000000000082E-05 ), #66, 'distance_accuracy_value', 'NONE');
#521 = ORIENTED_EDGE ( 'NONE', *, *, #574, .F. ) ;
#522 = FACE_OUTER_BOUND ( 'NONE', #203, .T. ) ;
#523 = ORIENTED_EDGE ( 'NONE', *, *, #493, .F. ) ;
#524 = DIRECTION ( 'NONE',  ( -0.000000000000000000, 1.000000000000000000, -0.000000000000000000 ) ) ;
#525 = EDGE_CURVE ( 'NONE', #426, #392, #108, .T. ) ;
#526 = CIRCLE ( 'NONE', #257, 1.950000000000183364 ) ;
#527 = ORIENTED_EDGE ( 'NONE', *, *, #215, .T. ) ;
#528 = DIRECTION ( 'NONE',  ( 0.000000000000000000, 0.000000000000000000, -1.000000000000000000 ) ) ;
#529 = ORIENTED_EDGE ( 'NONE', *, *, #391, .T. ) ;
#530 = DIRECTION ( 'NONE',  ( -0.000000000000000000, -1.000000000000000000, -0.000000000000000000 ) ) ;
#531 = EDGE_CURVE ( 'NONE', #198, #601, #70, .T. ) ;
#532 = ORIENTED_EDGE ( 'NONE', *, *, #140, .F. ) ;
#533 = LINE ( 'NONE', #451, #368 ) ;
#534 = AXIS2_PLACEMENT_3D ( 'NONE', #519, #416, #418 ) ;
#535 = ORIENTED_EDGE ( 'NONE', *, *, #147, .T. ) ;
#536 = DIRECTION ( 'NONE',  ( 0.000000000000000000, 0.000000000000000000, -1.000000000000000000 ) ) ;
#537 = ORIENTED_EDGE ( 'NONE', *, *, #296, .T. ) ;
#538 =( NAMED_UNIT ( * ) PLANE_ANGLE_UNIT ( ) SI_UNIT ( $, .RADIAN. ) );
#539 = CARTESIAN_POINT ( 'NONE',  ( 30.00000000000000000, -1.900000000000000133, -3.549999999999997602 ) ) ;
#540 = EDGE_LOOP ( 'NONE', ( #624, #504, #342, #217 ) ) ;
#541 = DIRECTION ( 'NONE',  ( 0.000000000000000000, -1.000000000000000000, 0.000000000000000000 ) ) ;
#542 = ADVANCED_FACE ( 'NONE', ( #163 ), #2, .F. ) ;
#543 = DIRECTION ( 'NONE',  ( 0.000000000000000000, -1.000000000000000000, 0.000000000000000000 ) ) ;
#544 = ORIENTED_EDGE ( 'NONE', *, *, #547, .T. ) ;
#545 = SURFACE_SIDE_STYLE ('',( #593 ) ) ;
#546 = AXIS2_PLACEMENT_3D ( 'NONE', #487, #435, #134 ) ;
#547 = EDGE_CURVE ( 'NONE', #481, #198, #472, .T. ) ;
#548 = ORIENTED_EDGE ( 'NONE', *, *, #43, .T. ) ;
#549 = DIRECTION ( 'NONE',  ( 0.000000000000000000, 0.000000000000000000, -1.000000000000000000 ) ) ;
#550 = LINE ( 'NONE', #270, #158 ) ;
#551 = SURFACE_STYLE_USAGE ( .BOTH. , #545 ) ;
#552 = CARTESIAN_POINT ( 'NONE',  ( 42.82000000000000739, 5.453910524340073174, 0.000000000000000000 ) ) ;
#553 = CARTESIAN_POINT ( 'NONE',  ( 30.00000000000000355, -1.899999999999999689, 0.000000000000000000 ) ) ;
#554 = CIRCLE ( 'NONE', #160, 1.300000000000001599 ) ;
#555 = ORIENTED_EDGE ( 'NONE', *, *, #525, .T. ) ;
#556 = FACE_OUTER_BOUND ( 'NONE', #313, .T. ) ;
#557 = COLOUR_RGB ( '',0.7921568627450980005, 0.8196078431372548767, 0.9333333333333333481 ) ;
#558 = CARTESIAN_POINT ( 'NONE',  ( 38.95999999999999375, -4.700000000000000178, 0.000000000000000000 ) ) ;
#559 = ORIENTED_EDGE ( 'NONE', *, *, #582, .T. ) ;
#560 = DIRECTION ( 'NONE',  ( 0.9952295494196675696, 0.000000000000000000, -0.09756097560974530403 ) ) ;
#561 = CARTESIAN_POINT ( 'NONE',  ( 35.09999999999999432, -4.700000000000000178, 0.000000000000000000 ) ) ;
#562 = ORIENTED_EDGE ( 'NONE', *, *, #428, .F. ) ;
#563 = DIRECTION ( 'NONE',  ( 0.000000000000000000, 0.000000000000000000, -1.000000000000000000 ) ) ;
#564 = MANIFOLD_SOLID_BREP ( 'Cut-Extrude1', #356 ) ;
#565 = ORIENTED_EDGE ( 'NONE', *, *, #350, .F. ) ;
#566 = CARTESIAN_POINT ( 'NONE',  ( 30.00000000000000355, 5.453910524340073174, 0.000000000000000000 ) ) ;
#567 = CIRCLE ( 'NONE', #488, 1.300000000000001599 ) ;
#568 = AXIS2_PLACEMENT_3D ( 'NONE', #500, #50, #154 ) ;
#569 = EDGE_LOOP ( 'NONE', ( #260, #61, #136, #389 ) ) ;
#570 = LINE ( 'NONE', #429, #577 ) ;
#571 = PRODUCT_DEFINITION_CONTEXT ( 'detailed design', #178, 'design' ) ;
#572 = VERTEX_POINT ( 'NONE', #308 ) ;
#573 = FACE_OUTER_BOUND ( 'NONE', #80, .T. ) ;
#574 = EDGE_CURVE ( 'NONE', #348, #286, #212, .T. ) ;
#575 = ORIENTED_EDGE ( 'NONE', *, *, #30, .F. ) ;
#576 = DIRECTION ( 'NONE',  ( 0.000000000000000000, 0.000000000000000000, -1.000000000000000000 ) ) ;
#577 = VECTOR ( 'NONE', #367, 1000.000000000000000 ) ;
#578 = CIRCLE ( 'NONE', #411, 2.599999999999992539 ) ;
#579 = ORIENTED_EDGE ( 'NONE', *, *, #264, .T. ) ;
#580 = LINE ( 'NONE', #446, #27 ) ;
#581 = PRODUCT_DEFINITION_SHAPE ( 'NONE', 'NONE',  #301 ) ;
#582 = EDGE_CURVE ( 'NONE', #363, #157, #355, .T. ) ;
#583 = VERTEX_POINT ( 'NONE', #413 ) ;
#584 = DIRECTION ( 'NONE',  ( -0.000000000000000000, 1.000000000000000000, -0.000000000000000000 ) ) ;
#585 = EDGE_CURVE ( 'NONE', #515, #1, #12, .T. ) ;
#586 = CARTESIAN_POINT ( 'NONE',  ( 46.59024390243906311, 2.799999999999999378, 1.940697621368529413 ) ) ;
#587 = VERTEX_POINT ( 'NONE', #360 ) ;
#588 = DIRECTION ( 'NONE',  ( 0.000000000000000000, -1.000000000000000000, 0.000000000000000000 ) ) ;
#589 = AXIS2_PLACEMENT_3D ( 'NONE', #44, #353, #404 ) ;
#590 = ORIENTED_EDGE ( 'NONE', *, *, #318, .T. ) ;
#591 =( NAMED_UNIT ( * ) SI_UNIT ( $, .STERADIAN. ) SOLID_ANGLE_UNIT ( ) );
#592 = ORIENTED_EDGE ( 'NONE', *, *, #634, .F. ) ;
#593 = SURFACE_STYLE_FILL_AREA ( #496 ) ;
#594 = CARTESIAN_POINT ( 'NONE',  ( 42.82000000000000739, -4.700000000000000178, 1.300000000000001599 ) ) ;
#595 = ADVANCED_FACE ( 'NONE', ( #268 ), #304, .F. ) ;
#596 = CARTESIAN_POINT ( 'NONE',  ( 30.00000000000000000, 2.799999999999999378, -3.549999999999997602 ) ) ;
#597 = ORIENTED_EDGE ( 'NONE', *, *, #617, .T. ) ;
#598 = CARTESIAN_POINT ( 'NONE',  ( 30.00000000000000000, 2.799999999999999378, 0.000000000000000000 ) ) ;
#599 = CARTESIAN_POINT ( 'NONE',  ( 42.82000000000000739, -1.899999999999999689, 0.000000000000000000 ) ) ;
#600 = AXIS2_PLACEMENT_3D ( 'NONE', #314, #311, #505 ) ;
#601 = VERTEX_POINT ( 'NONE', #503 ) ;
#602 = LINE ( 'NONE', #164, #256 ) ;
#603 = EDGE_CURVE ( 'NONE', #100, #454, #118, .T. ) ;
#604 = CARTESIAN_POINT ( 'NONE',  ( 30.00000000000000355, -4.700000000000000178, 2.599999999999992539 ) ) ;
#605 = CARTESIAN_POINT ( 'NONE',  ( 30.00000000000000000, 2.799999999999999378, 0.000000000000000000 ) ) ;
#606 = EDGE_CURVE ( 'NONE', #486, #173, #526, .T. ) ;
#607 = CARTESIAN_POINT ( 'NONE',  ( 0.6318857822723560336, -1.900000000000000133, 6.445931874350726787 ) ) ;
#608 = DIRECTION ( 'NONE',  ( 0.000000000000000000, 0.000000000000000000, 1.000000000000000000 ) ) ;
#609 = DIRECTION ( 'NONE',  ( -0.000000000000000000, 1.000000000000000000, -0.000000000000000000 ) ) ;
#610 = CARTESIAN_POINT ( 'NONE',  ( 42.82000000000000739, -4.700000000000000178, 0.000000000000000000 ) ) ;
#611 = AXIS2_PLACEMENT_3D ( 'NONE', #29, #282, #74 ) ;
#612 = DIRECTION ( 'NONE',  ( 0.000000000000000000, -1.000000000000000000, 0.000000000000000000 ) ) ;
#613 = VECTOR ( 'NONE', #492, 1000.000000000000000 ) ;
#614 = VECTOR ( 'NONE', #374, 1000.000000000000000 ) ;
#615 = FACE_BOUND ( 'NONE', #395, .T. ) ;
#616 = DIRECTION ( 'NONE',  ( 0.000000000000000000, -1.000000000000000000, 0.000000000000000000 ) ) ;
#617 = EDGE_CURVE ( 'NONE', #363, #502, #420, .T. ) ;
#618 = DIRECTION ( 'NONE',  ( 0.000000000000000000, 0.000000000000000000, -1.000000000000000000 ) ) ;
#619 = CARTESIAN_POINT ( 'NONE',  ( 0.000000000000000000, 2.799999999999999378, 0.000000000000000000 ) ) ;
#620 = ORIENTED_EDGE ( 'NONE', *, *, #447, .F. ) ;
#621 = CARTESIAN_POINT ( 'NONE',  ( 38.95999999999999375, -4.700000000000000178, 1.300000000000001599 ) ) ;
#622 = CIRCLE ( 'NONE', #285, 1.300000000000001599 ) ;
#623 = EDGE_CURVE ( 'NONE', #383, #95, #408, .T. ) ;
#624 = ORIENTED_EDGE ( 'NONE', *, *, #266, .F. ) ;
#625 = DIRECTION ( 'NONE',  ( 0.000000000000000000, -1.000000000000000000, 0.000000000000000000 ) ) ;
#626 = EDGE_LOOP ( 'NONE', ( #125, #41 ) ) ;
#627 = CARTESIAN_POINT ( 'NONE',  ( 46.59024390243906311, 2.799999999999999378, -1.940697621368529413 ) ) ;
#628 = EDGE_LOOP ( 'NONE', ( #325, #437, #267, #402 ) ) ;
#629 = CARTESIAN_POINT ( 'NONE',  ( 30.00000000000000355, -1.899999999999999689, -2.599999999999992539 ) ) ;
#630 = VECTOR ( 'NONE', #543, 1000.000000000000000 ) ;
#631 = VECTOR ( 'NONE', #177, 1000.000000000000000 ) ;
#632 = EDGE_LOOP ( 'NONE', ( #499, #535, #448, #131 ) ) ;
#633 = FACE_OUTER_BOUND ( 'NONE', #65, .T. ) ;
#634 = EDGE_CURVE ( 'NONE', #572, #491, #473, .T. ) ;
#635 = CYLINDRICAL_SURFACE ( 'NONE', #409, 3.549999999999997602 ) ;
#636 = EDGE_LOOP ( 'NONE', ( #247, #464, #54, #180 ) ) ;
#637 = CARTESIAN_POINT ( 'NONE',  ( 30.00000000000000355, -4.700000000000000178, 0.000000000000000000 ) ) ;
ENDSEC;
END-ISO-10303-21;
